<svg xmlns="http://www.w3.org/2000/svg" data-name="&amp;apos;I&amp;apos; Wireframe" viewBox="0 0 200 200"><path d="m145.27 39.81-10.09-10.09-.08-.08-.11.03-80.16 20.04-.15.04v20.39l.06.06 10.09 10.09.08.08.11-.03 19.66-4.92v56.83l-29.85 7.46-.15.04v20.39l.06.06 10.09 10.09.08.08.11-.03 80.16-20.04.15-.04v-20.39l-.06-.06-10.09-10.09-.08-.08-.11.03-19.66 4.92V67.76l29.85-7.46.15-.04V39.87zm-80.6 118.11v11.3l-9.04-9.04zm0-90v11.3l-9.04-9.04zm-9.34-17.14 9.35 9.35v7.11l-9.35 2.34zm79.34-8.53L65.09 59.64l-9.46-9.46 79.04-19.76zm.66-.17v-11.3l9.04 9.04zm9.34 17.14-9.35-9.35v-7.11l9.35-2.34zm-29.34 77.86v-11.83l19.35-4.84v11.83zM84.67 62.92v11.83l-19.35 4.84V67.76zM65.33 150.3v-.05l29.85-7.46.15-.04V72.36l-.06-.06-10.09-10.09-.08-.08-.11.03-19.66 4.92v-6.83l69.35-17.34v6.83l-29.85 7.46-.15.04v70.39l.06.06 10.09 10.09.08.08.11-.03 19.66-4.92v6.83l-69.35 17.34zm29.34-77.38v68.8l-9.35-9.35V75.26zm-9.34 1.66v-11.3l9.04 9.04zm20 52.5v-68.8l9.35 9.35v57.11zm9.34-1.66v11.3l-9.04-9.04zm-20.31 16.9-29.26 7.32-9.46-9.46 29.26-7.32zm50-82.5-29.26 7.32-9.46-9.46 29.26-7.32zm-79.69 90.31v7.11l-9.35 2.34v-18.8zm.66 7.62 69.58-17.39 9.46 9.46-79.04 19.76zm70-25.67v-11.3l9.04 9.04zm9.34 17.14-9.35-9.35v-7.11l9.35-2.34z"/></svg>