<svg xmlns="http://www.w3.org/2000/svg" data-name="&amp;apos;I&amp;apos; Line" viewBox="0 0 200 200"><path d="m140.25 155.6-11.62-11.62-14.79 11.27h-9.13l2.03-12.15-5.32 12.15H71.11l-11.53-20.5h30.18v-6.09l.06-.07 14.4-17.1-3.54-1.55-10.92 5.46.02-28 3.26-7.38-2.92 1.46-.22-.45 3.46-1.73.47-1.07-4.14-.52 2.26-7.34-2.31-5.62h4.03l1.59-5.17-11.47 3.67.25 2H67.43l-7.67-5.12v-9.01l3.25-2.32-3.18-3.64.38-.33 3.22 3.68 5.3-3.78 12.71 3.57-.44-3.54h19.37l-2.51 8.15 6.37 1.79 4.39-9.94h15.23l5.52 3.4 12.28-3.93-8.96 5.97 7.59 4.67v10.47l-21.32-5.98-8.86 5.9h-9.99l-5.04 11.41.53 1.28.38.05 14.29-7.15V125l-2.37 14.22 1.96-4.47h10.27l8.57 8.57 11.58-8.82v21.11Zm-34.96-.85h8.37l14.6-11.13-8.37-8.37h-9.73l-2.62 5.98zm-33.89 0h29.69l5.98-13.67 2.69-16.12v-11.04l-5.07-2.22-14.44 17.14v6.41H60.43zm57.63-11.08 10.72 10.72V135.5zm-38.78-38.29v9.21l9.83-4.91zm14.77 5.92 4.51 1.97-2.02-4.93zm2.86-3.39 1.88 4.58v-6.81zm-6.62 1.74 3.29 1.44 2.75-3.27-.41-.99-5.64 2.82ZM90.4 104.9l10.26 4.49 6.04-3.02-5.92-14.44zm16.94 1.71.32.78 1.37-1.62zm-6.21-15.13 6.02 14.66 2.6-1.3V80.71zm-10.88-3.93v16.73l10.31-12.89-5.16-12.57-1.67.84zm5.6-8.95 5.07 12.35 8.61-10.76-13.48-1.68-.19.1Zm1-.5 12.9 1.61v-8.06zm-2.52.19-.29.65 1.1-.55zm.22-.47.47.06-.24-.58zm-4.22-.53 3.7.46.48-1.1-2.28-5.56-1.91 6.19Zm2.13-6.94 2.33 5.68 4.75-10.77h-5.51l-1.57 5.1Zm-2.09-5.1 1.79 4.37 1.34-4.37zm9.94-.5h9.61l8.37-5.58-11.59-3.25-2.91.93-3.49 7.9Zm-6.13 0h5.58l3.4-7.7-7.33 2.35zm-15.08 0h4.37l-.17-1.34zm-11.52 0h9.37L63.33 49.18l-3.08 2.2v8.49zm-3.84-15.86 13.84 15.82 5.66-1.81-1.76-14.07-12.68-3.56zm55.74 10.09 20.27 5.69v-9.53l-7.54-4.64-12.72 8.48ZM82 48.98l1.72 13.77L95.43 59l1.77-5.75zm15.68 4.4-1.67 5.43 7.42-2.37.57-1.29-6.31-1.77Zm9.9 2.26 11.27 3.16 12.89-8.59-2.46-1.51zm-3.1-.35-.42.95 1.77-.57zm.21-.46 2.01.56 22.01-7.04-5.04-3.1H108.9l-4.23 9.58Zm-22.76-6.39 15.42 4.33 2.31-7.52H81.53zm47.97.05 2.29 1.41 6.18-4.12z"/></svg>