<svg xmlns="http://www.w3.org/2000/svg" data-name="&amp;apos;I&amp;apos; Pattern" viewBox="0 0 200 200"><path d="M105.16 113.39v-.65h-2.58v.65h.97v2.26h-.97v.64h2.58v-.64h-.97v-2.26zM101.29 113.39v-.65h-2.58v.65h.97v2.26h-.97v.64h2.58v-.64h-.97v-2.26zM97.42 113.39v-.65h-2.58v.65h.97v2.26h-.97v.64h2.58v-.64h-.97v-2.26zM93.55 113.39v-.65h-2.58v.65h.97v2.26h-.97v.64h2.58v-.64h-.97v-2.26zM105.16 118.23v-.65h-2.58v.65h.97v2.25h-.97v.65h2.58v-.65h-.97v-2.25zM101.29 118.23v-.65h-2.58v.65h.97v2.25h-.97v.65h2.58v-.65h-.97v-2.25zM97.42 118.23v-.65h-2.58v.65h.97v2.25h-.97v.65h2.58v-.65h-.97v-2.25zM93.55 118.23v-.65h-2.58v.65h.97v2.25h-.97v.65h2.58v-.65h-.97v-2.25zM105.16 123.06v-.64h-2.58v.64h.97v2.26h-.97v.65h2.58v-.65h-.97v-2.26zM101.29 123.06v-.64h-2.58v.64h.97v2.26h-.97v.65h2.58v-.65h-.97v-2.26zM97.42 123.06v-.64h-2.58v.64h.97v2.26h-.97v.65h2.58v-.65h-.97v-2.26zM93.55 123.06v-.64h-2.58v.64h.97v2.26h-.97v.65h2.58v-.65h-.97v-2.26zM105.16 127.9v-.64h-2.58v.64h.97v2.26h-.97v.65h2.58v-.65h-.97v-2.26zM101.29 127.9v-.64h-2.58v.64h.97v2.26h-.97v.65h2.58v-.65h-.97v-2.26zM97.42 127.9v-.64h-2.58v.64h.97v2.26h-.97v.65h2.58v-.65h-.97v-2.26zM93.55 127.9v-.64h-2.58v.64h.97v2.26h-.97v.65h2.58v-.65h-.97v-2.26zM105.16 132.74v-.64h-2.58v.64h.97V135h-.97v.65h2.58V135h-.97v-2.26zM101.29 132.74v-.64h-2.58v.64h.97V135h-.97v.65h2.58V135h-.97v-2.26zM97.42 132.74v-.64h-2.58v.64h.97V135h-.97v.65h2.58V135h-.97v-2.26zM93.55 132.74v-.64h-2.58v.64h.97V135h-.97v.65h2.58V135h-.97v-2.26zM105.16 137.58v-.64h-2.58v.64h.97v2.26h-.97v.64h2.58v-.64h-.97v-2.26zM101.29 137.58v-.64h-2.58v.64h.97v2.26h-.97v.64h2.58v-.64h-.97v-2.26zM97.42 137.58v-.64h-2.58v.64h.97v2.26h-.97v.64h2.58v-.64h-.97v-2.26zM93.55 137.58v-.64h-2.58v.64h.97v2.26h-.97v.64h2.58v-.64h-.97v-2.26zM89.68 137.58v-.64H87.1v.64h.96v2.26h-.96v.64h2.58v-.64h-.97v-2.26zM85.81 137.58v-.64h-2.58v.64h.96v2.26h-.96v.64h2.58v-.64h-.97v-2.26zM81.94 137.58v-.64h-2.59v.64h.97v2.26h-.97v.64h2.59v-.64h-.97v-2.26zM78.06 137.58v-.64h-2.58v.64h.97v2.26h-.97v.64h2.58v-.64h-.96v-2.26zM74.19 137.58v-.64h-2.58v.64h.97v2.26h-.97v.64h2.58v-.64h-.96v-2.26zM70.32 137.58v-.64h-2.58v.64h.97v2.26h-.97v.64h2.58v-.64h-.97v-2.26zM66.45 137.58v-.64h-2.58v.64h.97v2.26h-.97v.64h2.58v-.64h-.97v-2.26zM62.58 137.58v-.64H60v.64h.97v2.26H60v.64h2.58v-.64h-.97v-2.26zM105.16 142.42v-.65h-2.58v.65h.97v2.26h-.97v.64h2.58v-.64h-.97v-2.26zM101.29 142.42v-.65h-2.58v.65h.97v2.26h-.97v.64h2.58v-.64h-.97v-2.26zM97.42 142.42v-.65h-2.58v.65h.97v2.26h-.97v.64h2.58v-.64h-.97v-2.26zM93.55 142.42v-.65h-2.58v.65h.97v2.26h-.97v.64h2.58v-.64h-.97v-2.26zM89.68 142.42v-.65H87.1v.65h.96v2.26h-.96v.64h2.58v-.64h-.97v-2.26zM85.81 142.42v-.65h-2.58v.65h.96v2.26h-.96v.64h2.58v-.64h-.97v-2.26zM81.94 142.42v-.65h-2.59v.65h.97v2.26h-.97v.64h2.59v-.64h-.97v-2.26zM78.06 142.42v-.65h-2.58v.65h.97v2.26h-.97v.64h2.58v-.64h-.96v-2.26zM74.19 142.42v-.65h-2.58v.65h.97v2.26h-.97v.64h2.58v-.64h-.96v-2.26zM70.32 142.42v-.65h-2.58v.65h.97v2.26h-.97v.64h2.58v-.64h-.97v-2.26zM66.45 142.42v-.65h-2.58v.65h.97v2.26h-.97v.64h2.58v-.64h-.97v-2.26zM62.58 142.42v-.65H60v.65h.97v2.26H60v.64h2.58v-.64h-.97v-2.26zM105.16 147.26v-.65h-2.58v.65h.97v2.26h-.97v.64h2.58v-.64h-.97v-2.26zM101.29 147.26v-.65h-2.58v.65h.97v2.26h-.97v.64h2.58v-.64h-.97v-2.26zM97.42 147.26v-.65h-2.58v.65h.97v2.26h-.97v.64h2.58v-.64h-.97v-2.26zM93.55 147.26v-.65h-2.58v.65h.97v2.26h-.97v.64h2.58v-.64h-.97v-2.26zM89.68 147.26v-.65H87.1v.65h.96v2.26h-.96v.64h2.58v-.64h-.97v-2.26zM85.81 147.26v-.65h-2.58v.65h.96v2.26h-.96v.64h2.58v-.64h-.97v-2.26zM81.94 147.26v-.65h-2.59v.65h.97v2.26h-.97v.64h2.59v-.64h-.97v-2.26zM78.06 147.26v-.65h-2.58v.65h.97v2.26h-.97v.64h2.58v-.64h-.96v-2.26zM74.19 147.26v-.65h-2.58v.65h.97v2.26h-.97v.64h2.58v-.64h-.96v-2.26zM70.32 147.26v-.65h-2.58v.65h.97v2.26h-.97v.64h2.58v-.64h-.97v-2.26zM66.45 147.26v-.65h-2.58v.65h.97v2.26h-.97v.64h2.58v-.64h-.97v-2.26zM62.58 147.26v-.65H60v.65h.97v2.26H60v.64h2.58v-.64h-.97v-2.26zM105.16 152.1v-.65h-2.58v.65h.97v2.25h-.97v.65h2.58v-.65h-.97v-2.25zM101.29 152.1v-.65h-2.58v.65h.97v2.25h-.97v.65h2.58v-.65h-.97v-2.25zM97.42 152.1v-.65h-2.58v.65h.97v2.25h-.97v.65h2.58v-.65h-.97v-2.25zM93.55 152.1v-.65h-2.58v.65h.97v2.25h-.97v.65h2.58v-.65h-.97v-2.25zM89.68 152.1v-.65H87.1v.65h.96v2.25h-.96v.65h2.58v-.65h-.97v-2.25zM85.81 152.1v-.65h-2.58v.65h.96v2.25h-.96v.65h2.58v-.65h-.97v-2.25zM81.94 152.1v-.65h-2.59v.65h.97v2.25h-.97v.65h2.59v-.65h-.97v-2.25zM78.06 152.1v-.65h-2.58v.65h.97v2.25h-.97v.65h2.58v-.65h-.96v-2.25zM74.19 152.1v-.65h-2.58v.65h.97v2.25h-.97v.65h2.58v-.65h-.96v-2.25zM70.32 152.1v-.65h-2.58v.65h.97v2.25h-.97v.65h2.58v-.65h-.97v-2.25zM66.45 152.1v-.65h-2.58v.65h.97v2.25h-.97v.65h2.58v-.65h-.97v-2.25zM62.58 152.1v-.65H60v.65h.97v2.25H60v.65h2.58v-.65h-.97v-2.25zM109.03 113.39v-.65h-2.58v.65h.97v2.26h-.97v.64h2.58v-.64h-.97v-2.26zM109.03 118.23v-.65h-2.58v.65h.97v2.25h-.97v.65h2.58v-.65h-.97v-2.25zM109.03 123.06v-.64h-2.58v.64h.97v2.26h-.97v.65h2.58v-.65h-.97v-2.26zM109.03 127.9v-.64h-2.58v.64h.97v2.26h-.97v.65h2.58v-.65h-.97v-2.26zM109.03 132.74v-.64h-2.58v.64h.97V135h-.97v.65h2.58V135h-.97v-2.26zM140 137.58v-.64h-2.58v.64h.97v2.26h-.97v.64H140v-.64h-.97v-2.26zM136.13 137.58v-.64h-2.58v.64h.97v2.26h-.97v.64h2.58v-.64h-.97v-2.26zM132.26 137.58v-.64h-2.58v.64h.97v2.26h-.97v.64h2.58v-.64h-.97v-2.26zM128.39 137.58v-.64h-2.58v.64h.96v2.26h-.96v.64h2.58v-.64h-.97v-2.26zM124.52 137.58v-.64h-2.58v.64h.96v2.26h-.96v.64h2.58v-.64h-.97v-2.26zM120.65 137.58v-.64h-2.59v.64h.97v2.26h-.97v.64h2.59v-.64h-.97v-2.26zM116.77 137.58v-.64h-2.58v.64h.97v2.26h-.97v.64h2.58v-.64h-.96v-2.26zM112.9 137.58v-.64h-2.58v.64h.97v2.26h-.97v.64h2.58v-.64h-.96v-2.26zM109.03 137.58v-.64h-2.58v.64h.97v2.26h-.97v.64h2.58v-.64h-.97v-2.26zM140 142.42v-.65h-2.58v.65h.97v2.26h-.97v.64H140v-.64h-.97v-2.26zM136.13 142.42v-.65h-2.58v.65h.97v2.26h-.97v.64h2.58v-.64h-.97v-2.26zM132.26 142.42v-.65h-2.58v.65h.97v2.26h-.97v.64h2.58v-.64h-.97v-2.26zM128.39 142.42v-.65h-2.58v.65h.96v2.26h-.96v.64h2.58v-.64h-.97v-2.26zM124.52 142.42v-.65h-2.58v.65h.96v2.26h-.96v.64h2.58v-.64h-.97v-2.26zM120.65 142.42v-.65h-2.59v.65h.97v2.26h-.97v.64h2.59v-.64h-.97v-2.26zM116.77 142.42v-.65h-2.58v.65h.97v2.26h-.97v.64h2.58v-.64h-.96v-2.26zM112.9 142.42v-.65h-2.58v.65h.97v2.26h-.97v.64h2.58v-.64h-.96v-2.26zM109.03 142.42v-.65h-2.58v.65h.97v2.26h-.97v.64h2.58v-.64h-.97v-2.26zM140 147.26v-.65h-2.58v.65h.97v2.26h-.97v.64H140v-.64h-.97v-2.26zM136.13 147.26v-.65h-2.58v.65h.97v2.26h-.97v.64h2.58v-.64h-.97v-2.26zM132.26 147.26v-.65h-2.58v.65h.97v2.26h-.97v.64h2.58v-.64h-.97v-2.26zM128.39 147.26v-.65h-2.58v.65h.96v2.26h-.96v.64h2.58v-.64h-.97v-2.26zM124.52 147.26v-.65h-2.58v.65h.96v2.26h-.96v.64h2.58v-.64h-.97v-2.26zM120.65 147.26v-.65h-2.59v.65h.97v2.26h-.97v.64h2.59v-.64h-.97v-2.26zM116.77 147.26v-.65h-2.58v.65h.97v2.26h-.97v.64h2.58v-.64h-.96v-2.26zM112.9 147.26v-.65h-2.58v.65h.97v2.26h-.97v.64h2.58v-.64h-.96v-2.26zM109.03 147.26v-.65h-2.58v.65h.97v2.26h-.97v.64h2.58v-.64h-.97v-2.26zM140 152.1v-.65h-2.58v.65h.97v2.25h-.97v.65H140v-.65h-.97v-2.25zM136.13 152.1v-.65h-2.58v.65h.97v2.25h-.97v.65h2.58v-.65h-.97v-2.25zM132.26 152.1v-.65h-2.58v.65h.97v2.25h-.97v.65h2.58v-.65h-.97v-2.25zM128.39 152.1v-.65h-2.58v.65h.96v2.25h-.96v.65h2.58v-.65h-.97v-2.25zM124.52 152.1v-.65h-2.58v.65h.96v2.25h-.96v.65h2.58v-.65h-.97v-2.25zM120.65 152.1v-.65h-2.59v.65h.97v2.25h-.97v.65h2.59v-.65h-.97v-2.25zM116.77 152.1v-.65h-2.58v.65h.97v2.25h-.97v.65h2.58v-.65h-.96v-2.25zM112.9 152.1v-.65h-2.58v.65h.97v2.25h-.97v.65h2.58v-.65h-.96v-2.25zM109.03 152.1v-.65h-2.58v.65h.97v2.25h-.97v.65h2.58v-.65h-.97v-2.25zM105.16 45.65V45h-2.58v.65h.97v2.25h-.97v.65h2.58v-.65h-.97v-2.25zM101.29 45.65V45h-2.58v.65h.97v2.25h-.97v.65h2.58v-.65h-.97v-2.25zM97.42 45.65V45h-2.58v.65h.97v2.25h-.97v.65h2.58v-.65h-.97v-2.25zM93.55 45.65V45h-2.58v.65h.97v2.25h-.97v.65h2.58v-.65h-.97v-2.25zM89.68 45.65V45H87.1v.65h.96v2.25h-.96v.65h2.58v-.65h-.97v-2.25zM85.81 45.65V45h-2.58v.65h.96v2.25h-.96v.65h2.58v-.65h-.97v-2.25zM81.94 45.65V45h-2.59v.65h.97v2.25h-.97v.65h2.59v-.65h-.97v-2.25zM78.06 45.65V45h-2.58v.65h.97v2.25h-.97v.65h2.58v-.65h-.96v-2.25zM74.19 45.65V45h-2.58v.65h.97v2.25h-.97v.65h2.58v-.65h-.96v-2.25zM70.32 45.65V45h-2.58v.65h.97v2.25h-.97v.65h2.58v-.65h-.97v-2.25zM66.45 45.65V45h-2.58v.65h.97v2.25h-.97v.65h2.58v-.65h-.97v-2.25zM62.58 45.65V45H60v.65h.97v2.25H60v.65h2.58v-.65h-.97v-2.25zM105.16 50.48v-.64h-2.58v.64h.97v2.26h-.97v.65h2.58v-.65h-.97v-2.26zM101.29 50.48v-.64h-2.58v.64h.97v2.26h-.97v.65h2.58v-.65h-.97v-2.26zM97.42 50.48v-.64h-2.58v.64h.97v2.26h-.97v.65h2.58v-.65h-.97v-2.26zM93.55 50.48v-.64h-2.58v.64h.97v2.26h-.97v.65h2.58v-.65h-.97v-2.26zM89.68 50.48v-.64H87.1v.64h.96v2.26h-.96v.65h2.58v-.65h-.97v-2.26zM85.81 50.48v-.64h-2.58v.64h.96v2.26h-.96v.65h2.58v-.65h-.97v-2.26zM81.94 50.48v-.64h-2.59v.64h.97v2.26h-.97v.65h2.59v-.65h-.97v-2.26zM78.06 50.48v-.64h-2.58v.64h.97v2.26h-.97v.65h2.58v-.65h-.96v-2.26zM74.19 50.48v-.64h-2.58v.64h.97v2.26h-.97v.65h2.58v-.65h-.96v-2.26zM70.32 50.48v-.64h-2.58v.64h.97v2.26h-.97v.65h2.58v-.65h-.97v-2.26zM66.45 50.48v-.64h-2.58v.64h.97v2.26h-.97v.65h2.58v-.65h-.97v-2.26zM62.58 50.48v-.64H60v.64h.97v2.26H60v.65h2.58v-.65h-.97v-2.26zM105.16 55.32v-.64h-2.58v.64h.97v2.26h-.97v.65h2.58v-.65h-.97v-2.26zM101.29 55.32v-.64h-2.58v.64h.97v2.26h-.97v.65h2.58v-.65h-.97v-2.26zM97.42 55.32v-.64h-2.58v.64h.97v2.26h-.97v.65h2.58v-.65h-.97v-2.26zM93.55 55.32v-.64h-2.58v.64h.97v2.26h-.97v.65h2.58v-.65h-.97v-2.26zM89.68 55.32v-.64H87.1v.64h.96v2.26h-.96v.65h2.58v-.65h-.97v-2.26zM85.81 55.32v-.64h-2.58v.64h.96v2.26h-.96v.65h2.58v-.65h-.97v-2.26zM81.94 55.32v-.64h-2.59v.64h.97v2.26h-.97v.65h2.59v-.65h-.97v-2.26zM78.06 55.32v-.64h-2.58v.64h.97v2.26h-.97v.65h2.58v-.65h-.96v-2.26zM74.19 55.32v-.64h-2.58v.64h.97v2.26h-.97v.65h2.58v-.65h-.96v-2.26zM70.32 55.32v-.64h-2.58v.64h.97v2.26h-.97v.65h2.58v-.65h-.97v-2.26zM66.45 55.32v-.64h-2.58v.64h.97v2.26h-.97v.65h2.58v-.65h-.97v-2.26zM62.58 55.32v-.64H60v.64h.97v2.26H60v.65h2.58v-.65h-.97v-2.26zM105.16 60.16v-.64h-2.58v.64h.97v2.26h-.97v.64h2.58v-.64h-.97v-2.26zM101.29 60.16v-.64h-2.58v.64h.97v2.26h-.97v.64h2.58v-.64h-.97v-2.26zM97.42 60.16v-.64h-2.58v.64h.97v2.26h-.97v.64h2.58v-.64h-.97v-2.26zM93.55 60.16v-.64h-2.58v.64h.97v2.26h-.97v.64h2.58v-.64h-.97v-2.26zM89.68 60.16v-.64H87.1v.64h.96v2.26h-.96v.64h2.58v-.64h-.97v-2.26zM85.81 60.16v-.64h-2.58v.64h.96v2.26h-.96v.64h2.58v-.64h-.97v-2.26zM81.94 60.16v-.64h-2.59v.64h.97v2.26h-.97v.64h2.59v-.64h-.97v-2.26zM78.06 60.16v-.64h-2.58v.64h.97v2.26h-.97v.64h2.58v-.64h-.96v-2.26zM74.19 60.16v-.64h-2.58v.64h.97v2.26h-.97v.64h2.58v-.64h-.96v-2.26zM70.32 60.16v-.64h-2.58v.64h.97v2.26h-.97v.64h2.58v-.64h-.97v-2.26zM66.45 60.16v-.64h-2.58v.64h.97v2.26h-.97v.64h2.58v-.64h-.97v-2.26zM62.58 60.16v-.64H60v.64h.97v2.26H60v.64h2.58v-.64h-.97v-2.26zM105.16 65v-.65h-2.58V65h.97v2.26h-.97v.64h2.58v-.64h-.97V65zM101.29 65v-.65h-2.58V65h.97v2.26h-.97v.64h2.58v-.64h-.97V65zM97.42 65v-.65h-2.58V65h.97v2.26h-.97v.64h2.58v-.64h-.97V65zM93.55 65v-.65h-2.58V65h.97v2.26h-.97v.64h2.58v-.64h-.97V65zM105.16 69.84v-.65h-2.58v.65h.97v2.26h-.97v.64h2.58v-.64h-.97v-2.26zM101.29 69.84v-.65h-2.58v.65h.97v2.26h-.97v.64h2.58v-.64h-.97v-2.26zM97.42 69.84v-.65h-2.58v.65h.97v2.26h-.97v.64h2.58v-.64h-.97v-2.26zM93.55 69.84v-.65h-2.58v.65h.97v2.26h-.97v.64h2.58v-.64h-.97v-2.26zM105.16 74.68v-.65h-2.58v.65h.97v2.26h-.97v.64h2.58v-.64h-.97v-2.26zM101.29 74.68v-.65h-2.58v.65h.97v2.26h-.97v.64h2.58v-.64h-.97v-2.26zM97.42 74.68v-.65h-2.58v.65h.97v2.26h-.97v.64h2.58v-.64h-.97v-2.26zM93.55 74.68v-.65h-2.58v.65h.97v2.26h-.97v.64h2.58v-.64h-.97v-2.26zM105.16 79.52v-.65h-2.58v.65h.97v2.25h-.97v.65h2.58v-.65h-.97v-2.25zM101.29 79.52v-.65h-2.58v.65h.97v2.25h-.97v.65h2.58v-.65h-.97v-2.25zM97.42 79.52v-.65h-2.58v.65h.97v2.25h-.97v.65h2.58v-.65h-.97v-2.25zM93.55 79.52v-.65h-2.58v.65h.97v2.25h-.97v.65h2.58v-.65h-.97v-2.25zM105.16 84.35v-.64h-2.58v.64h.97v2.26h-.97v.65h2.58v-.65h-.97v-2.26zM101.29 84.35v-.64h-2.58v.64h.97v2.26h-.97v.65h2.58v-.65h-.97v-2.26zM97.42 84.35v-.64h-2.58v.64h.97v2.26h-.97v.65h2.58v-.65h-.97v-2.26zM93.55 84.35v-.64h-2.58v.64h.97v2.26h-.97v.65h2.58v-.65h-.97v-2.26zM105.16 89.19v-.64h-2.58v.64h.97v2.26h-.97v.65h2.58v-.65h-.97v-2.26zM101.29 89.19v-.64h-2.58v.64h.97v2.26h-.97v.65h2.58v-.65h-.97v-2.26zM97.42 89.19v-.64h-2.58v.64h.97v2.26h-.97v.65h2.58v-.65h-.97v-2.26zM93.55 89.19v-.64h-2.58v.64h.97v2.26h-.97v.65h2.58v-.65h-.97v-2.26zM105.16 94.03v-.64h-2.58v.64h.97v2.26h-.97v.65h2.58v-.65h-.97v-2.26zM101.29 94.03v-.64h-2.58v.64h.97v2.26h-.97v.65h2.58v-.65h-.97v-2.26zM97.42 94.03v-.64h-2.58v.64h.97v2.26h-.97v.65h2.58v-.65h-.97v-2.26zM93.55 94.03v-.64h-2.58v.64h.97v2.26h-.97v.65h2.58v-.65h-.97v-2.26zM105.16 98.87v-.64h-2.58v.64h.97v2.26h-.97v.64h2.58v-.64h-.97v-2.26zM101.29 98.87v-.64h-2.58v.64h.97v2.26h-.97v.64h2.58v-.64h-.97v-2.26zM97.42 98.87v-.64h-2.58v.64h.97v2.26h-.97v.64h2.58v-.64h-.97v-2.26zM93.55 98.87v-.64h-2.58v.64h.97v2.26h-.97v.64h2.58v-.64h-.97v-2.26zM105.16 103.71v-.65h-2.58v.65h.97v2.26h-.97v.64h2.58v-.64h-.97v-2.26zM101.29 103.71v-.65h-2.58v.65h.97v2.26h-.97v.64h2.58v-.64h-.97v-2.26zM97.42 103.71v-.65h-2.58v.65h.97v2.26h-.97v.64h2.58v-.64h-.97v-2.26zM93.55 103.71v-.65h-2.58v.65h.97v2.26h-.97v.64h2.58v-.64h-.97v-2.26zM105.16 108.55v-.65h-2.58v.65h.97v2.26h-.97v.64h2.58v-.64h-.97v-2.26zM101.29 108.55v-.65h-2.58v.65h.97v2.26h-.97v.64h2.58v-.64h-.97v-2.26zM97.42 108.55v-.65h-2.58v.65h.97v2.26h-.97v.64h2.58v-.64h-.97v-2.26zM93.55 108.55v-.65h-2.58v.65h.97v2.26h-.97v.64h2.58v-.64h-.97v-2.26zM140 45.65V45h-2.58v.65h.97v2.25h-.97v.65H140v-.65h-.97v-2.25zM136.13 45.65V45h-2.58v.65h.97v2.25h-.97v.65h2.58v-.65h-.97v-2.25zM132.26 45.65V45h-2.58v.65h.97v2.25h-.97v.65h2.58v-.65h-.97v-2.25zM128.39 45.65V45h-2.58v.65h.96v2.25h-.96v.65h2.58v-.65h-.97v-2.25zM124.52 45.65V45h-2.58v.65h.96v2.25h-.96v.65h2.58v-.65h-.97v-2.25zM120.65 45.65V45h-2.59v.65h.97v2.25h-.97v.65h2.59v-.65h-.97v-2.25zM116.77 45.65V45h-2.58v.65h.97v2.25h-.97v.65h2.58v-.65h-.96v-2.25zM112.9 45.65V45h-2.58v.65h.97v2.25h-.97v.65h2.58v-.65h-.96v-2.25zM109.03 45.65V45h-2.58v.65h.97v2.25h-.97v.65h2.58v-.65h-.97v-2.25zM140 50.48v-.64h-2.58v.64h.97v2.26h-.97v.65H140v-.65h-.97v-2.26zM136.13 50.48v-.64h-2.58v.64h.97v2.26h-.97v.65h2.58v-.65h-.97v-2.26zM132.26 50.48v-.64h-2.58v.64h.97v2.26h-.97v.65h2.58v-.65h-.97v-2.26zM128.39 50.48v-.64h-2.58v.64h.96v2.26h-.96v.65h2.58v-.65h-.97v-2.26zM124.52 50.48v-.64h-2.58v.64h.96v2.26h-.96v.65h2.58v-.65h-.97v-2.26zM120.65 50.48v-.64h-2.59v.64h.97v2.26h-.97v.65h2.59v-.65h-.97v-2.26zM116.77 50.48v-.64h-2.58v.64h.97v2.26h-.97v.65h2.58v-.65h-.96v-2.26zM112.9 50.48v-.64h-2.58v.64h.97v2.26h-.97v.65h2.58v-.65h-.96v-2.26zM109.03 50.48v-.64h-2.58v.64h.97v2.26h-.97v.65h2.58v-.65h-.97v-2.26zM140 55.32v-.64h-2.58v.64h.97v2.26h-.97v.65H140v-.65h-.97v-2.26zM136.13 55.32v-.64h-2.58v.64h.97v2.26h-.97v.65h2.58v-.65h-.97v-2.26zM132.26 55.32v-.64h-2.58v.64h.97v2.26h-.97v.65h2.58v-.65h-.97v-2.26zM128.39 55.32v-.64h-2.58v.64h.96v2.26h-.96v.65h2.58v-.65h-.97v-2.26zM124.52 55.32v-.64h-2.58v.64h.96v2.26h-.96v.65h2.58v-.65h-.97v-2.26zM120.65 55.32v-.64h-2.59v.64h.97v2.26h-.97v.65h2.59v-.65h-.97v-2.26zM116.77 55.32v-.64h-2.58v.64h.97v2.26h-.97v.65h2.58v-.65h-.96v-2.26zM112.9 55.32v-.64h-2.58v.64h.97v2.26h-.97v.65h2.58v-.65h-.96v-2.26zM109.03 55.32v-.64h-2.58v.64h.97v2.26h-.97v.65h2.58v-.65h-.97v-2.26zM140 60.16v-.64h-2.58v.64h.97v2.26h-.97v.64H140v-.64h-.97v-2.26zM136.13 60.16v-.64h-2.58v.64h.97v2.26h-.97v.64h2.58v-.64h-.97v-2.26zM132.26 60.16v-.64h-2.58v.64h.97v2.26h-.97v.64h2.58v-.64h-.97v-2.26zM128.39 60.16v-.64h-2.58v.64h.96v2.26h-.96v.64h2.58v-.64h-.97v-2.26zM124.52 60.16v-.64h-2.58v.64h.96v2.26h-.96v.64h2.58v-.64h-.97v-2.26zM120.65 60.16v-.64h-2.59v.64h.97v2.26h-.97v.64h2.59v-.64h-.97v-2.26zM116.77 60.16v-.64h-2.58v.64h.97v2.26h-.97v.64h2.58v-.64h-.96v-2.26zM112.9 60.16v-.64h-2.58v.64h.97v2.26h-.97v.64h2.58v-.64h-.96v-2.26zM109.03 60.16v-.64h-2.58v.64h.97v2.26h-.97v.64h2.58v-.64h-.97v-2.26zM109.03 65v-.65h-2.58V65h.97v2.26h-.97v.64h2.58v-.64h-.97V65zM109.03 69.84v-.65h-2.58v.65h.97v2.26h-.97v.64h2.58v-.64h-.97v-2.26zM109.03 74.68v-.65h-2.58v.65h.97v2.26h-.97v.64h2.58v-.64h-.97v-2.26zM109.03 79.52v-.65h-2.58v.65h.97v2.25h-.97v.65h2.58v-.65h-.97v-2.25zM109.03 84.35v-.64h-2.58v.64h.97v2.26h-.97v.65h2.58v-.65h-.97v-2.26zM109.03 89.19v-.64h-2.58v.64h.97v2.26h-.97v.65h2.58v-.65h-.97v-2.26zM109.03 94.03v-.64h-2.58v.64h.97v2.26h-.97v.65h2.58v-.65h-.97v-2.26zM109.03 98.87v-.64h-2.58v.64h.97v2.26h-.97v.64h2.58v-.64h-.97v-2.26zM109.03 103.71v-.65h-2.58v.65h.97v2.26h-.97v.64h2.58v-.64h-.97v-2.26zM109.03 108.55v-.65h-2.58v.65h.97v2.26h-.97v.64h2.58v-.64h-.97v-2.26z"/></svg>