<svg xmlns="http://www.w3.org/2000/svg" data-name="&amp;apos;I&amp;apos; Dots" viewBox="0 0 200 200"><path d="M59.49 37.86c.1 0 .18-.08.18-.18s-.08-.18-.18-.18-.18.08-.18.18.08.18.18.18m6.24.01c.1 0 .18-.08.18-.18s-.08-.18-.18-.18-.18.08-.18.18.08.18.18.18m3.11 0c.1 0 .18-.08.18-.18s-.08-.18-.18-.18-.18.08-.18.18.08.18.18.18m3.12 0c.1 0 .18-.08.18-.18s-.08-.18-.18-.18-.18.08-.18.18.08.18.18.18m6.23 0c.1 0 .18-.08.18-.18s-.08-.18-.18-.18-.18.08-.18.18.08.18.18.18m3.12 0c.1 0 .18-.08.18-.18s-.08-.18-.18-.18-.18.08-.18.18.08.18.18.18m3.11 0c.1 0 .18-.08.18-.18s-.08-.18-.18-.18-.18.08-.18.18.08.18.18.18m3.12 0c.1 0 .18-.08.18-.18s-.08-.18-.18-.18-.18.08-.18.18.08.18.18.18m3.11 0c.1 0 .18-.08.18-.18s-.08-.18-.18-.18-.18.08-.18.18.08.18.18.18m3.12 0c.1 0 .18-.08.18-.18s-.08-.18-.18-.18-.18.08-.18.18.08.18.18.18m6.23 0c.1 0 .18-.08.18-.18s-.08-.18-.18-.18-.18.08-.18.18.08.18.18.18m3.12 0c.1 0 .18-.08.18-.18s-.08-.18-.18-.18-.18.08-.18.18.08.18.18.18m3.11 0c.1 0 .18-.08.18-.18s-.08-.18-.18-.18-.18.08-.18.18.08.18.18.18m3.12 0c.1 0 .18-.08.18-.18s-.08-.18-.18-.18-.18.08-.18.18.08.18.18.18m3.12 0c.1 0 .18-.08.18-.18s-.08-.18-.18-.18-.18.08-.18.18.08.18.18.18m3.11 0c.1 0 .18-.08.18-.18s-.08-.18-.18-.18-.18.08-.18.18.08.18.18.18m3.12 0c.1 0 .18-.08.18-.18s-.08-.18-.18-.18-.18.08-.18.18.08.18.18.18m6.23 0c.1 0 .18-.08.18-.18s-.08-.18-.18-.18-.18.08-.18.18.08.18.18.18m3.12 0c.1 0 .18-.08.18-.18s-.08-.18-.18-.18-.18.08-.18.18.08.18.18.18m3.11 0c.1 0 .18-.08.18-.18s-.08-.18-.18-.18-.18.08-.18.18.08.18.18.18m3.12 0c.1 0 .18-.08.18-.18s-.08-.18-.18-.18-.18.08-.18.18.08.18.18.18m3.11 0c.1 0 .18-.08.18-.18s-.08-.18-.18-.18-.18.08-.18.18.08.18.18.18m3.12-.01c.1 0 .18-.08.18-.18s-.08-.18-.18-.18-.18.08-.18.18.08.18.18.18m-84.13 3.13c.11 0 .19-.09.19-.19s-.09-.19-.19-.19-.19.09-.19.19.09.19.19.19m3.11.04c.13 0 .24-.11.24-.24s-.11-.24-.24-.24-.24.11-.24.24.11.24.24.24m3.12.05c.15 0 .28-.12.28-.28s-.12-.28-.28-.28-.28.12-.28.28.12.28.28.28"/><circle cx="68.84" cy="40.8" r=".3"/><circle cx="71.96" cy="40.8" r=".3"/><circle cx="78.19" cy="40.8" r=".3"/><circle cx="84.42" cy="40.8" r=".3"/><circle cx="87.54" cy="40.8" r=".3"/><path d="M90.65 41.1c.16 0 .3-.13.3-.3s-.13-.3-.3-.3-.3.13-.3.3.13.3.3.3"/><circle cx="93.77" cy="40.8" r=".3"/><path d="M96.89 41.1c.16 0 .3-.13.3-.3s-.13-.3-.3-.3-.3.13-.3.3.13.3.3.3"/><circle cx="100" cy="40.8" r=".3"/><path d="M106.23 41.1c.16 0 .3-.13.3-.3s-.13-.3-.3-.3-.3.13-.3.3.13.3.3.3"/><circle cx="109.35" cy="40.8" r=".3"/><circle cx="115.58" cy="40.8" r=".3"/><path d="M118.7 41.1c.16 0 .3-.13.3-.3s-.13-.3-.3-.3-.3.13-.3.3.13.3.3.3"/><circle cx="121.81" cy="40.8" r=".3"/><path d="M124.93 41.1c.16 0 .3-.13.3-.3s-.13-.3-.3-.3-.3.13-.3.3.13.3.3.3m3.12 0c.16 0 .3-.13.3-.3s-.13-.3-.3-.3-.3.13-.3.3.13.3.3.3"/><circle cx="131.16" cy="40.8" r=".3"/><path d="M134.28 41.09a.29.29 0 1 0 0-.58.29.29 0 0 0 0 .58m3.11-.01c.15 0 .28-.12.28-.28s-.12-.28-.28-.28-.28.12-.28.28.12.28.28.28m3.12-.06c.12 0 .23-.1.23-.23s-.1-.23-.23-.23-.23.1-.23.23.1.23.23.23m3.12-.03c.1 0 .19-.08.19-.19s-.08-.19-.19-.19-.19.08-.19.19.08.19.19.19m-90.37 3.1c.1 0 .18-.08.18-.18s-.08-.18-.18-.18-.18.08-.18.18.08.18.18.18m3.12.07c.14 0 .25-.11.25-.25s-.11-.25-.25-.25-.25.11-.25.25.11.25.25.25m3.11.2c.25 0 .44-.2.44-.44s-.2-.44-.44-.44-.44.2-.44.44.2.44.44.44m3.12.19c.35 0 .64-.28.64-.64s-.28-.64-.64-.64-.64.28-.64.64.28.64.64.64m3.12.07c.39 0 .7-.31.7-.7s-.31-.7-.7-.7-.7.31-.7.7.31.7.7.7m3.11.01c.39 0 .71-.32.71-.71s-.32-.71-.71-.71-.71.32-.71.71.32.71.71.71m6.23 0c.39 0 .71-.32.71-.71s-.32-.71-.71-.71-.71.32-.71.71.32.71.71.71m6.24 0c.39 0 .71-.32.71-.71s-.32-.71-.71-.71-.71.32-.71.71.32.71.71.71m3.11 0c.39 0 .71-.32.71-.71s-.32-.71-.71-.71-.71.32-.71.71.32.71.71.71m3.12 0c.39 0 .71-.32.71-.71s-.32-.71-.71-.71-.71.32-.71.71.32.71.71.71m3.11 0c.39 0 .71-.32.71-.71s-.32-.71-.71-.71-.71.32-.71.71.32.71.71.71m3.12 0c.39 0 .71-.32.71-.71s-.32-.71-.71-.71-.71.32-.71.71.32.71.71.71m6.23 0c.39 0 .71-.32.71-.71s-.32-.71-.71-.71-.71.32-.71.71.32.71.71.71m3.12 0c.39 0 .71-.32.71-.71s-.32-.71-.71-.71-.71.32-.71.71.32.71.71.71m3.11 0c.39 0 .71-.32.71-.71s-.32-.71-.71-.71-.71.32-.71.71.32.71.71.71m6.24 0c.39 0 .71-.32.71-.71s-.32-.71-.71-.71-.71.32-.71.71.32.71.71.71m3.11 0c.39 0 .71-.32.71-.71s-.32-.71-.71-.71-.71.32-.71.71.32.71.71.71m6.23 0c.39 0 .71-.32.71-.71s-.32-.71-.71-.71-.71.32-.71.71.32.71.71.71m3.12 0c.39 0 .71-.32.71-.71s-.32-.71-.71-.71-.71.32-.71.71.32.71.71.71m6.23 0c.39 0 .71-.32.71-.71s-.32-.71-.71-.71-.71.32-.71.71.32.71.71.71m6.23-.09c.35 0 .63-.28.63-.63s-.28-.63-.63-.63-.63.28-.63.63.28.63.63.63m3.12-.22c.22 0 .41-.18.41-.41s-.18-.41-.41-.41-.41.18-.41.41.18.41.41.41m3.12-.17c.13 0 .24-.11.24-.24s-.11-.24-.24-.24-.24.11-.24.24.11.24.24.24m3.11-.06c.1 0 .18-.08.18-.18s-.08-.18-.18-.18-.18.08-.18.18.08.18.18.18m-93.48 2.75c-.1 0-.19.08-.19.19s.08.19.19.19.19-.08.19-.19-.08-.19-.19-.19m3.12.52c.18 0 .33-.15.33-.33s-.15-.33-.33-.33-.33.15-.33.33.15.33.33.33m3.11.34a.67.67 0 1 0 0-1.34.67.67 0 0 0 0 1.34m3.12.39c.59 0 1.06-.48 1.06-1.06s-.48-1.06-1.06-1.06-1.06.48-1.06 1.06.48 1.06 1.06 1.06"/><circle cx="65.73" cy="47.03" r="1.18"/><path d="M68.84 48.22c.66 0 1.19-.53 1.19-1.19s-.53-1.19-1.19-1.19-1.19.53-1.19 1.19.53 1.19 1.19 1.19m3.12 0c.66 0 1.19-.53 1.19-1.19s-.53-1.19-1.19-1.19-1.19.53-1.19 1.19.53 1.19 1.19 1.19m3.11 0c.66 0 1.19-.53 1.19-1.19s-.53-1.19-1.19-1.19-1.19.53-1.19 1.19.53 1.19 1.19 1.19m3.12 0c.66 0 1.19-.53 1.19-1.19s-.53-1.19-1.19-1.19-1.19.53-1.19 1.19.53 1.19 1.19 1.19m3.12 0c.66 0 1.19-.53 1.19-1.19s-.53-1.19-1.19-1.19-1.19.53-1.19 1.19.53 1.19 1.19 1.19m3.11 0c.66 0 1.19-.53 1.19-1.19s-.53-1.19-1.19-1.19-1.19.53-1.19 1.19.53 1.19 1.19 1.19m3.12 0c.66 0 1.19-.53 1.19-1.19s-.53-1.19-1.19-1.19-1.19.53-1.19 1.19.53 1.19 1.19 1.19m3.11 0c.66 0 1.19-.53 1.19-1.19s-.53-1.19-1.19-1.19-1.19.53-1.19 1.19.53 1.19 1.19 1.19m3.12 0c.66 0 1.19-.53 1.19-1.19s-.53-1.19-1.19-1.19-1.19.53-1.19 1.19.53 1.19 1.19 1.19m3.12 0c.66 0 1.19-.53 1.19-1.19s-.53-1.19-1.19-1.19-1.19.53-1.19 1.19.53 1.19 1.19 1.19m3.11 0c.66 0 1.19-.53 1.19-1.19s-.53-1.19-1.19-1.19-1.19.53-1.19 1.19.53 1.19 1.19 1.19m6.23 0c.66 0 1.19-.53 1.19-1.19s-.53-1.19-1.19-1.19-1.19.53-1.19 1.19.53 1.19 1.19 1.19m3.12 0c.66 0 1.19-.53 1.19-1.19s-.53-1.19-1.19-1.19-1.19.53-1.19 1.19.53 1.19 1.19 1.19m3.12 0c.66 0 1.19-.53 1.19-1.19s-.53-1.19-1.19-1.19-1.19.53-1.19 1.19.53 1.19 1.19 1.19m3.11 0c.66 0 1.19-.53 1.19-1.19s-.53-1.19-1.19-1.19-1.19.53-1.19 1.19.53 1.19 1.19 1.19m6.23 0c.66 0 1.19-.53 1.19-1.19s-.53-1.19-1.19-1.19-1.19.53-1.19 1.19.53 1.19 1.19 1.19m3.12 0c.66 0 1.19-.53 1.19-1.19s-.53-1.19-1.19-1.19-1.19.53-1.19 1.19.53 1.19 1.19 1.19m3.12 0c.66 0 1.19-.53 1.19-1.19s-.53-1.19-1.19-1.19-1.19.53-1.19 1.19.53 1.19 1.19 1.19m3.11 0c.66 0 1.19-.53 1.19-1.19s-.53-1.19-1.19-1.19-1.19.53-1.19 1.19.53 1.19 1.19 1.19m3.12-.01c.65 0 1.18-.53 1.18-1.18s-.53-1.18-1.18-1.18-1.18.53-1.18 1.18.53 1.18 1.18 1.18m3.11-.15c.57 0 1.03-.46 1.03-1.03s-.46-1.03-1.03-1.03-1.03.46-1.03 1.03.46 1.03 1.03 1.03m3.12-.4c.35 0 .63-.28.63-.63s-.28-.63-.63-.63-.63.28-.63.63.28.63.63.63M56.38 50.5c.2 0 .35-.16.35-.35s-.16-.35-.35-.35-.35.16-.35.35.16.35.35.35m3.11.42a.77.77 0 1 0 0-1.54.77.77 0 0 0 0 1.54m3.12.44c.67 0 1.22-.54 1.22-1.22s-.54-1.22-1.22-1.22-1.22.54-1.22 1.22.54 1.22 1.22 1.22m3.12.15c.75 0 1.36-.61 1.36-1.36s-.61-1.36-1.36-1.36-1.36.61-1.36 1.36.61 1.36 1.36 1.36m3.11.01c.76 0 1.37-.62 1.37-1.37s-.62-1.37-1.37-1.37-1.37.62-1.37 1.37.62 1.37 1.37 1.37m6.23 0c.76 0 1.37-.62 1.37-1.37s-.62-1.37-1.37-1.37-1.37.62-1.37 1.37.62 1.37 1.37 1.37m3.12 0c.76 0 1.37-.62 1.37-1.37s-.62-1.37-1.37-1.37-1.37.62-1.37 1.37.62 1.37 1.37 1.37m6.23 0c.76 0 1.37-.62 1.37-1.37s-.62-1.37-1.37-1.37-1.37.62-1.37 1.37.62 1.37 1.37 1.37m3.12 0c.76 0 1.37-.62 1.37-1.37s-.62-1.37-1.37-1.37-1.37.62-1.37 1.37.62 1.37 1.37 1.37m3.11 0c.76 0 1.37-.62 1.37-1.37s-.62-1.37-1.37-1.37-1.37.62-1.37 1.37.62 1.37 1.37 1.37m3.12 0c.76 0 1.37-.62 1.37-1.37s-.62-1.37-1.37-1.37-1.37.62-1.37 1.37.62 1.37 1.37 1.37m3.12 0c.76 0 1.37-.62 1.37-1.37s-.62-1.37-1.37-1.37-1.37.62-1.37 1.37.62 1.37 1.37 1.37m3.11 0c.76 0 1.37-.62 1.37-1.37s-.62-1.37-1.37-1.37-1.37.62-1.37 1.37.62 1.37 1.37 1.37m3.12 0c.76 0 1.37-.62 1.37-1.37s-.62-1.37-1.37-1.37-1.37.62-1.37 1.37.62 1.37 1.37 1.37m3.11 0c.76 0 1.37-.62 1.37-1.37s-.62-1.37-1.37-1.37-1.37.62-1.37 1.37.62 1.37 1.37 1.37m3.12 0c.76 0 1.37-.62 1.37-1.37s-.62-1.37-1.37-1.37-1.37.62-1.37 1.37.62 1.37 1.37 1.37m3.12 0c.76 0 1.37-.62 1.37-1.37s-.62-1.37-1.37-1.37-1.37.62-1.37 1.37.62 1.37 1.37 1.37m3.11 0c.76 0 1.37-.62 1.37-1.37s-.62-1.37-1.37-1.37-1.37.62-1.37 1.37.62 1.37 1.37 1.37m3.12 0c.76 0 1.37-.62 1.37-1.37s-.62-1.37-1.37-1.37-1.37.62-1.37 1.37.62 1.37 1.37 1.37m3.11 0c.76 0 1.37-.62 1.37-1.37s-.62-1.37-1.37-1.37-1.37.62-1.37 1.37.62 1.37 1.37 1.37m3.12 0c.76 0 1.37-.62 1.37-1.37s-.62-1.37-1.37-1.37-1.37.62-1.37 1.37.62 1.37 1.37 1.37m3.12 0c.76 0 1.37-.62 1.37-1.37s-.62-1.37-1.37-1.37-1.37.62-1.37 1.37.62 1.37 1.37 1.37m3.11 0c.76 0 1.37-.62 1.37-1.37s-.62-1.37-1.37-1.37-1.37.62-1.37 1.37.62 1.37 1.37 1.37m3.12-.02c.75 0 1.36-.61 1.36-1.36s-.61-1.36-1.36-1.36-1.36.61-1.36 1.36.61 1.36 1.36 1.36"/><circle cx="137.39" cy="50.15" r="1.18"/><path d="M140.51 50.85c.39 0 .7-.31.7-.7s-.31-.7-.7-.7-.7.31-.7.7.31.7.7.7m3.12-1.02c-.18 0-.32.14-.32.32s.14.32.32.32.32-.14.32-.32-.14-.32-.32-.32m3.11.13c-.1 0-.18.08-.18.18s.08.18.18.18.18-.08.18-.18-.08-.18-.18-.18m-93.48 3.12c-.1 0-.19.08-.19.19s.08.19.19.19.19-.08.19-.19-.08-.19-.19-.19m6.23-.59c-.43 0-.77.35-.77.77s.35.77.77.77.77-.35.77-.77-.35-.77-.77-.77"/><circle cx="62.61" cy="53.26" r="1.23" transform="rotate(-13.28 62.626 53.261)"/><circle cx="65.73" cy="53.26" r="1.37"/><circle cx="68.84" cy="53.26" r="1.39"/><circle cx="71.96" cy="53.26" r="1.39"/><path d="M75.07 51.87c-.77 0-1.39.62-1.39 1.39s.62 1.39 1.39 1.39 1.39-.62 1.39-1.39-.62-1.39-1.39-1.39"/><circle cx="78.19" cy="53.26" r="1.39"/><path d="M84.42 51.87c-.77 0-1.39.62-1.39 1.39s.62 1.39 1.39 1.39 1.39-.62 1.39-1.39-.62-1.39-1.39-1.39m3.12 0c-.77 0-1.39.62-1.39 1.39s.62 1.39 1.39 1.39 1.39-.62 1.39-1.39-.62-1.39-1.39-1.39m3.11 0c-.77 0-1.39.62-1.39 1.39s.62 1.39 1.39 1.39 1.39-.62 1.39-1.39-.62-1.39-1.39-1.39"/><circle cx="93.77" cy="53.26" r="1.39"/><path d="M96.89 51.87c-.77 0-1.39.62-1.39 1.39s.62 1.39 1.39 1.39 1.39-.62 1.39-1.39-.62-1.39-1.39-1.39m3.11 0c-.77 0-1.39.62-1.39 1.39s.62 1.39 1.39 1.39 1.39-.62 1.39-1.39-.62-1.39-1.39-1.39"/><circle cx="106.23" cy="53.26" r="1.39"/><circle cx="109.35" cy="53.26" r="1.39"/><path d="M115.58 51.87c-.77 0-1.39.62-1.39 1.39s.62 1.39 1.39 1.39 1.39-.62 1.39-1.39-.62-1.39-1.39-1.39"/><circle cx="118.7" cy="53.26" r="1.39"/><circle cx="121.81" cy="53.26" r="1.39"/><circle cx="124.93" cy="53.26" r="1.39"/><path d="M128.05 51.87c-.77 0-1.39.62-1.39 1.39s.62 1.39 1.39 1.39 1.39-.62 1.39-1.39-.62-1.39-1.39-1.39"/><circle cx="134.28" cy="53.26" r="1.37"/><path d="M137.39 52.07c-.66 0-1.19.53-1.19 1.19s.53 1.19 1.19 1.19 1.19-.53 1.19-1.19-.53-1.19-1.19-1.19m3.12.48c-.39 0-.71.32-.71.71s.32.71.71.71.71-.32.71-.71-.32-.71-.71-.71m3.12.39c-.18 0-.32.14-.32.32s.14.32.32.32.32-.14.32-.32-.14-.32-.32-.32m3.11.14c-.1 0-.18.08-.18.18s.08.18.18.18.18-.08.18-.18-.08-.18-.18-.18m-93.48 3.11c-.1 0-.19.08-.19.19s.08.19.19.19.19-.08.19-.19-.08-.19-.19-.19m3.12-.17c-.2 0-.36.16-.36.36s.16.36.36.36.36-.16.36-.36-.16-.36-.36-.36"/><circle cx="62.61" cy="56.38" r="1.23"/><circle cx="65.73" cy="56.38" r="1.37"/><circle cx="71.96" cy="56.38" r="1.39" transform="rotate(-13.28 71.969 56.395)"/><circle cx="78.19" cy="56.38" r="1.39"/><circle cx="81.31" cy="56.38" r="1.39"/><path d="M84.42 54.99c-.77 0-1.39.62-1.39 1.39s.62 1.39 1.39 1.39 1.39-.62 1.39-1.39-.62-1.39-1.39-1.39m3.12 0c-.77 0-1.39.62-1.39 1.39s.62 1.39 1.39 1.39 1.39-.62 1.39-1.39-.62-1.39-1.39-1.39m3.11 0c-.77 0-1.39.62-1.39 1.39s.62 1.39 1.39 1.39 1.39-.62 1.39-1.39-.62-1.39-1.39-1.39"/><circle cx="93.77" cy="56.38" r="1.39"/><path d="M96.89 54.99c-.77 0-1.39.62-1.39 1.39s.62 1.39 1.39 1.39 1.39-.62 1.39-1.39-.62-1.39-1.39-1.39m3.11 0c-.77 0-1.39.62-1.39 1.39s.62 1.39 1.39 1.39 1.39-.62 1.39-1.39-.62-1.39-1.39-1.39m3.12 0c-.77 0-1.39.62-1.39 1.39s.62 1.39 1.39 1.39 1.39-.62 1.39-1.39-.62-1.39-1.39-1.39"/><circle cx="106.23" cy="56.38" r="1.39"/><circle cx="109.35" cy="56.38" r="1.39"/><path d="M112.47 54.99c-.77 0-1.39.62-1.39 1.39s.62 1.39 1.39 1.39 1.39-.62 1.39-1.39-.62-1.39-1.39-1.39m3.11 0c-.77 0-1.39.62-1.39 1.39s.62 1.39 1.39 1.39 1.39-.62 1.39-1.39-.62-1.39-1.39-1.39"/><circle cx="118.7" cy="56.38" r="1.39"/><circle cx="121.81" cy="56.38" r="1.39"/><circle cx="124.93" cy="56.38" r="1.39"/><path d="M128.05 54.99c-.77 0-1.39.62-1.39 1.39s.62 1.39 1.39 1.39 1.39-.62 1.39-1.39-.62-1.39-1.39-1.39m3.11 0c-.77 0-1.39.62-1.39 1.39s.62 1.39 1.39 1.39 1.39-.62 1.39-1.39-.62-1.39-1.39-1.39m3.12.02c-.76 0-1.37.61-1.37 1.37s.61 1.37 1.37 1.37 1.37-.61 1.37-1.37-.61-1.37-1.37-1.37m3.11.18c-.66 0-1.19.53-1.19 1.19s.53 1.19 1.19 1.19 1.19-.53 1.19-1.19-.53-1.19-1.19-1.19m6.24.87c-.18 0-.32.14-.32.32s.14.32.32.32.32-.14.32-.32-.14-.32-.32-.32m-90.37 3.25c-.1 0-.19.08-.19.19s.08.19.19.19.19-.08.19-.19-.08-.19-.19-.19m3.12-.16c-.19 0-.35.16-.35.35s.16.35.35.35.35-.16.35-.35-.16-.35-.35-.35m3.11-.41a.749.749 0 1 0-.002 1.498.749.749 0 0 0 .002-1.498"/><circle cx="62.61" cy="59.49" r="1.2"/><circle cx="65.73" cy="59.49" r="1.34"/><circle cx="68.84" cy="59.49" r="1.35" transform="rotate(-13.28 68.863 59.516)"/><circle cx="71.96" cy="59.49" r="1.35"/><path d="M75.07 58.14c-.75 0-1.35.6-1.35 1.35s.6 1.35 1.35 1.35 1.35-.6 1.35-1.35-.6-1.35-1.35-1.35m3.12 0c-.75 0-1.35.6-1.35 1.35s.6 1.35 1.35 1.35 1.35-.6 1.35-1.35-.6-1.35-1.35-1.35m3.12 0c-.75 0-1.35.6-1.35 1.35s.6 1.35 1.35 1.35 1.35-.6 1.35-1.35-.6-1.35-1.35-1.35m3.11 0c-.75 0-1.35.6-1.35 1.35s.6 1.35 1.35 1.35 1.35-.6 1.35-1.35-.6-1.35-1.35-1.35m3.12-.01c-.75 0-1.36.61-1.36 1.36s.61 1.36 1.36 1.36 1.36-.61 1.36-1.36-.61-1.36-1.36-1.36"/><circle cx="90.65" cy="59.49" r="1.37"/><path d="M96.89 58.11c-.77 0-1.39.62-1.39 1.39s.62 1.39 1.39 1.39 1.39-.62 1.39-1.39-.62-1.39-1.39-1.39m3.11 0c-.77 0-1.39.62-1.39 1.39s.62 1.39 1.39 1.39 1.39-.62 1.39-1.39-.62-1.39-1.39-1.39m3.12 0c-.77 0-1.39.62-1.39 1.39s.62 1.39 1.39 1.39 1.39-.62 1.39-1.39-.62-1.39-1.39-1.39"/><circle cx="109.35" cy="59.49" r="1.37"/><path d="M112.47 58.13c-.75 0-1.36.61-1.36 1.36s.61 1.36 1.36 1.36 1.36-.61 1.36-1.36-.61-1.36-1.36-1.36"/><circle cx="115.58" cy="59.49" r="1.35"/><path d="M118.7 58.14c-.75 0-1.35.6-1.35 1.35s.6 1.35 1.35 1.35 1.35-.6 1.35-1.35-.6-1.35-1.35-1.35m3.11 0c-.75 0-1.35.6-1.35 1.35s.6 1.35 1.35 1.35 1.35-.6 1.35-1.35-.6-1.35-1.35-1.35m3.12 0c-.75 0-1.35.6-1.35 1.35s.6 1.35 1.35 1.35 1.35-.6 1.35-1.35-.6-1.35-1.35-1.35"/><circle cx="131.16" cy="59.49" r="1.35"/><circle cx="134.28" cy="59.49" r="1.34"/><circle cx="137.39" cy="59.49" r="1.16"/><path d="M140.51 58.8c-.39 0-.7.31-.7.7s.31.7.7.7.7-.31.7-.7-.31-.7-.7-.7m3.12.37c-.18 0-.32.14-.32.32s.14.32.32.32.32-.14.32-.32-.14-.32-.32-.32m3.11.14c-.1 0-.18.08-.18.18s.08.18.18.18.18-.08.18-.18-.08-.18-.18-.18m-93.48 3.12c-.1 0-.18.08-.18.18s.08.18.18.18.18-.08.18-.18-.08-.18-.18-.18m3.12-.13c-.17 0-.31.14-.31.31s.14.31.31.31.31-.14.31-.31-.14-.31-.31-.31m3.74.31c0-.35-.28-.63-.63-.63s-.63.28-.63.63.28.63.63.63.63-.28.63-.63m3.46 0c0-.54-.43-.97-.97-.97s-.97.43-.97.97.43.97.97.97.97-.43.97-.97m3.23 0c0-.6-.48-1.08-1.08-1.08s-1.08.48-1.08 1.08.48 1.08 1.08 1.08 1.08-.48 1.08-1.08m3.12 0c0-.6-.49-1.09-1.09-1.09s-1.09.49-1.09 1.09.49 1.09 1.09 1.09 1.09-.49 1.09-1.09m3.12 0c0-.6-.49-1.09-1.09-1.09s-1.09.49-1.09 1.09.49 1.09 1.09 1.09 1.09-.49 1.09-1.09m3.11 0c0-.6-.49-1.09-1.09-1.09s-1.09.49-1.09 1.09.49 1.09 1.09 1.09 1.09-.49 1.09-1.09m6.23 0c0-.6-.49-1.09-1.09-1.09s-1.09.49-1.09 1.09.49 1.09 1.09 1.09 1.09-.49 1.09-1.09m3.13 0c0-.61-.49-1.1-1.1-1.1s-1.1.49-1.1 1.1.49 1.1 1.1 1.1 1.1-.49 1.1-1.1"/><circle cx="87.54" cy="62.61" r="1.15" transform="rotate(-9.22 87.509 62.603)"/><path d="M90.65 61.32c-.71 0-1.29.58-1.29 1.29s.58 1.29 1.29 1.29 1.29-.58 1.29-1.29-.58-1.29-1.29-1.29"/><circle cx="93.77" cy="62.61" r="1.36"/><path d="M96.89 61.22c-.77 0-1.39.62-1.39 1.39S96.12 64 96.89 64s1.39-.62 1.39-1.39-.62-1.39-1.39-1.39m3.11 0c-.77 0-1.39.62-1.39 1.39S99.23 64 100 64s1.39-.62 1.39-1.39-.62-1.39-1.39-1.39m3.12 0c-.77 0-1.39.62-1.39 1.39s.62 1.39 1.39 1.39 1.39-.62 1.39-1.39-.62-1.39-1.39-1.39m3.11.03c-.75 0-1.36.61-1.36 1.36s.61 1.36 1.36 1.36 1.36-.61 1.36-1.36-.61-1.36-1.36-1.36"/><circle cx="109.35" cy="62.61" r="1.27"/><path d="M113.61 62.61a1.15 1.15 0 1 0-2.3 0 1.15 1.15 0 0 0 2.3 0m6.18 0c0-.6-.49-1.09-1.09-1.09s-1.09.49-1.09 1.09.49 1.09 1.09 1.09 1.09-.49 1.09-1.09m3.11 0c0-.6-.49-1.09-1.09-1.09s-1.09.49-1.09 1.09.49 1.09 1.09 1.09 1.09-.49 1.09-1.09m3.12 0c0-.6-.49-1.09-1.09-1.09s-1.09.49-1.09 1.09.49 1.09 1.09 1.09 1.09-.49 1.09-1.09m3.11 0c0-.6-.49-1.09-1.09-1.09s-1.09.49-1.09 1.09.49 1.09 1.09 1.09 1.09-.49 1.09-1.09m3.12 0c0-.6-.49-1.09-1.09-1.09s-1.09.49-1.09 1.09.49 1.09 1.09 1.09 1.09-.49 1.09-1.09m3.1 0a1.071 1.071 0 0 0-2.14 0 1.071 1.071 0 0 0 2.14 0m2.98 0a.939.939 0 1 0-1.88 0 .939.939 0 1 0 1.88 0m2.75 0a.57.57 0 1 0-1.14 0 .57.57 0 0 0 1.14 0m5.66.18c.1 0 .18-.08.18-.18s-.08-.18-.18-.18-.18.08-.18.18.08.18.18.18m-93.48 2.76c-.1 0-.18.08-.18.18s.08.18.18.18.18-.08.18-.18-.08-.18-.18-.18m3.12-.06c-.13 0-.24.11-.24.24s.11.24.24.24.24-.11.24-.24-.11-.24-.24-.24m3.49.24a.37.37 0 1 0-.738-.002.37.37 0 0 0 .738.002m3.26 0c0-.29-.23-.52-.52-.52s-.52.23-.52.52.23.52.52.52.52-.23.52-.52m9.4 0a.57.57 0 1 0-1.14 0 .57.57 0 0 0 1.14 0m3.12 0a.57.57 0 1 0-1.14 0 .57.57 0 0 0 1.14 0m3.11 0a.57.57 0 1 0-1.14 0 .57.57 0 0 0 1.14 0m3.12 0a.57.57 0 1 0-1.14 0 .57.57 0 0 0 1.14 0m3.14 0c0-.33-.27-.6-.6-.6s-.6.27-.6.6.27.6.6.6.6-.27.6-.6m3.28 0a.76.76 0 1 0-1.52 0 .76.76 0 0 0 1.52 0m2.35-1.11c-.61 0-1.1.49-1.1 1.1s.49 1.1 1.1 1.1 1.1-.49 1.1-1.1-.49-1.1-1.1-1.1"/><circle cx="93.77" cy="65.73" r="1.32"/><path d="M96.89 67.11c.76 0 1.38-.62 1.38-1.38s-.62-1.38-1.38-1.38-1.38.62-1.38 1.38.62 1.38 1.38 1.38m3.11-2.77c-.77 0-1.39.62-1.39 1.39s.62 1.39 1.39 1.39 1.39-.62 1.39-1.39-.62-1.39-1.39-1.39m3.12 2.77c.76 0 1.38-.62 1.38-1.38s-.62-1.38-1.38-1.38-1.38.62-1.38 1.38.62 1.38 1.38 1.38m3.11-2.69c-.72 0-1.31.59-1.31 1.31s.59 1.31 1.31 1.31 1.31-.59 1.31-1.31-.59-1.31-1.31-1.31m3.12.24c-.59 0-1.06.48-1.06 1.06s.48 1.06 1.06 1.06 1.06-.48 1.06-1.06-.48-1.06-1.06-1.06m3.84 1.07c0-.4-.32-.73-.73-.73s-.73.33-.73.73.33.73.73.73.73-.33.73-.73m6.08 0a.57.57 0 1 0-1.14 0 .57.57 0 0 0 1.14 0m6.23 0a.57.57 0 1 0-1.14 0 .57.57 0 0 0 1.14 0m3.12 0a.57.57 0 1 0-1.14 0 .57.57 0 0 0 1.14 0m3.12 0a.57.57 0 1 0-1.14 0 .57.57 0 0 0 1.14 0m3.11 0c0-.31-.25-.57-.57-.57s-.57.25-.57.57.25.57.57.57.57-.25.57-.57"/><circle cx="137.39" cy="65.73" r=".51"/><path d="M143.63 65.5c-.12 0-.23.1-.23.23s.1.23.23.23.23-.1.23-.23-.1-.23-.23-.23m3.11.4c.1 0 .18-.08.18-.18s-.08-.18-.18-.18-.18.08-.18.18.08.18.18.18m-90.36 2.76c-.1 0-.18.08-.18.18s.08.18.18.18.18-.08.18-.18-.08-.18-.18-.18m3.11-.02c-.11 0-.21.09-.21.21s.09.21.21.21.21-.09.21-.21-.09-.21-.21-.21m3.12-.03c-.13 0-.23.1-.23.23s.1.23.23.23.23-.1.23-.23-.1-.23-.23-.23m3.12 0c-.13 0-.24.11-.24.24s.11.24.24.24.24-.11.24-.24-.11-.24-.24-.24m3.11 0c-.13 0-.24.11-.24.24s.11.24.24.24.24-.11.24-.24-.11-.24-.24-.24m3.12 0c-.13 0-.24.11-.24.24s.11.24.24.24.24-.11.24-.24-.11-.24-.24-.24m6.23 0c-.13 0-.24.11-.24.24s.11.24.24.24.24-.11.24-.24-.11-.24-.24-.24m3.12-.01c-.13 0-.24.11-.24.24s.11.24.24.24.24-.11.24-.24-.11-.24-.24-.24m3.11-.03c-.15 0-.27.12-.27.27s.12.27.27.27.27-.12.27-.27-.12-.27-.27-.27m6.23-.72c-.55 0-.99.44-.99.99s.44.99.99.99.99-.44.99-.99-.44-.99-.99-.99"/><circle cx="93.77" cy="68.84" r="1.3"/><path d="M100 67.45c-.77 0-1.39.62-1.39 1.39s.62 1.39 1.39 1.39 1.39-.62 1.39-1.39-.62-1.39-1.39-1.39m3.12 2.78c.76 0 1.38-.62 1.38-1.38s-.62-1.38-1.38-1.38-1.38.62-1.38 1.38.62 1.38 1.38 1.38m3.11-2.66c-.7 0-1.27.57-1.27 1.27s.57 1.27 1.27 1.27 1.27-.57 1.27-1.27-.57-1.27-1.27-1.27m6.24.81c-.25 0-.46.21-.46.46s.21.46.46.46.46-.21.46-.46-.21-.46-.46-.46m6.23.22c-.13 0-.24.11-.24.24s.11.24.24.24.24-.11.24-.24-.11-.24-.24-.24m3.11.01c-.13 0-.24.11-.24.24s.11.24.24.24.24-.11.24-.24-.11-.24-.24-.24m6.24 0c-.13 0-.24.11-.24.24s.11.24.24.24.24-.11.24-.24-.11-.24-.24-.24m3.11 0c-.13 0-.24.11-.24.24s.11.24.24.24.24-.11.24-.24-.11-.24-.24-.24m3.12 0c-.13 0-.24.11-.24.24s.11.24.24.24.24-.11.24-.24-.11-.24-.24-.24"/><circle cx="137.39" cy="68.84" r=".23"/><path d="M140.51 68.64c-.11 0-.2.09-.2.2s.09.2.2.2.2-.09.2-.2-.09-.2-.2-.2m3.12.39c.1 0 .18-.08.18-.18s-.08-.18-.18-.18-.18.08-.18.18.08.18.18.18m-84.14 2.76c-.1 0-.17.08-.17.17s.08.17.17.17.17-.08.17-.17-.08-.17-.17-.17m3.12.34c.1 0 .17-.08.17-.17s-.08-.17-.17-.17-.17.08-.17.17.08.17.17.17m6.23 0c.1 0 .17-.08.17-.17s-.08-.17-.17-.17-.17.08-.17.17.08.17.17.17m3.12 0c.1 0 .17-.08.17-.17s-.08-.17-.17-.17-.17.08-.17.17.08.17.17.17m3.11 0c.1 0 .17-.08.17-.17s-.08-.17-.17-.17-.17.08-.17.17.08.17.17.17m6.24 0c.1 0 .17-.08.17-.17s-.08-.17-.17-.17-.17.08-.17.17.08.17.17.17m3.11-.38c-.11 0-.21.09-.21.21s.09.21.21.21.21-.09.21-.21-.09-.21-.21-.21m3.12.66c.25 0 .45-.2.45-.45s-.2-.45-.45-.45-.45.2-.45.45.2.45.45.45m3.11-1.42a.96.96 0 1 0 0 1.92.96.96 0 0 0 0-1.92m3.12-.32c-.71 0-1.29.58-1.29 1.29s.58 1.29 1.29 1.29 1.29-.58 1.29-1.29-.58-1.29-1.29-1.29m3.12 2.67c.76 0 1.38-.62 1.38-1.38s-.62-1.38-1.38-1.38-1.38.62-1.38 1.38.62 1.38 1.38 1.38m3.11-2.77c-.77 0-1.39.62-1.39 1.39s.62 1.39 1.39 1.39 1.39-.62 1.39-1.39-.62-1.39-1.39-1.39m3.12 2.77c.76 0 1.38-.62 1.38-1.38s-.62-1.38-1.38-1.38-1.38.62-1.38 1.38.62 1.38 1.38 1.38m3.11-2.65c-.7 0-1.26.57-1.26 1.26s.57 1.26 1.26 1.26 1.26-.57 1.26-1.26-.57-1.26-1.26-1.26m3.12.36c-.5 0-.91.41-.91.91s.41.91.91.91.91-.41.91-.91-.41-.91-.91-.91m3.12.5c-.23 0-.41.18-.41.41s.18.41.41.41.41-.18.41-.41-.18-.41-.41-.41m3.11.21c-.11 0-.2.09-.2.2s.09.2.2.2.2-.09.2-.2-.09-.2-.2-.2m3.12.37c.1 0 .17-.08.17-.17s-.08-.17-.17-.17-.17.08-.17.17.08.17.17.17m3.11 0c.1 0 .17-.08.17-.17s-.08-.17-.17-.17-.17.08-.17.17.08.17.17.17m3.12 0c.1 0 .17-.08.17-.17s-.08-.17-.17-.17-.17.08-.17.17.08.17.17.17m6.23 0c.1 0 .17-.08.17-.17s-.08-.17-.17-.17-.17.08-.17.17.08.17.17.17m3.12 0c.1 0 .17-.08.17-.17s-.08-.17-.17-.17-.17.08-.17.17.08.17.17.17m3.11 0c.1 0 .17-.08.17-.17s-.08-.17-.17-.17-.17.08-.17.17.08.17.17.17m3.12-.34c-.1 0-.17.08-.17.17s.08.17.17.17.17-.08.17-.17-.08-.17-.17-.17m-59.2 3.46c.1 0 .17-.08.17-.17s-.08-.17-.17-.17-.17.08-.17.17.08.17.17.17m3.11-.38c-.11 0-.21.09-.21.21s.09.21.21.21.21-.09.21-.21-.09-.21-.21-.21m3.12.65c.25 0 .45-.2.45-.45s-.2-.45-.45-.45-.45.2-.45.45.2.45.45.45"/><circle cx="93.77" cy="75.07" r="1.29"/><path d="M96.89 76.46c.76 0 1.38-.62 1.38-1.38s-.62-1.38-1.38-1.38-1.38.62-1.38 1.38.62 1.38 1.38 1.38m3.11-2.77c-.77 0-1.39.62-1.39 1.39s.62 1.39 1.39 1.39 1.39-.62 1.39-1.39-.62-1.39-1.39-1.39"/><circle cx="106.23" cy="75.07" r="1.26"/><path d="M109.35 74.17c-.5 0-.91.41-.91.91s.41.91.91.91.91-.41.91-.91-.41-.91-.91-.91m3.12.49c-.23 0-.41.18-.41.41s.18.41.41.41.41-.18.41-.41-.18-.41-.41-.41m6.23.59c.1 0 .17-.08.17-.17s-.08-.17-.17-.17-.17.08-.17.17.08.17.17.17m-37.39 3.11c.1 0 .17-.08.17-.17s-.08-.17-.17-.17-.17.08-.17.17.08.17.17.17m3.11-.38c-.11 0-.21.09-.21.21s.09.21.21.21.21-.09.21-.21-.09-.21-.21-.21m3.12.66c.25 0 .45-.2.45-.45s-.2-.45-.45-.45-.45.2-.45.45.2.45.45.45m3.11-1.41a.96.96 0 1 0 0 1.92.96.96 0 0 0 0-1.92"/><circle cx="93.77" cy="78.19" r="1.29"/><path d="M96.89 79.57c.76 0 1.38-.62 1.38-1.38s-.62-1.38-1.38-1.38-1.38.62-1.38 1.38.62 1.38 1.38 1.38M100 76.8c-.77 0-1.39.62-1.39 1.39s.62 1.39 1.39 1.39 1.39-.62 1.39-1.39-.62-1.39-1.39-1.39m3.12 2.77c.76 0 1.38-.62 1.38-1.38s-.62-1.38-1.38-1.38-1.38.62-1.38 1.38.62 1.38 1.38 1.38"/><circle cx="106.23" cy="78.19" r="1.26"/><path d="M109.35 77.28c-.5 0-.91.41-.91.91s.41.91.91.91.91-.41.91-.91-.41-.91-.91-.91m3.12.5c-.23 0-.41.18-.41.41s.18.41.41.41.41-.18.41-.41-.18-.41-.41-.41"/><circle cx="115.58" cy="78.19" r=".2"/><path d="M118.7 78.36c.1 0 .17-.08.17-.17s-.08-.17-.17-.17-.17.08-.17.17.08.17.17.17m-37.39 3.12c.1 0 .17-.08.17-.17s-.08-.17-.17-.17-.17.08-.17.17.08.17.17.17m3.11-.38c-.11 0-.21.09-.21.21s.09.21.21.21.21-.09.21-.21-.09-.21-.21-.21m3.12.66c.25 0 .45-.2.45-.45s-.2-.45-.45-.45-.45.2-.45.45.2.45.45.45"/><circle cx="90.65" cy="81.31" r=".96"/><circle cx="93.77" cy="81.31" r="1.29"/><path d="M100 79.92c-.77 0-1.39.62-1.39 1.39s.62 1.39 1.39 1.39 1.39-.62 1.39-1.39-.62-1.39-1.39-1.39m3.12 2.77c.76 0 1.38-.62 1.38-1.38s-.62-1.38-1.38-1.38-1.38.62-1.38 1.38.62 1.38 1.38 1.38"/><circle cx="106.23" cy="81.31" r="1.26"/><circle cx="115.58" cy="81.31" r=".2"/><path d="M118.7 81.48c.1 0 .17-.08.17-.17s-.08-.17-.17-.17-.17.08-.17.17.08.17.17.17"/><circle cx="81.31" cy="84.42" r=".17"/><path d="M87.54 84.87c.25 0 .45-.2.45-.45s-.2-.45-.45-.45-.45.2-.45.45.2.45.45.45"/><circle cx="93.77" cy="84.42" r="1.29"/><path d="M96.89 85.81c.76 0 1.38-.62 1.38-1.38s-.62-1.38-1.38-1.38-1.38.62-1.38 1.38.62 1.38 1.38 1.38m3.11-2.78c-.77 0-1.39.62-1.39 1.39s.62 1.39 1.39 1.39 1.39-.62 1.39-1.39-.62-1.39-1.39-1.39m3.12 2.78c.76 0 1.38-.62 1.38-1.38s-.62-1.38-1.38-1.38-1.38.62-1.38 1.38.62 1.38 1.38 1.38"/><circle cx="106.23" cy="84.42" r="1.26"/><path d="M109.35 83.52c-.5 0-.91.41-.91.91s.41.91.91.91.91-.41.91-.91-.41-.91-.91-.91m3.12.49c-.23 0-.41.18-.41.41s.18.41.41.41.41-.18.41-.41-.18-.41-.41-.41"/><circle cx="115.58" cy="84.42" r=".2"/><path d="M118.7 84.6c.1 0 .17-.08.17-.17s-.08-.17-.17-.17-.17.08-.17.17.08.17.17.17"/><circle cx="81.31" cy="87.54" r=".17"/><path d="M84.42 87.33c-.11 0-.21.09-.21.21s.09.21.21.21.21-.09.21-.21-.09-.21-.21-.21m3.12.66c.25 0 .45-.2.45-.45s-.2-.45-.45-.45-.45.2-.45.45.2.45.45.45"/><circle cx="90.65" cy="87.54" r=".96"/><circle cx="93.77" cy="87.54" r="1.29"/><path d="M96.89 88.92c.76 0 1.38-.62 1.38-1.38s-.62-1.38-1.38-1.38-1.38.62-1.38 1.38.62 1.38 1.38 1.38m3.11-2.77c-.77 0-1.39.62-1.39 1.39s.62 1.39 1.39 1.39 1.39-.62 1.39-1.39-.62-1.39-1.39-1.39m6.23.12c-.7 0-1.26.57-1.26 1.26s.57 1.26 1.26 1.26 1.26-.57 1.26-1.26-.57-1.26-1.26-1.26m3.12.36c-.5 0-.91.41-.91.91s.41.91.91.91.91-.41.91-.91-.41-.91-.91-.91m3.12.5c-.23 0-.41.18-.41.41s.18.41.41.41.41-.18.41-.41-.18-.41-.41-.41m6.23.58c.1 0 .17-.08.17-.17s-.08-.17-.17-.17-.17.08-.17.17.08.17.17.17m-34.28 2.74c-.11 0-.21.09-.21.21s.09.21.21.21.21-.09.21-.21-.09-.21-.21-.21m3.12.65c.25 0 .45-.2.45-.45s-.2-.45-.45-.45-.45.2-.45.45.2.45.45.45"/><circle cx="90.65" cy="90.65" r=".96"/><circle cx="93.77" cy="90.65" r="1.29"/><path d="M96.89 92.04c.76 0 1.38-.62 1.38-1.38s-.62-1.38-1.38-1.38-1.38.62-1.38 1.38.62 1.38 1.38 1.38m3.11-2.77c-.77 0-1.39.62-1.39 1.39s.62 1.39 1.39 1.39 1.39-.62 1.39-1.39-.62-1.39-1.39-1.39m3.12 2.77c.76 0 1.38-.62 1.38-1.38s-.62-1.38-1.38-1.38-1.38.62-1.38 1.38.62 1.38 1.38 1.38m3.11-2.65c-.7 0-1.26.57-1.26 1.26s.57 1.26 1.26 1.26 1.26-.57 1.26-1.26-.57-1.26-1.26-1.26m6.24.85c-.23 0-.41.18-.41.41s.18.41.41.41.41-.18.41-.41-.18-.41-.41-.41m6.23.59c.1 0 .17-.08.17-.17s-.08-.17-.17-.17-.17.08-.17.17.08.17.17.17m-37.39 3.11c.1 0 .17-.08.17-.17s-.08-.17-.17-.17-.17.08-.17.17.08.17.17.17m3.11-.38c-.11 0-.21.09-.21.21s.09.21.21.21.21-.09.21-.21-.09-.21-.21-.21m3.12.66c.25 0 .45-.2.45-.45s-.2-.45-.45-.45-.45.2-.45.45.2.45.45.45"/><circle cx="90.65" cy="93.77" r=".96"/><circle cx="93.77" cy="93.77" r="1.29"/><path d="M96.89 95.15c.76 0 1.38-.62 1.38-1.38s-.62-1.38-1.38-1.38-1.38.62-1.38 1.38.62 1.38 1.38 1.38m3.11-2.77c-.77 0-1.39.62-1.39 1.39s.62 1.39 1.39 1.39 1.39-.62 1.39-1.39-.62-1.39-1.39-1.39m3.12 2.77c.76 0 1.38-.62 1.38-1.38s-.62-1.38-1.38-1.38-1.38.62-1.38 1.38.62 1.38 1.38 1.38"/><circle cx="106.23" cy="93.77" r="1.26"/><path d="M112.47 93.36c-.23 0-.41.18-.41.41s.18.41.41.41.41-.18.41-.41-.18-.41-.41-.41m3.11.21c-.11 0-.2.09-.2.2s.09.2.2.2.2-.09.2-.2-.09-.2-.2-.2m3.12.37c.1 0 .17-.08.17-.17s-.08-.17-.17-.17-.17.08-.17.17.08.17.17.17m-37.39 3.12c.1 0 .17-.08.17-.17s-.08-.17-.17-.17-.17.08-.17.17.08.17.17.17"/><circle cx="90.65" cy="96.89" r=".96"/><circle cx="93.77" cy="96.89" r="1.29"/><path d="M100 95.5c-.77 0-1.39.62-1.39 1.39s.62 1.39 1.39 1.39 1.39-.62 1.39-1.39-.62-1.39-1.39-1.39m3.12 2.77c.76 0 1.38-.62 1.38-1.38s-.62-1.38-1.38-1.38-1.38.62-1.38 1.38.62 1.38 1.38 1.38"/><circle cx="106.23" cy="96.89" r="1.26"/><path d="M109.35 95.98c-.5 0-.91.41-.91.91s.41.91.91.91.91-.41.91-.91-.41-.91-.91-.91m3.12.49c-.23 0-.41.18-.41.41s.18.41.41.41.41-.18.41-.41-.18-.41-.41-.41m3.11.22c-.11 0-.2.09-.2.2s.09.2.2.2.2-.09.2-.2-.09-.2-.2-.2M84.42 99.8c-.11 0-.21.09-.21.21s.09.21.21.21.21-.09.21-.21-.09-.21-.21-.21m3.12.65c.25 0 .45-.2.45-.45s-.2-.45-.45-.45-.45.2-.45.45.2.45.45.45"/><circle cx="90.65" cy="100" r=".96"/><circle cx="93.77" cy="100" r="1.29"/><path d="M96.89 101.39c.76 0 1.38-.62 1.38-1.38s-.62-1.38-1.38-1.38-1.38.62-1.38 1.38.62 1.38 1.38 1.38m3.11-2.78c-.77 0-1.39.62-1.39 1.39s.62 1.39 1.39 1.39 1.39-.62 1.39-1.39-.62-1.39-1.39-1.39m3.12 2.78c.76 0 1.38-.62 1.38-1.38s-.62-1.38-1.38-1.38-1.38.62-1.38 1.38.62 1.38 1.38 1.38"/><circle cx="106.23" cy="100" r="1.26"/><path d="M109.35 99.1c-.5 0-.91.41-.91.91s.41.91.91.91.91-.41.91-.91-.41-.91-.91-.91m3.12.49c-.23 0-.41.18-.41.41s.18.41.41.41.41-.18.41-.41-.18-.41-.41-.41m6.23.59c.1 0 .17-.08.17-.17s-.08-.17-.17-.17-.17.08-.17.17.08.17.17.17"/><circle cx="81.31" cy="103.12" r=".17"/><path d="M84.42 102.91c-.11 0-.21.09-.21.21s.09.21.21.21.21-.09.21-.21-.09-.21-.21-.21m3.12.66c.25 0 .45-.2.45-.45s-.2-.45-.45-.45-.45.2-.45.45.2.45.45.45"/><circle cx="93.77" cy="103.12" r="1.29"/><path d="M96.89 104.5c.76 0 1.38-.62 1.38-1.38s-.62-1.38-1.38-1.38-1.38.62-1.38 1.38.62 1.38 1.38 1.38m3.11-2.77c-.77 0-1.39.62-1.39 1.39s.62 1.39 1.39 1.39 1.39-.62 1.39-1.39-.62-1.39-1.39-1.39m3.12 2.77c.76 0 1.38-.62 1.38-1.38s-.62-1.38-1.38-1.38-1.38.62-1.38 1.38.62 1.38 1.38 1.38"/><circle cx="106.23" cy="103.12" r="1.26"/><path d="M109.35 102.21c-.5 0-.91.41-.91.91s.41.91.91.91.91-.41.91-.91-.41-.91-.91-.91"/><circle cx="115.58" cy="103.12" r=".2"/><path d="M118.7 103.29c.1 0 .17-.08.17-.17s-.08-.17-.17-.17-.17.08-.17.17.08.17.17.17"/><circle cx="81.31" cy="106.23" r=".17"/><path d="M84.42 106.03c-.11 0-.21.09-.21.21s.09.21.21.21.21-.09.21-.21-.09-.21-.21-.21m3.12.65c.25 0 .45-.2.45-.45s-.2-.45-.45-.45-.45.2-.45.45.2.45.45.45"/><circle cx="90.65" cy="106.23" r=".96"/><circle cx="93.77" cy="106.23" r="1.29"/><path d="M96.89 107.62c.76 0 1.38-.62 1.38-1.38s-.62-1.38-1.38-1.38-1.38.62-1.38 1.38.62 1.38 1.38 1.38m3.11-2.77c-.77 0-1.39.62-1.39 1.39s.62 1.39 1.39 1.39 1.39-.62 1.39-1.39-.62-1.39-1.39-1.39"/><circle cx="106.23" cy="106.23" r="1.26"/><circle cx="109.35" cy="106.23" r=".91"/><path d="M112.47 105.82c-.23 0-.41.18-.41.41s.18.41.41.41.41-.18.41-.41-.18-.41-.41-.41"/><circle cx="115.58" cy="106.23" r=".2"/><path d="M81.31 109.52c.1 0 .17-.08.17-.17s-.08-.17-.17-.17-.17.08-.17.17.08.17.17.17"/><circle cx="90.65" cy="109.35" r=".96"/><path d="M96.89 110.73c.76 0 1.38-.62 1.38-1.38s-.62-1.38-1.38-1.38-1.38.62-1.38 1.38.62 1.38 1.38 1.38m3.11-2.77c-.77 0-1.39.62-1.39 1.39s.62 1.39 1.39 1.39 1.39-.62 1.39-1.39-.62-1.39-1.39-1.39m3.12 2.77c.76 0 1.38-.62 1.38-1.38s-.62-1.38-1.38-1.38-1.38.62-1.38 1.38.62 1.38 1.38 1.38"/><circle cx="106.23" cy="109.35" r="1.26"/><path d="M109.35 108.44c-.5 0-.91.41-.91.91s.41.91.91.91.91-.41.91-.91-.41-.91-.91-.91m3.12.5c-.23 0-.41.18-.41.41s.18.41.41.41.41-.18.41-.41-.18-.41-.41-.41"/><circle cx="115.58" cy="109.35" r=".2"/><path d="M118.7 109.52c.1 0 .17-.08.17-.17s-.08-.17-.17-.17-.17.08-.17.17.08.17.17.17m-37.39 3.12c.1 0 .17-.08.17-.17s-.08-.17-.17-.17-.17.08-.17.17.08.17.17.17m3.11-.38c-.11 0-.21.09-.21.21s.09.21.21.21.21-.09.21-.21-.09-.21-.21-.21m3.12.66c.25 0 .45-.2.45-.45s-.2-.45-.45-.45-.45.2-.45.45.2.45.45.45"/><circle cx="90.65" cy="112.47" r=".96"/><circle cx="93.77" cy="112.47" r="1.29"/><path d="M96.89 113.85c.76 0 1.38-.62 1.38-1.38s-.62-1.38-1.38-1.38-1.38.62-1.38 1.38.62 1.38 1.38 1.38m3.11-2.77c-.77 0-1.39.62-1.39 1.39s.62 1.39 1.39 1.39 1.39-.62 1.39-1.39-.62-1.39-1.39-1.39m3.12 2.77c.76 0 1.38-.62 1.38-1.38s-.62-1.38-1.38-1.38-1.38.62-1.38 1.38.62 1.38 1.38 1.38"/><circle cx="106.23" cy="112.47" r="1.26"/><path d="M109.35 111.56c-.5 0-.91.41-.91.91s.41.91.91.91.91-.41.91-.91-.41-.91-.91-.91m3.12.49c-.23 0-.41.18-.41.41s.18.41.41.41.41-.18.41-.41-.18-.41-.41-.41"/><circle cx="115.58" cy="112.47" r=".2"/><path d="M118.7 112.64c.1 0 .17-.08.17-.17s-.08-.17-.17-.17-.17.08-.17.17.08.17.17.17m-34.28 2.74c-.11 0-.21.09-.21.21s.09.21.21.21.21-.09.21-.21-.09-.21-.21-.21m3.12.65c.25 0 .45-.2.45-.45s-.2-.45-.45-.45-.45.2-.45.45.2.45.45.45m3.11-1.41a.96.96 0 1 0 0 1.92.96.96 0 0 0 0-1.92"/><circle cx="93.77" cy="115.58" r="1.29"/><path d="M96.89 116.97c.76 0 1.38-.62 1.38-1.38s-.62-1.38-1.38-1.38-1.38.62-1.38 1.38.62 1.38 1.38 1.38m3.11-2.78c-.77 0-1.39.62-1.39 1.39s.62 1.39 1.39 1.39 1.39-.62 1.39-1.39-.62-1.39-1.39-1.39m3.12 2.78c.76 0 1.38-.62 1.38-1.38s-.62-1.38-1.38-1.38-1.38.62-1.38 1.38.62 1.38 1.38 1.38"/><circle cx="106.23" cy="115.58" r="1.26"/><path d="M109.35 114.68c-.5 0-.91.41-.91.91s.41.91.91.91.91-.41.91-.91-.41-.91-.91-.91"/><circle cx="115.58" cy="115.58" r=".2"/><path d="M118.7 115.76c.1 0 .17-.08.17-.17s-.08-.17-.17-.17-.17.08-.17.17.08.17.17.17m-37.39 3.11c.1 0 .17-.08.17-.17s-.08-.17-.17-.17-.17.08-.17.17.08.17.17.17m3.11-.38c-.11 0-.21.09-.21.21s.09.21.21.21.21-.09.21-.21-.09-.21-.21-.21m6.23-.76a.96.96 0 1 0 0 1.92.96.96 0 0 0 0-1.92m3.12 2.26c.71 0 1.29-.58 1.29-1.29s-.58-1.29-1.29-1.29-1.29.58-1.29 1.29.58 1.29 1.29 1.29m3.12.09c.76 0 1.38-.62 1.38-1.38s-.62-1.38-1.38-1.38-1.38.62-1.38 1.38.62 1.38 1.38 1.38m6.23 0c.76 0 1.38-.62 1.38-1.38s-.62-1.38-1.38-1.38-1.38.62-1.38 1.38.62 1.38 1.38 1.38m3.11-2.65c-.7 0-1.26.57-1.26 1.26s.57 1.26 1.26 1.26 1.26-.57 1.26-1.26-.57-1.26-1.26-1.26m3.12.36c-.5 0-.91.41-.91.91s.41.91.91.91.91-.41.91-.91-.41-.91-.91-.91m3.12.5c-.23 0-.41.18-.41.41s.18.41.41.41.41-.18.41-.41-.18-.41-.41-.41m3.11.21c-.11 0-.2.09-.2.2s.09.2.2.2.2-.09.2-.2-.09-.2-.2-.2m3.12.37c.1 0 .17-.08.17-.17s-.08-.17-.17-.17-.17.08-.17.17.08.17.17.17m-37.39 3.12c.1 0 .17-.08.17-.17s-.08-.17-.17-.17-.17.08-.17.17.08.17.17.17m3.11-.38c-.11 0-.21.09-.21.21s.09.21.21.21.21-.09.21-.21-.09-.21-.21-.21m3.12.65c.25 0 .45-.2.45-.45s-.2-.45-.45-.45-.45.2-.45.45.2.45.45.45"/><circle cx="90.65" cy="121.81" r=".96"/><circle cx="93.77" cy="121.81" r="1.29"/><path d="M96.89 123.2c.76 0 1.38-.62 1.38-1.38s-.62-1.38-1.38-1.38-1.38.62-1.38 1.38.62 1.38 1.38 1.38m3.11-2.77c-.77 0-1.39.62-1.39 1.39s.62 1.39 1.39 1.39 1.39-.62 1.39-1.39-.62-1.39-1.39-1.39m3.12 2.77c.76 0 1.38-.62 1.38-1.38s-.62-1.38-1.38-1.38-1.38.62-1.38 1.38.62 1.38 1.38 1.38m3.11-2.65c-.7 0-1.26.57-1.26 1.26s.57 1.26 1.26 1.26 1.26-.57 1.26-1.26-.57-1.26-1.26-1.26m3.12.36c-.5 0-.91.41-.91.91s.41.91.91.91.91-.41.91-.91-.41-.91-.91-.91m3.12.49c-.23 0-.41.18-.41.41s.18.41.41.41.41-.18.41-.41-.18-.41-.41-.41m3.11.22c-.11 0-.2.09-.2.2s.09.2.2.2.2-.09.2-.2-.09-.2-.2-.2"/><circle cx="81.31" cy="124.93" r=".17"/><path d="M84.42 124.72c-.11 0-.21.09-.21.21s.09.21.21.21.21-.09.21-.21-.09-.21-.21-.21m3.12.66c.25 0 .45-.2.45-.45s-.2-.45-.45-.45-.45.2-.45.45.2.45.45.45"/><circle cx="93.77" cy="124.93" r="1.29"/><path d="M96.89 126.31c.76 0 1.38-.62 1.38-1.38s-.62-1.38-1.38-1.38-1.38.62-1.38 1.38.62 1.38 1.38 1.38m3.11-2.77c-.77 0-1.39.62-1.39 1.39s.62 1.39 1.39 1.39 1.39-.62 1.39-1.39-.62-1.39-1.39-1.39m3.12 2.77c.76 0 1.38-.62 1.38-1.38s-.62-1.38-1.38-1.38-1.38.62-1.38 1.38.62 1.38 1.38 1.38m3.11-2.64c-.7 0-1.26.57-1.26 1.26s.57 1.26 1.26 1.26 1.26-.57 1.26-1.26-.57-1.26-1.26-1.26m6.24.85c-.23 0-.41.18-.41.41s.18.41.41.41.41-.18.41-.41-.18-.41-.41-.41m-52.98 3.35c-.1 0-.17.08-.17.17s.08.17.17.17.17-.08.17-.17-.08-.17-.17-.17m3.12.35c.1 0 .18-.08.18-.18s-.08-.18-.18-.18-.18.08-.18.18.08.18.18.18m6.23 0c.1 0 .18-.08.18-.18s-.08-.18-.18-.18-.18.08-.18.18.08.18.18.18m6.23 0c.1 0 .18-.08.18-.18s-.08-.18-.18-.18-.18.08-.18.18.08.18.18.18m3.12 0c.1 0 .18-.08.18-.18s-.08-.18-.18-.18-.18.08-.18.18.08.18.18.18m3.12 0c.1 0 .18-.08.18-.18s-.08-.18-.18-.18-.18.08-.18.18.08.18.18.18m6.23.28c.25 0 .45-.2.45-.45s-.2-.45-.45-.45-.45.2-.45.45.2.45.45.45"/><circle cx="90.65" cy="128.05" r=".96"/><path d="M96.89 129.43c.76 0 1.38-.62 1.38-1.38s-.62-1.38-1.38-1.38-1.38.62-1.38 1.38.62 1.38 1.38 1.38m3.11-2.77c-.77 0-1.39.62-1.39 1.39s.62 1.39 1.39 1.39 1.39-.62 1.39-1.39-.62-1.39-1.39-1.39m6.23.12c-.7 0-1.26.57-1.26 1.26s.57 1.26 1.26 1.26 1.26-.57 1.26-1.26-.57-1.26-1.26-1.26m3.12.36c-.5 0-.91.41-.91.91s.41.91.91.91.91-.41.91-.91-.41-.91-.91-.91m3.12.49c-.23 0-.41.18-.41.41s.18.41.41.41.41-.18.41-.41-.18-.41-.41-.41"/><circle cx="115.58" cy="128.05" r=".2"/><path d="M118.7 128.22c.1 0 .18-.08.18-.18s-.08-.18-.18-.18-.18.08-.18.18.08.18.18.18m3.11 0c.1 0 .18-.08.18-.18s-.08-.18-.18-.18-.18.08-.18.18.08.18.18.18m3.12 0c.1 0 .18-.08.18-.18s-.08-.18-.18-.18-.18.08-.18.18.08.18.18.18m6.23 0c.1 0 .18-.08.18-.18s-.08-.18-.18-.18-.18.08-.18.18.08.18.18.18m3.12 0c.1 0 .18-.08.18-.18s-.08-.18-.18-.18-.18.08-.18.18.08.18.18.18m3.11 0c.1 0 .18-.08.18-.18s-.08-.18-.18-.18-.18.08-.18.18.08.18.18.18m3.12-.35c-.1 0-.17.08-.17.17s.08.17.17.17.17-.08.17-.17-.08-.17-.17-.17m-84.13 3.11c-.1 0-.18.08-.18.18s.08.18.18.18.18-.08.18-.18-.08-.18-.18-.18m3.11.4c.12 0 .22-.1.22-.22s-.1-.22-.22-.22-.22.1-.22.22.1.22.22.22m3.12.03c.14 0 .24-.11.24-.24s-.11-.24-.24-.24-.24.11-.24.24.11.24.24.24m3.12.01c.14 0 .25-.11.25-.25s-.11-.25-.25-.25-.25.11-.25.25.11.25.25.25m3.11 0c.14 0 .25-.11.25-.25s-.11-.25-.25-.25-.25.11-.25.25.11.25.25.25m3.12 0c.14 0 .25-.11.25-.25s-.11-.25-.25-.25-.25.11-.25.25.11.25.25.25m3.11 0c.14 0 .25-.11.25-.25s-.11-.25-.25-.25-.25.11-.25.25.11.25.25.25m3.12 0c.14 0 .25-.11.25-.25s-.11-.25-.25-.25-.25.11-.25.25.11.25.25.25m3.12 0c.14 0 .26-.12.26-.26s-.12-.26-.26-.26-.26.12-.26.26.12.26.26.26"/><circle cx="87.54" cy="131.16" r=".52"/><path d="M90.65 132.16c.55 0 .99-.44.99-.99s-.44-.99-.99-.99-.99.44-.99.99.44.99.99.99"/><circle cx="93.77" cy="131.16" r="1.3"/><path d="M96.89 132.55c.76 0 1.38-.62 1.38-1.38s-.62-1.38-1.38-1.38-1.38.62-1.38 1.38.62 1.38 1.38 1.38m3.11-2.78c-.77 0-1.39.62-1.39 1.39s.62 1.39 1.39 1.39 1.39-.62 1.39-1.39-.62-1.39-1.39-1.39m3.12 2.78c.76 0 1.38-.62 1.38-1.38s-.62-1.38-1.38-1.38-1.38.62-1.38 1.38.62 1.38 1.38 1.38m6.23-.45a.939.939 0 1 0 0-1.88.939.939 0 1 0 0 1.88m6.23-.66c.16 0 .28-.13.28-.28s-.13-.28-.28-.28-.28.13-.28.28.13.28.28.28m3.12-.02c.14 0 .26-.12.26-.26s-.12-.26-.26-.26-.26.12-.26.26.12.26.26.26m3.11 0c.14 0 .25-.11.25-.25s-.11-.25-.25-.25-.25.11-.25.25.11.25.25.25m3.12 0c.14 0 .25-.11.25-.25s-.11-.25-.25-.25-.25.11-.25.25.11.25.25.25m3.12 0c.14 0 .25-.11.25-.25s-.11-.25-.25-.25-.25.11-.25.25.11.25.25.25m3.11 0c.14 0 .25-.11.25-.25s-.11-.25-.25-.25-.25.11-.25.25.11.25.25.25m3.12 0c.14 0 .26-.12.26-.26s-.12-.26-.26-.26-.26.12-.26.26.12.26.26.26m6.23-.05c.12 0 .21-.09.21-.21s-.09-.21-.21-.21-.21.09-.21.21.09.21.21.21m3.12-.03c.1 0 .18-.08.18-.18s-.08-.18-.18-.18-.18.08-.18.18.08.18.18.18m-90.37 2.76c-.1 0-.18.08-.18.18s.08.18.18.18.18-.08.18-.18-.08-.18-.18-.18m3.12.42c.13 0 .24-.11.24-.24s-.11-.24-.24-.24-.24.11-.24.24.11.24.24.24m3.11.16c.22 0 .4-.18.4-.4s-.18-.4-.4-.4-.4.18-.4.4.18.4.4.4m3.12.16a.56.56 0 1 0 0-1.12.56.56 0 1 0 0 1.12m9.35.06c.35 0 .63-.28.63-.63s-.28-.63-.63-.63-.63.28-.63.63.28.63.63.63m3.11 0c.35 0 .63-.28.63-.63s-.28-.63-.63-.63-.63.28-.63.63.28.63.63.63m3.12 0c.35 0 .63-.28.63-.63s-.28-.63-.63-.63-.63.28-.63.63.28.63.63.63m6.23.02c.36 0 .64-.29.64-.64s-.29-.64-.64-.64-.64.29-.64.64.29.64.64.64m3.12.16c.44 0 .8-.36.8-.8s-.36-.8-.8-.8-.8.36-.8.8.36.8.8.8m3.11.32c.62 0 1.12-.5 1.12-1.12s-.5-1.12-1.12-1.12-1.12.5-1.12 1.12.5 1.12 1.12 1.12"/><circle cx="93.77" cy="134.28" r="1.33"/><path d="M100 132.89c-.77 0-1.39.62-1.39 1.39s.62 1.39 1.39 1.39 1.39-.62 1.39-1.39-.62-1.39-1.39-1.39m3.12 2.77c.76 0 1.38-.62 1.38-1.38s-.62-1.38-1.38-1.38-1.38.62-1.38 1.38.62 1.38 1.38 1.38"/><circle cx="106.23" cy="134.28" r="1.31"/><circle cx="109.35" cy="134.28" r="1.08"/><path d="M112.47 135.05c.43 0 .77-.35.77-.77s-.35-.77-.77-.77-.77.35-.77.77.35.77.77.77m6.23-.15c.35 0 .63-.28.63-.63s-.28-.63-.63-.63-.63.28-.63.63.28.63.63.63m3.11 0c.35 0 .63-.28.63-.63s-.28-.63-.63-.63-.63.28-.63.63.28.63.63.63m3.12 0c.35 0 .63-.28.63-.63s-.28-.63-.63-.63-.63.28-.63.63.28.63.63.63m6.23 0c.35 0 .63-.28.63-.63s-.28-.63-.63-.63-.63.28-.63.63.28.63.63.63m3.12 0c.34 0 .62-.28.62-.62s-.28-.62-.62-.62-.62.28-.62.62.28.62.62.62m3.11-.07c.3 0 .55-.25.55-.55s-.25-.55-.55-.55-.55.25-.55.55.25.55.55.55m3.12-.17a.38.38 0 1 0 0-.76.38.38 0 0 0 0 .76m3.12-.16c.12 0 .23-.1.23-.23s-.1-.23-.23-.23-.23.1-.23.23.1.23.23.23m3.11-.04c.1 0 .18-.08.18-.18s-.08-.18-.18-.18-.18.08-.18.18.08.18.18.18m-93.48 3.12c.1 0 .18-.08.18-.18s-.08-.18-.18-.18-.18.08-.18.18.08.18.18.18m3.12.14c.18 0 .32-.14.32-.32s-.14-.32-.32-.32-.32.14-.32.32.14.32.32.32m3.11.32c.36 0 .64-.29.64-.64s-.29-.64-.64-.64-.64.29-.64.64.29.64.64.64m3.12.36c.56 0 1.01-.45 1.01-1.01s-.45-1.01-1.01-1.01-1.01.45-1.01 1.01.45 1.01 1.01 1.01"/><circle cx="65.73" cy="137.39" r="1.13" transform="rotate(-13.28 65.757 137.427)"/><circle cx="68.84" cy="137.39" r="1.14"/><circle cx="71.96" cy="137.39" r="1.14"/><path d="M75.07 138.53a1.14 1.14 0 1 0 .001-2.279 1.14 1.14 0 0 0-.001 2.279m3.12 0a1.14 1.14 0 1 0 .001-2.279 1.14 1.14 0 0 0-.001 2.279m3.12 0a1.14 1.14 0 1 0 .001-2.279 1.14 1.14 0 0 0-.001 2.279m3.11 0a1.14 1.14 0 1 0 .001-2.279 1.14 1.14 0 0 0-.001 2.279m3.12.06c.66 0 1.19-.53 1.19-1.19s-.53-1.19-1.19-1.19-1.19.53-1.19 1.19.53 1.19 1.19 1.19m3.11.11c.72 0 1.3-.58 1.3-1.3s-.58-1.3-1.3-1.3-1.3.58-1.3 1.3.58 1.3 1.3 1.3"/><circle cx="93.77" cy="137.39" r="1.37"/><path d="M96.89 136.01c-.77 0-1.39.62-1.39 1.39s.62 1.39 1.39 1.39 1.39-.62 1.39-1.39-.62-1.39-1.39-1.39m3.11 0c-.77 0-1.39.62-1.39 1.39s.62 1.39 1.39 1.39 1.39-.62 1.39-1.39-.62-1.39-1.39-1.39m3.12 0c-.77 0-1.39.62-1.39 1.39s.62 1.39 1.39 1.39 1.39-.62 1.39-1.39-.62-1.39-1.39-1.39m3.11 2.75c.75 0 1.36-.61 1.36-1.36s-.61-1.36-1.36-1.36-1.36.61-1.36 1.36.61 1.36 1.36 1.36m3.12-.08c.71 0 1.29-.58 1.29-1.29s-.58-1.29-1.29-1.29-1.29.58-1.29 1.29.58 1.29 1.29 1.29m3.12-.1c.65 0 1.18-.53 1.18-1.18s-.53-1.18-1.18-1.18-1.18.53-1.18 1.18.53 1.18 1.18 1.18m3.11-.05a1.14 1.14 0 1 0 .001-2.279 1.14 1.14 0 0 0-.001 2.279m3.12 0a1.14 1.14 0 1 0 .001-2.279 1.14 1.14 0 0 0-.001 2.279"/><circle cx="121.81" cy="137.39" r="1.14"/><path d="M124.93 138.53a1.14 1.14 0 1 0 .001-2.279 1.14 1.14 0 0 0-.001 2.279m3.12 0a1.14 1.14 0 1 0 .001-2.279 1.14 1.14 0 0 0-.001 2.279"/><circle cx="131.16" cy="137.39" r="1.14"/><path d="M134.28 138.52c.62 0 1.12-.5 1.12-1.12s-.5-1.12-1.12-1.12-1.12.5-1.12 1.12.5 1.12 1.12 1.12m3.11-.14c.54 0 .98-.44.98-.98s-.44-.98-.98-.98-.98.44-.98.98.44.98.98.98m3.12-.38c.33 0 .6-.27.6-.6s-.27-.6-.6-.6-.6.27-.6.6.27.6.6.6m3.12-.31c.16 0 .3-.13.3-.3s-.13-.3-.3-.3-.3.13-.3.3.13.3.3.3m3.11-.12c.1 0 .18-.08.18-.18s-.08-.18-.18-.18-.18.08-.18.18.08.18.18.18m-87.25 3.7a.76.76 0 1 0 0-1.52.76.76 0 0 0 0 1.52m3.12.45c.67 0 1.21-.54 1.21-1.21s-.54-1.21-1.21-1.21-1.21.54-1.21 1.21.54 1.21 1.21 1.21"/><circle cx="65.73" cy="140.51" r="1.35" transform="rotate(-13.28 65.746 140.517)"/><path d="M68.84 141.87c.75 0 1.36-.61 1.36-1.36s-.61-1.36-1.36-1.36-1.36.61-1.36 1.36.61 1.36 1.36 1.36m3.12 0c.75 0 1.36-.61 1.36-1.36s-.61-1.36-1.36-1.36-1.36.61-1.36 1.36.61 1.36 1.36 1.36m6.23 0c.75 0 1.36-.61 1.36-1.36s-.61-1.36-1.36-1.36-1.36.61-1.36 1.36.61 1.36 1.36 1.36m3.12 0c.75 0 1.36-.61 1.36-1.36s-.61-1.36-1.36-1.36-1.36.61-1.36 1.36.61 1.36 1.36 1.36m3.11 0c.75 0 1.36-.61 1.36-1.36s-.61-1.36-1.36-1.36-1.36.61-1.36 1.36.61 1.36 1.36 1.36"/><circle cx="87.54" cy="140.51" r="1.37"/><path d="M93.77 139.12c-.77 0-1.39.62-1.39 1.39s.62 1.39 1.39 1.39 1.39-.62 1.39-1.39-.62-1.39-1.39-1.39m9.35 0c-.77 0-1.39.62-1.39 1.39s.62 1.39 1.39 1.39 1.39-.62 1.39-1.39-.62-1.39-1.39-1.39m3.11 0c-.77 0-1.39.62-1.39 1.39s.62 1.39 1.39 1.39 1.39-.62 1.39-1.39-.62-1.39-1.39-1.39m6.24 2.75c.75 0 1.36-.61 1.36-1.36s-.61-1.36-1.36-1.36-1.36.61-1.36 1.36.61 1.36 1.36 1.36m3.11 0c.75 0 1.36-.61 1.36-1.36s-.61-1.36-1.36-1.36-1.36.61-1.36 1.36.61 1.36 1.36 1.36m6.23 0c.75 0 1.36-.61 1.36-1.36s-.61-1.36-1.36-1.36-1.36.61-1.36 1.36.61 1.36 1.36 1.36m3.12 0c.75 0 1.36-.61 1.36-1.36s-.61-1.36-1.36-1.36-1.36.61-1.36 1.36.61 1.36 1.36 1.36m3.12 0c.75 0 1.36-.61 1.36-1.36s-.61-1.36-1.36-1.36-1.36.61-1.36 1.36.61 1.36 1.36 1.36m6.23-.01a1.35 1.35 0 1 0-.001-2.701 1.35 1.35 0 0 0 .001 2.701m6.23-.65c.39 0 .7-.31.7-.7s-.31-.7-.7-.7-.7.31-.7.7.31.7.7.7m6.23-.88c-.1 0-.18.08-.18.18s.08.18.18.18.18-.08.18-.18-.08-.18-.18-.18m-93.48 3.11c-.1 0-.19.08-.19.19s.08.19.19.19.19-.08.19-.19-.08-.19-.19-.19m3.12-.17c-.2 0-.36.16-.36.36s.16.36.36.36.36-.16.36-.36-.16-.36-.36-.36m6.23-.87a1.23 1.23 0 1 0 0 2.46 1.23 1.23 0 1 0 0-2.46m3.12-.15c-.76 0-1.37.62-1.37 1.37s.62 1.37 1.37 1.37 1.37-.62 1.37-1.37-.62-1.37-1.37-1.37m6.23-.01c-.77 0-1.39.62-1.39 1.39s.62 1.39 1.39 1.39 1.39-.62 1.39-1.39-.62-1.39-1.39-1.39m3.11 0c-.77 0-1.39.62-1.39 1.39s.62 1.39 1.39 1.39 1.39-.62 1.39-1.39-.62-1.39-1.39-1.39m3.12 0c-.77 0-1.39.62-1.39 1.39s.62 1.39 1.39 1.39 1.39-.62 1.39-1.39-.62-1.39-1.39-1.39m3.12 0c-.77 0-1.39.62-1.39 1.39s.62 1.39 1.39 1.39 1.39-.62 1.39-1.39-.62-1.39-1.39-1.39m3.11 0c-.77 0-1.39.62-1.39 1.39s.62 1.39 1.39 1.39 1.39-.62 1.39-1.39-.62-1.39-1.39-1.39m3.12 0c-.77 0-1.39.62-1.39 1.39s.62 1.39 1.39 1.39 1.39-.62 1.39-1.39-.62-1.39-1.39-1.39m3.11 0c-.77 0-1.39.62-1.39 1.39s.62 1.39 1.39 1.39 1.39-.62 1.39-1.39-.62-1.39-1.39-1.39m3.12 0c-.77 0-1.39.62-1.39 1.39s.62 1.39 1.39 1.39 1.39-.62 1.39-1.39-.62-1.39-1.39-1.39m3.12 0c-.77 0-1.39.62-1.39 1.39s.62 1.39 1.39 1.39 1.39-.62 1.39-1.39-.62-1.39-1.39-1.39m3.11 0c-.77 0-1.39.62-1.39 1.39s.62 1.39 1.39 1.39 1.39-.62 1.39-1.39-.62-1.39-1.39-1.39m3.12 0c-.77 0-1.39.62-1.39 1.39s.62 1.39 1.39 1.39 1.39-.62 1.39-1.39-.62-1.39-1.39-1.39m3.11 0c-.77 0-1.39.62-1.39 1.39s.62 1.39 1.39 1.39 1.39-.62 1.39-1.39-.62-1.39-1.39-1.39m3.12 0c-.77 0-1.39.62-1.39 1.39s.62 1.39 1.39 1.39 1.39-.62 1.39-1.39-.62-1.39-1.39-1.39m3.12 0c-.77 0-1.39.62-1.39 1.39s.62 1.39 1.39 1.39 1.39-.62 1.39-1.39-.62-1.39-1.39-1.39m3.11 0c-.77 0-1.39.62-1.39 1.39s.62 1.39 1.39 1.39 1.39-.62 1.39-1.39-.62-1.39-1.39-1.39m3.12 0c-.77 0-1.39.62-1.39 1.39s.62 1.39 1.39 1.39 1.39-.62 1.39-1.39-.62-1.39-1.39-1.39m3.11 0c-.77 0-1.39.62-1.39 1.39s.62 1.39 1.39 1.39 1.39-.62 1.39-1.39-.62-1.39-1.39-1.39m3.12 0c-.77 0-1.39.62-1.39 1.39s.62 1.39 1.39 1.39 1.39-.62 1.39-1.39-.62-1.39-1.39-1.39m3.12 0c-.77 0-1.39.62-1.39 1.39s.62 1.39 1.39 1.39 1.39-.62 1.39-1.39-.62-1.39-1.39-1.39m3.11 0c-.77 0-1.39.62-1.39 1.39s.62 1.39 1.39 1.39 1.39-.62 1.39-1.39-.62-1.39-1.39-1.39m3.12 2.76c.76 0 1.37-.61 1.37-1.37s-.61-1.37-1.37-1.37-1.37.61-1.37 1.37.61 1.37 1.37 1.37m3.11-2.56c-.66 0-1.19.53-1.19 1.19s.53 1.19 1.19 1.19 1.19-.53 1.19-1.19-.53-1.19-1.19-1.19m3.12.47c-.39 0-.71.32-.71.71s.32.71.71.71.71-.32.71-.71-.32-.71-.71-.71m3.12.4c-.18 0-.32.14-.32.32s.14.32.32.32.32-.14.32-.32-.14-.32-.32-.32m3.11.13c-.1 0-.18.08-.18.18s.08.18.18.18.18-.08.18-.18-.08-.18-.18-.18"/><circle cx="53.26" cy="146.74" r=".19"/><path d="M56.38 146.38c-.2 0-.36.16-.36.36s.16.36.36.36.36-.16.36-.36-.16-.36-.36-.36m3.11-.41c-.43 0-.77.35-.77.77s.35.77.77.77.77-.35.77-.77-.35-.77-.77-.77"/><circle cx="62.61" cy="146.74" r="1.23"/><circle cx="65.73" cy="146.74" r="1.37"/><circle cx="71.96" cy="146.74" r="1.39" transform="rotate(-9.22 71.926 146.726)"/><circle cx="78.19" cy="146.74" r="1.39"/><circle cx="81.31" cy="146.74" r="1.39"/><path d="M84.42 145.35c-.77 0-1.39.62-1.39 1.39s.62 1.39 1.39 1.39 1.39-.62 1.39-1.39-.62-1.39-1.39-1.39m3.12 0c-.77 0-1.39.62-1.39 1.39s.62 1.39 1.39 1.39 1.39-.62 1.39-1.39-.62-1.39-1.39-1.39m3.11 0c-.77 0-1.39.62-1.39 1.39s.62 1.39 1.39 1.39 1.39-.62 1.39-1.39-.62-1.39-1.39-1.39"/><circle cx="93.77" cy="146.74" r="1.39"/><path d="M96.89 145.35c-.77 0-1.39.62-1.39 1.39s.62 1.39 1.39 1.39 1.39-.62 1.39-1.39-.62-1.39-1.39-1.39m3.11 0c-.77 0-1.39.62-1.39 1.39s.62 1.39 1.39 1.39 1.39-.62 1.39-1.39-.62-1.39-1.39-1.39m3.12 0c-.77 0-1.39.62-1.39 1.39s.62 1.39 1.39 1.39 1.39-.62 1.39-1.39-.62-1.39-1.39-1.39"/><circle cx="106.23" cy="146.74" r="1.39"/><circle cx="109.35" cy="146.74" r="1.39"/><path d="M112.47 145.35c-.77 0-1.39.62-1.39 1.39s.62 1.39 1.39 1.39 1.39-.62 1.39-1.39-.62-1.39-1.39-1.39"/><circle cx="118.7" cy="146.74" r="1.39"/><circle cx="121.81" cy="146.74" r="1.39"/><circle cx="124.93" cy="146.74" r="1.39"/><path d="M128.05 145.35c-.77 0-1.39.62-1.39 1.39s.62 1.39 1.39 1.39 1.39-.62 1.39-1.39-.62-1.39-1.39-1.39m3.11 0c-.77 0-1.39.62-1.39 1.39s.62 1.39 1.39 1.39 1.39-.62 1.39-1.39-.62-1.39-1.39-1.39"/><circle cx="134.28" cy="146.74" r="1.37"/><path d="M137.39 145.55c-.66 0-1.19.53-1.19 1.19s.53 1.19 1.19 1.19 1.19-.53 1.19-1.19-.53-1.19-1.19-1.19m3.12.48c-.39 0-.71.32-.71.71s.32.71.71.71.71-.32.71-.71-.32-.71-.71-.71"/><circle cx="143.63" cy="146.74" r=".32"/><path d="M146.74 146.56c-.1 0-.18.08-.18.18s.08.18.18.18.18-.08.18-.18-.08-.18-.18-.18"/><circle cx="53.26" cy="149.86" r=".19"/><path d="M56.38 149.5c-.2 0-.35.16-.35.35s.16.35.35.35.35-.16.35-.35-.16-.35-.35-.35"/><circle cx="65.73" cy="149.86" r="1.36"/><circle cx="68.84" cy="149.86" r="1.36" transform="rotate(-9.22 68.803 149.844)"/><circle cx="71.96" cy="149.86" r="1.36"/><circle cx="75.07" cy="149.86" r="1.36"/><path d="M78.19 148.49c-.75 0-1.36.61-1.36 1.36s.61 1.36 1.36 1.36 1.36-.61 1.36-1.36-.61-1.36-1.36-1.36m3.12 0c-.75 0-1.36.61-1.36 1.36s.61 1.36 1.36 1.36 1.36-.61 1.36-1.36-.61-1.36-1.36-1.36m3.11 0c-.75 0-1.36.61-1.36 1.36s.61 1.36 1.36 1.36 1.36-.61 1.36-1.36-.61-1.36-1.36-1.36"/><circle cx="87.54" cy="149.86" r="1.36"/><circle cx="93.77" cy="149.86" r="1.36"/><path d="M96.89 148.49c-.75 0-1.36.61-1.36 1.36s.61 1.36 1.36 1.36 1.36-.61 1.36-1.36-.61-1.36-1.36-1.36"/><circle cx="100" cy="149.86" r="1.36"/><path d="M103.12 148.49c-.75 0-1.36.61-1.36 1.36s.61 1.36 1.36 1.36 1.36-.61 1.36-1.36-.61-1.36-1.36-1.36m3.11 0c-.75 0-1.36.61-1.36 1.36s.61 1.36 1.36 1.36 1.36-.61 1.36-1.36-.61-1.36-1.36-1.36m3.12 0c-.75 0-1.36.61-1.36 1.36s.61 1.36 1.36 1.36 1.36-.61 1.36-1.36-.61-1.36-1.36-1.36m3.12 0c-.75 0-1.36.61-1.36 1.36s.61 1.36 1.36 1.36 1.36-.61 1.36-1.36-.61-1.36-1.36-1.36"/><circle cx="115.58" cy="149.86" r="1.36"/><path d="M118.7 148.49c-.75 0-1.36.61-1.36 1.36s.61 1.36 1.36 1.36 1.36-.61 1.36-1.36-.61-1.36-1.36-1.36m3.11 0c-.75 0-1.36.61-1.36 1.36s.61 1.36 1.36 1.36 1.36-.61 1.36-1.36-.61-1.36-1.36-1.36m3.12 0c-.75 0-1.36.61-1.36 1.36s.61 1.36 1.36 1.36 1.36-.61 1.36-1.36-.61-1.36-1.36-1.36"/><circle cx="131.16" cy="149.86" r="1.36"/><path d="M134.28 148.51c-.75 0-1.35.6-1.35 1.35s.6 1.35 1.35 1.35 1.35-.6 1.35-1.35-.6-1.35-1.35-1.35"/><circle cx="137.39" cy="149.86" r="1.17"/><path d="M140.51 149.16c-.39 0-.7.31-.7.7s.31.7.7.7.7-.31.7-.7-.31-.7-.7-.7"/><circle cx="53.26" cy="152.97" r=".18"/><path d="M56.38 152.65c-.18 0-.32.14-.32.32s.14.32.32.32.32-.14.32-.32-.14-.32-.32-.32m3.11-.33c-.36 0-.65.29-.65.65s.29.65.65.65.65-.29.65-.65-.29-.65-.65-.65m3.12-.36c-.56 0-1.02.46-1.02 1.02s.46 1.02 1.02 1.02 1.02-.46 1.02-1.02-.46-1.02-1.02-1.02"/><circle cx="65.73" cy="152.97" r="1.15" transform="rotate(-9.22 65.686 152.9)"/><circle cx="68.84" cy="152.97" r="1.15" transform="rotate(-13.28 68.866 152.982)"/><circle cx="71.96" cy="152.97" r="1.15" transform="rotate(-13.28 71.955 152.994)"/><circle cx="75.07" cy="152.97" r="1.15" transform="rotate(-76.72 75.064 152.972)"/><path d="M81.31 151.82c-.64 0-1.15.52-1.15 1.15s.52 1.15 1.15 1.15 1.15-.52 1.15-1.15-.52-1.15-1.15-1.15m3.11 0c-.64 0-1.15.52-1.15 1.15s.52 1.15 1.15 1.15 1.15-.52 1.15-1.15-.52-1.15-1.15-1.15"/><circle cx="87.54" cy="152.97" r="1.15"/><path d="M90.65 151.82c-.64 0-1.15.52-1.15 1.15s.52 1.15 1.15 1.15 1.15-.52 1.15-1.15-.52-1.15-1.15-1.15"/><circle cx="93.77" cy="152.97" r="1.15"/><path d="M96.89 151.82c-.64 0-1.15.52-1.15 1.15s.52 1.15 1.15 1.15 1.15-.52 1.15-1.15-.52-1.15-1.15-1.15m6.23 0c-.64 0-1.15.52-1.15 1.15s.52 1.15 1.15 1.15 1.15-.52 1.15-1.15-.52-1.15-1.15-1.15m3.11 0c-.64 0-1.15.52-1.15 1.15s.52 1.15 1.15 1.15 1.15-.52 1.15-1.15-.52-1.15-1.15-1.15m6.24 0c-.64 0-1.15.52-1.15 1.15s.52 1.15 1.15 1.15 1.15-.52 1.15-1.15-.52-1.15-1.15-1.15"/><circle cx="115.58" cy="152.97" r="1.15"/><path d="M118.7 151.82c-.64 0-1.15.52-1.15 1.15s.52 1.15 1.15 1.15 1.15-.52 1.15-1.15-.52-1.15-1.15-1.15m3.11 0c-.64 0-1.15.52-1.15 1.15s.52 1.15 1.15 1.15 1.15-.52 1.15-1.15-.52-1.15-1.15-1.15m3.12 0c-.64 0-1.15.52-1.15 1.15s.52 1.15 1.15 1.15 1.15-.52 1.15-1.15-.52-1.15-1.15-1.15m3.12 0c-.64 0-1.15.52-1.15 1.15s.52 1.15 1.15 1.15 1.15-.52 1.15-1.15-.52-1.15-1.15-1.15"/><circle cx="131.16" cy="152.97" r="1.15"/><circle cx="134.28" cy="152.97" r="1.15"/><path d="M137.39 151.98c-.55 0-1 .45-1 1s.45 1 1 1 1-.45 1-1-.45-1-1-1m3.12.38c-.34 0-.61.27-.61.61s.27.61.61.61.61-.27.61-.61-.27-.61-.61-.61m3.12.32c-.16 0-.3.13-.3.3s.13.3.3.3.3-.13.3-.3-.13-.3-.3-.3"/><circle cx="146.74" cy="152.97" r=".18"/><path d="M53.26 155.91c-.1 0-.18.08-.18.18s.08.18.18.18.18-.08.18-.18-.08-.18-.18-.18m6.23-.22c-.22 0-.4.18-.4.4s.18.4.4.4.4-.18.4-.4-.18-.4-.4-.4m3.12-.19a.591.591 0 1 0 .002 1.182.591.591 0 0 0-.002-1.182m3.12-.06c-.36 0-.65.29-.65.65s.29.65.65.65.65-.29.65-.65-.29-.65-.65-.65"/><circle cx="71.96" cy="156.09" r=".65"/><circle cx="78.19" cy="156.09" r=".65"/><path d="M81.31 155.44c-.36 0-.65.29-.65.65s.29.65.65.65.65-.29.65-.65-.29-.65-.65-.65m3.11 0c-.36 0-.65.29-.65.65s.29.65.65.65.65-.29.65-.65-.29-.65-.65-.65"/><circle cx="87.54" cy="156.09" r=".65"/><path d="M90.65 155.44c-.36 0-.65.29-.65.65s.29.65.65.65.65-.29.65-.65-.29-.65-.65-.65"/><circle cx="93.77" cy="156.09" r=".65"/><path d="M96.89 155.44c-.36 0-.65.29-.65.65s.29.65.65.65.65-.29.65-.65-.29-.65-.65-.65m6.23 0c-.36 0-.65.29-.65.65s.29.65.65.65.65-.29.65-.65-.29-.65-.65-.65m3.11 0c-.36 0-.65.29-.65.65s.29.65.65.65.65-.29.65-.65-.29-.65-.65-.65"/><circle cx="109.35" cy="156.09" r=".65"/><path d="M112.47 155.44c-.36 0-.65.29-.65.65s.29.65.65.65.65-.29.65-.65-.29-.65-.65-.65"/><circle cx="115.58" cy="156.09" r=".65"/><path d="M121.81 155.44c-.36 0-.65.29-.65.65s.29.65.65.65.65-.29.65-.65-.29-.65-.65-.65m3.12 0c-.36 0-.65.29-.65.65s.29.65.65.65.65-.29.65-.65-.29-.65-.65-.65m3.12 0c-.36 0-.65.29-.65.65s.29.65.65.65.65-.29.65-.65-.29-.65-.65-.65"/><circle cx="131.16" cy="156.09" r=".65"/><path d="M134.28 155.44c-.36 0-.65.29-.65.65s.29.65.65.65.65-.29.65-.65-.29-.65-.65-.65m3.11.08a.57.57 0 1 0 0 1.14.57.57 0 0 0 0-1.14m3.12.18c-.21 0-.39.17-.39.39s.17.39.39.39.39-.17.39-.39-.17-.39-.39-.39m3.12.16c-.13 0-.24.11-.24.24s.11.24.24.24.24-.11.24-.24-.11-.24-.24-.24m3.11.05c-.1 0-.18.08-.18.18s.08.18.18.18.18-.08.18-.18-.08-.18-.18-.18m-90.36 3.11c-.1 0-.19.08-.19.19s.08.19.19.19.19-.08.19-.19-.08-.19-.19-.19m3.11-.03c-.12 0-.22.1-.22.22s.1.22.22.22.22-.1.22-.22-.1-.22-.22-.22m3.12-.04c-.14 0-.25.11-.25.25s.11.25.25.25.25-.11.25-.25-.11-.25-.25-.25m3.12-.01c-.15 0-.27.12-.27.27s.12.27.27.27.27-.12.27-.27-.12-.27-.27-.27m3.11 0c-.15 0-.27.12-.27.27s.12.27.27.27.27-.12.27-.27-.12-.27-.27-.27m3.12 0c-.15 0-.27.12-.27.27s.12.27.27.27.27-.12.27-.27-.12-.27-.27-.27m3.11 0c-.15 0-.27.12-.27.27s.12.27.27.27.27-.12.27-.27-.12-.27-.27-.27m3.12 0c-.15 0-.27.12-.27.27s.12.27.27.27.27-.12.27-.27-.12-.27-.27-.27m3.12 0c-.15 0-.27.12-.27.27s.12.27.27.27.27-.12.27-.27-.12-.27-.27-.27m3.11 0c-.15 0-.27.12-.27.27s.12.27.27.27.27-.12.27-.27-.12-.27-.27-.27m6.23 0c-.15 0-.27.12-.27.27s.12.27.27.27.27-.12.27-.27-.12-.27-.27-.27m3.12 0c-.15 0-.27.12-.27.27s.12.27.27.27.27-.12.27-.27-.12-.27-.27-.27m3.12 0c-.15 0-.27.12-.27.27s.12.27.27.27.27-.12.27-.27-.12-.27-.27-.27m3.11 0c-.15 0-.27.12-.27.27s.12.27.27.27.27-.12.27-.27-.12-.27-.27-.27m3.12 0c-.15 0-.27.12-.27.27s.12.27.27.27.27-.12.27-.27-.12-.27-.27-.27m3.11 0c-.15 0-.27.12-.27.27s.12.27.27.27.27-.12.27-.27-.12-.27-.27-.27m3.12 0c-.15 0-.27.12-.27.27s.12.27.27.27.27-.12.27-.27-.12-.27-.27-.27m3.12 0c-.15 0-.27.12-.27.27s.12.27.27.27.27-.12.27-.27-.12-.27-.27-.27m3.11 0c-.15 0-.27.12-.27.27s.12.27.27.27.27-.12.27-.27-.12-.27-.27-.27m6.23 0c-.15 0-.27.12-.27.27s.12.27.27.27.27-.12.27-.27-.12-.27-.27-.27m3.12 0c-.15 0-.27.12-.27.27s.12.27.27.27.27-.12.27-.27-.12-.27-.27-.27m6.23 0c-.15 0-.27.12-.27.27s.12.27.27.27.27-.12.27-.27-.12-.27-.27-.27m3.12 0c-.15 0-.27.12-.27.27s.12.27.27.27.27-.12.27-.27-.12-.27-.27-.27m3.11.02c-.14 0-.24.11-.24.24s.11.24.24.24.24-.11.24-.24-.11-.24-.24-.24m3.12.03c-.12 0-.22.1-.22.22s.1.22.22.22.22-.1.22-.22-.1-.22-.22-.22m3.12.03c-.1 0-.19.08-.19.19s.08.19.19.19.19-.08.19-.19-.08-.19-.19-.19m-84.14 3.12c-.1 0-.18.08-.18.18s.08.18.18.18.18-.08.18-.18-.08-.18-.18-.18m3.12 0c-.1 0-.18.08-.18.18s.08.18.18.18.18-.08.18-.18-.08-.18-.18-.18m3.12 0c-.1 0-.18.08-.18.18s.08.18.18.18.18-.08.18-.18-.08-.18-.18-.18m3.11 0c-.1 0-.18.08-.18.18s.08.18.18.18.18-.08.18-.18-.08-.18-.18-.18m3.12 0c-.1 0-.18.08-.18.18s.08.18.18.18.18-.08.18-.18-.08-.18-.18-.18"/><circle cx="75.07" cy="162.32" r=".18"/><circle cx="78.19" cy="162.32" r=".18"/><circle cx="81.31" cy="162.32" r=".18"/><circle cx="84.42" cy="162.32" r=".18"/><path d="M87.54 162.14c-.1 0-.18.08-.18.18s.08.18.18.18.18-.08.18-.18-.08-.18-.18-.18m3.11 0c-.1 0-.18.08-.18.18s.08.18.18.18.18-.08.18-.18-.08-.18-.18-.18"/><circle cx="93.77" cy="162.32" r=".18"/><path d="M96.89 162.14c-.1 0-.18.08-.18.18s.08.18.18.18.18-.08.18-.18-.08-.18-.18-.18m6.23 0c-.1 0-.18.08-.18.18s.08.18.18.18.18-.08.18-.18-.08-.18-.18-.18m3.11 0c-.1 0-.18.08-.18.18s.08.18.18.18.18-.08.18-.18-.08-.18-.18-.18"/><circle cx="109.35" cy="162.32" r=".18"/><circle cx="112.47" cy="162.32" r=".18"/><path d="M115.58 162.14c-.1 0-.18.08-.18.18s.08.18.18.18.18-.08.18-.18-.08-.18-.18-.18"/><circle cx="118.7" cy="162.32" r=".18"/><circle cx="121.81" cy="162.32" r=".18"/><path d="M124.93 162.14c-.1 0-.18.08-.18.18s.08.18.18.18.18-.08.18-.18-.08-.18-.18-.18m3.12 0c-.1 0-.18.08-.18.18s.08.18.18.18.18-.08.18-.18-.08-.18-.18-.18"/><circle cx="131.16" cy="162.32" r=".18"/><circle cx="134.28" cy="162.32" r=".18"/><circle cx="137.39" cy="162.32" r=".18"/><path d="M140.51 162.14c-.1 0-.18.08-.18.18s.08.18.18.18.18-.08.18-.18-.08-.18-.18-.18"/></svg>