<svg xmlns="http://www.w3.org/2000/svg" data-name="&amp;apos;I&amp;apos; Bubble" viewBox="0 0 200 200"><ellipse cx="109.42" cy="94.36" rx="2.83" ry="2.87"/><path d="M126.88 123.99c-2.29 0-4.48.45-6.49 1.24.07-.28.12-.56.12-.86 0-2-1.63-3.62-3.62-3.62-1.54 0-2.85.97-3.38 2.34-.02-5.54-3.25-10.33-7.92-12.63.22.03.44.05.67.05 3.03 0 5.5-2.47 5.5-5.5s-2.47-5.5-5.5-5.5c-.21 0-.41.01-.61.04.25-.4.41-.88.41-1.39 0-1.44-1.16-2.62-2.59-2.62-.59 0-1.13.21-1.57.55-.18-.34-.36-.67-.58-.98 1.73-.75 2.95-2.47 2.95-4.47 0-.09-.02-.17-.03-.25.63.24 1.31.38 2.03.38 3.17 0 5.75-2.58 5.75-5.75s-2.58-5.75-5.75-5.75c-.34 0-.66.03-.98.09 4.39-1.96 7.5-6.28 7.71-11.34 3.09 3.51 7.61 5.75 12.65 5.75 9.3 0 16.88-7.57 16.88-16.88s-7.57-16.88-16.88-16.88-16.88 7.57-16.88 16.88c0 .36.03.7.05 1.05-1.2-1.11-2.6-1.99-4.14-2.58 1.21-.39 2.09-1.51 2.09-2.84 0-1.65-1.35-3-3-3s-3 1.35-3 3c0 .81.32 1.53.84 2.07-.52-.06-1.05-.11-1.59-.11-.65 0-1.29.06-1.92.16a6.35 6.35 0 0 0 1.42-4c0-3.52-2.86-6.38-6.38-6.38s-6.38 2.86-6.38 6.38c0 .09.01.19.01.28-2.17-5.78-7.74-9.9-14.26-9.9-8.41 0-15.25 6.84-15.25 15.25s6.84 15.25 15.25 15.25 15.25-6.84 15.25-15.25c0-.89-.09-1.76-.24-2.61.97 1.79 2.76 3.07 4.87 3.31-3.25 2.36-5.38 6.19-5.38 10.51 0 1.41.23 2.77.65 4.04-.8-.91-1.97-1.51-3.28-1.51-2.41 0-4.38 1.96-4.38 4.38s1.96 4.38 4.38 4.38 4.38-1.96 4.38-4.38c0-.17-.03-.34-.05-.51 1.9 3.34 5.24 5.76 9.17 6.41-1.46.13-2.62 1.35-2.62 2.85s1.2 2.77 2.71 2.86c-.79.24-1.5.66-2.07 1.24a4.119 4.119 0 0 0-8.14.9c0 1.37.68 2.58 1.72 3.34-3.64 1.46-6.22 5.01-6.22 9.16 0 5.43 4.41 9.85 9.83 9.87-4.63 2.32-7.83 7.1-7.83 12.63 0 7.24 5.47 13.21 12.5 14.02a11.3 11.3 0 0 0-4.57 2.42 4.73 4.73 0 0 0-4.43-3.06q-.465 0-.9.09c.09-.31.15-.63.15-.97 0-2-1.63-3.62-3.62-3.62s-3.62 1.63-3.62 3.62 1.63 3.62 3.62 3.62h.09a4.7 4.7 0 0 0-.46 2.01c0 .22.04.44.07.65A8.24 8.24 0 0 0 77 143.9c.24-.74.4-1.51.47-2.31.34.27.76.43 1.22.43 1.1 0 2-.9 2-2s-.9-2-2-2c-.54 0-1.02.22-1.38.56-.96-4.87-5.27-8.56-10.42-8.56-5.86 0-10.62 4.77-10.62 10.62 0 3.82 2.04 7.17 5.07 9.04-.8.69-1.32 1.7-1.32 2.83 0 2.07 1.68 3.75 3.75 3.75s3.75-1.68 3.75-3.75c0-.45-.09-.87-.24-1.27 2.84-.1 5.39-1.32 7.24-3.23-.16.64-.25 1.31-.25 2 0 4.55 3.7 8.25 8.25 8.25 3.57 0 6.61-2.28 7.75-5.46 1.78 3.96 5.76 6.73 10.37 6.73 5.25 0 9.66-3.57 10.97-8.41 3.14 5.17 8.8 8.65 15.28 8.65 9.86 0 17.88-8.02 17.88-17.88s-8.02-17.88-17.88-17.88Zm-11.03 3.84c-3.83 3.02-6.4 7.56-6.78 12.71-1.71-1.9-4.04-3.21-6.67-3.63 5.69-1.25 10.1-5.94 10.94-11.77a3.61 3.61 0 0 0 2.51 2.68ZM100 80.46c1.19 0 2.34-.17 3.44-.48-1.1.62-1.98 1.59-2.48 2.76a2.88 2.88 0 0 0-1.91-2.33c.31.02.63.05.94.05Zm.51 4.25c0 .09-.01.19-.01.28 0 .31.03.62.08.92-.39-.1-.79-.17-1.21-.17-.04 0-.07.01-.11.01.51-.22.94-.58 1.25-1.04m.47 21.86a5.5 5.5 0 0 0 2.14 2.94c-1.2-.33-2.45-.52-3.75-.52-.38 0-.76.03-1.14.06 1.06-.65 2-1.49 2.75-2.48"/></svg>