<svg xmlns="http://www.w3.org/2000/svg" data-name="&amp;apos;I&amp;apos; 3D" viewBox="0 0 200 200"><path d="M141.21 145.24c-.16-.48-.35-.95-.52-1.43-.21-.6-.41-1.2-.62-1.8-.14-.39-.3-.77-.44-1.16-.07-.19-.12-.38-.19-.56-.15-.4-.31-.8-.46-1.21-.13-.36-.23-.72-.36-1.08-.14-.4-.31-.79-.45-1.19-.08-.2-.12-.42-.2-.62-.14-.37-.3-.74-.43-1.11s-.24-.74-.37-1.11c-.14-.4-.31-.79-.45-1.19-.07-.2-.12-.41-.2-.6-.14-.38-.3-.76-.44-1.15-.08-.21-.13-.43-.21-.64l-.36-.99c-.15-.42-.3-.85-.45-1.27-.1-.27-.18-.55-.29-.82-.07-.15-.18-.28-.27-.43l-8.7 1.29c-.46.07-.92.13-1.38.2-.29.04-.58.09-.87.12-.45.06-.89.11-1.34.18-.42.06-.85.13-1.27.19s-.84.11-1.26.17l-.39.06c-.08-.36-.15-.73-.23-1.09-.16-.72-.32-1.44-.48-2.15-.15-.68-.3-1.36-.45-2.05l-.36-1.64c-.12-.56-.23-1.13-.35-1.69-.15-.65-.31-1.3-.45-1.96-.12-.55-.23-1.11-.35-1.66-.11-.53-.23-1.05-.35-1.58l-.54-2.56c-.09-.43-.21-.86-.3-1.3-.09-.43-.17-.87-.26-1.31-.14-.65-.3-1.3-.45-1.96-.14-.6-.26-1.2-.39-1.8-.19-.85-.37-1.71-.56-2.56-.18-.83-.35-1.66-.53-2.49-.11-.5-.24-.99-.35-1.48-.16-.72-.3-1.45-.45-2.18-.15-.71-.32-1.42-.47-2.13-.21-.97-.41-1.94-.61-2.91-.14-.64-.28-1.27-.43-1.91-.26-1.14-.53-2.27-.78-3.41-.25-1.15-.47-2.3-.72-3.44-.19-.86-.4-1.71-.59-2.57-.09-.42-.16-.84-.25-1.26l-.42-1.95c-.17-.78-.35-1.55-.52-2.33-.29-1.33-.57-2.66-.86-3.99-.19-.86-.41-1.7-.59-2.56-.15-.69-.29-1.38-.43-2.08l.4-.06c.32-.04.64-.09.96-.13.43-.06.85-.12 1.28-.17.41-.06.83-.11 1.24-.17l1.35-.18c.57-.08 1.13-.18 1.7-.26.4-.06.8-.1 1.21-.16.75-.1 1.49-.21 2.23-.31.69-.1 1.38-.21 2.06-.31l1.89-.27c.51-.07 1.02-.13 1.53-.2.33-.04.66-.09 1-.13.24-.03.48-.06.71-.1.11-.02.23-.04.32-.1.64-.4 1.28-.82 1.92-1.23 1.31-.84 2.62-1.67 3.93-2.51 1.42-.91 2.84-1.83 4.27-2.74.98-.62 1.96-1.23 2.94-1.85.9-.58 1.8-1.17 2.7-1.75.14-.09.16-.16.09-.32-.16-.37-.28-.76-.42-1.14-.09-.24-.19-.48-.29-.73-.15-.36-.3-.72-.44-1.09-.22-.57-.43-1.14-.65-1.71-.13-.34-.28-.68-.41-1.03l-.84-2.16c-.27-.69-.55-1.37-.82-2.06-.35-.91-.69-1.83-1.05-2.74-.26-.68-.54-1.36-.81-2.05-.13-.34-.23-.69-.36-1.03-.23-.62-.47-1.25-.72-1.87-.1-.25-.22-.49-.34-.74-.08 0-7.8 1.15-8.37 1.24-.6.09-1.21.17-1.81.26-.59.08-1.17.16-1.76.25-.5.07-.99.14-1.49.22-.69.1-1.37.22-2.05.32-.52.08-1.03.13-1.55.2l-1.07.15-1.01.15c-.41.06-.82.11-1.22.17-.38.06-.77.12-1.15.17l-1.05.15-.89.12-1.3.18c-.35.05-.69.12-1.04.17-.52.07-1.03.13-1.55.2-.59.08-1.18.17-1.77.26l-1.88.27-1.89.27c-.55.08-1.09.15-1.64.23-.38.05-.77.1-1.15.16-.46.07-.92.15-1.39.22l-1.24.18c-.43.06-.87.11-1.3.17l-1.26.18c-.27.04-.54.09-.81.13l-1.28.18-1.45.21-1.22.18c-.35.05-.69.12-1.03.16-.46.06-.93.09-1.39.16-.74.11-1.47.23-2.2.34-.41.06-.83.11-1.24.17-.49.07-.98.14-1.47.22l-1.04.15c-.36.05-.73.12-1.09.16s-.7.13-1 .32c-2.39 1.51-4.78 3.01-7.17 4.52-2.17 1.37-4.34 2.74-6.51 4.12-.54.34-1.07.69-1.6 1.04-.16.1-.33.19-.49.29.16.39.33.76.47 1.14.11.3.19.61.31.91.13.35.3.69.44 1.04.14.37.27.74.41 1.11.02.05.05.09.07.13.25.63.5 1.26.74 1.9.03.08.06.16.09.23.13.32.27.63.39.95.23.6.45 1.2.68 1.79.14.36.3.71.44 1.07.22.57.42 1.14.64 1.71.14.35.29.7.43 1.05.21.53.4 1.07.61 1.61.15.39.32.78.48 1.17.21.54.41 1.08.61 1.63.1.27.2.55.32.81.03.06.13.13.2.12.3-.03.6-.08.9-.13.42-.06.85-.11 1.27-.18.4-.06.79-.12 1.18-.18.24-.04.49-.05.73-.09.49-.07.97-.16 1.46-.23.44-.06.88-.1 1.32-.16.29-.04.59-.09.88-.13l1.3-.18.81-.12 1.01-.15c.46-.07.92-.13 1.38-.2.07.31.13.62.2.93.21.97.44 1.93.65 2.9.22.98.44 1.96.66 2.95.16.71.32 1.43.47 2.14.19.88.37 1.76.57 2.65.21.98.43 1.95.64 2.93.25 1.13.51 2.26.76 3.39.16.72.32 1.44.47 2.17.19.86.37 1.73.56 2.59.22.99.43 1.98.65 2.97.25 1.13.51 2.26.76 3.39.16.71.32 1.43.47 2.15.16.78.31 1.57.48 2.35.1.46.22.92.33 1.38.21.95.4 1.89.61 2.84s.44 1.9.65 2.85c.2.92.38 1.85.58 2.78.18.83.38 1.67.56 2.5.22 1 .44 2 .66 2.99.21.96.44 1.92.65 2.88.25 1.13.51 2.26.75 3.39.19.86.37 1.73.56 2.59.21.99.42 1.97.64 2.96.1.47.21.93.31 1.39-.33.05-.67.09-1 .14-.3.04-.6.1-.91.14-.36.05-.73.09-1.09.14-.47.07-.94.15-1.42.22-.53.08-1.05.14-1.58.21-.6.09-1.19.19-1.79.27-.76.11-1.52.22-2.29.32-.77.11-1.53.22-2.3.32-.34.05-.68.09-1.03.14-.48.07-.97.15-1.45.22-.45.07-.91.13-1.36.19l-1.32.18c-.41.06-.83.11-1.24.17-.43.06-.86.13-1.29.19-.34.05-.67.12-.96.32-.59.42-1.2.82-1.79 1.24-1 .7-1.99 1.4-2.99 2.09-1.24.86-2.48 1.72-3.71 2.58-1.44 1-2.88 1.99-4.31 2.99-.28.19-.54.42-.81.62-.38.2-.39.2-.25.59.13.37.28.74.42 1.11.15.4.3.81.44 1.21l.84 2.31c.13.37.25.74.38 1.11.26.73.52 1.45.79 2.18.24.66.5 1.31.74 1.97.19.51.35 1.02.54 1.53.11.3.24.59.35.88.14.38.25.77.38 1.15.22.63.46 1.26.69 1.89.22.59.43 1.19.65 1.78.07.2.14.41.21.62.13.35.26.41.63.35.71-.12 1.42-.21 2.13-.31.6-.09 1.2-.2 1.79-.28.53-.08 1.06-.13 1.59-.2.52-.07 1.03-.16 1.55-.23.37-.05.73-.09 1.1-.13.22-.03.45-.05.67-.08l1.68-.24c.68-.1 1.35-.22 2.03-.32.52-.08 1.04-.13 1.55-.2.61-.09 1.23-.19 1.84-.28.45-.06.91-.11 1.36-.17.4-.06.81-.13 1.21-.19.33-.05.67-.08 1-.13.51-.07 1.03-.15 1.54-.23.41-.06.82-.11 1.23-.17.65-.09 1.29-.19 1.94-.28.37-.05.74-.08 1.1-.13.28-.04.56-.09.84-.13.27-.04.54-.06.81-.1.53-.08 1.06-.17 1.59-.24.52-.07 1.04-.13 1.55-.2.61-.09 1.23-.19 1.84-.28.43-.06.87-.1 1.3-.16.52-.07 1.04-.16 1.56-.24.4-.06.81-.11 1.22-.17.44-.06.89-.14 1.33-.2s.88-.11 1.32-.17c.42-.06.84-.13 1.27-.19.26-.04.53-.05.79-.09.49-.07.99-.16 1.48-.23.35-.05.69-.08 1.04-.13.43-.06.86-.13 1.29-.19.33-.05.67-.09 1-.13.75-.11 1.5-.21 2.26-.32l2.3-.33c.73-.11 1.46-.22 2.19-.32.75-.11 1.5-.22 2.25-.32.59-.08 1.18-.13 1.77-.21.5-.07.99-.16 1.48-.23.41-.06.82-.11 1.23-.17.52-.07 1.03-.22 1.55-.22.59 0 .98-.34 1.4-.63 1.06-.72 2.1-1.46 3.14-2.19l4.33-3.04c1.21-.85 2.41-1.71 3.61-2.55.7-.49 1.4-.97 2.1-1.45.24-.16.26-.2.16-.48"/></svg>