<svg xmlns="http://www.w3.org/2000/svg" data-name="&amp;apos;I&amp;apos; Dots" viewBox="0 0 200 200"><path d="M59.67 37.68c0-.1-.08-.18-.18-.18s-.18.08-.18.18.08.18.18.18.18-.08.18-.18m6.24 0c0-.1-.08-.18-.18-.18s-.18.08-.18.18.08.18.18.18.18-.08.18-.18m3.12 0c0-.1-.08-.18-.18-.18s-.18.08-.18.18.08.18.18.18.18-.08.18-.18m6.23 0c0-.1-.08-.18-.18-.18s-.18.08-.18.18.08.18.18.18.18-.08.18-.18m6.23 0c0-.1-.08-.18-.18-.18s-.18.08-.18.18.08.18.18.18.18-.08.18-.18m3.12 0c0-.1-.08-.18-.18-.18s-.18.08-.18.18.08.18.18.18.18-.08.18-.18m3.11 0c0-.1-.08-.18-.18-.18s-.18.08-.18.18.08.18.18.18.18-.08.18-.18m3.12 0c0-.1-.08-.18-.18-.18s-.18.08-.18.18.08.18.18.18.18-.08.18-.18m3.11 0c0-.1-.08-.18-.18-.18s-.18.08-.18.18.08.18.18.18.18-.08.18-.18m6.24 0c0-.1-.08-.18-.18-.18s-.18.08-.18.18.08.18.18.18.18-.08.18-.18m9.34 0c0-.1-.08-.18-.18-.18s-.18.08-.18.18.08.18.18.18.18-.08.18-.18m3.12 0c0-.1-.08-.18-.18-.18s-.18.08-.18.18.08.18.18.18.18-.08.18-.18m3.11 0c0-.1-.08-.18-.18-.18s-.18.08-.18.18.08.18.18.18.18-.08.18-.18m6.24 0c0-.1-.08-.18-.18-.18s-.18.08-.18.18.08.18.18.18.18-.08.18-.18m6.23 0c0-.1-.08-.18-.18-.18s-.18.08-.18.18.08.18.18.18.18-.08.18-.18m3.11 0c0-.1-.08-.18-.18-.18s-.18.08-.18.18.08.18.18.18.18-.08.18-.18m6.24 0c0-.1-.08-.18-.18-.18s-.18.08-.18.18.08.18.18.18.18-.08.18-.18m3.11 0c0-.1-.08-.18-.18-.18s-.18.08-.18.18.08.18.18.18.18-.08.18-.18M56.57 40.8c0-.11-.09-.19-.19-.19s-.19.09-.19.19.09.19.19.19.19-.09.19-.19m3.16 0c0-.13-.11-.24-.24-.24s-.24.11-.24.24.11.24.24.24.24-.11.24-.24m3.16 0c0-.15-.12-.28-.28-.28s-.28.12-.28.28.12.28.28.28.28-.12.28-.28m3.13 0a.29.29 0 1 0-.58 0 .29.29 0 0 0 .58 0m3.12 0c0-.16-.13-.3-.3-.3s-.3.13-.3.3.13.3.3.3.3-.13.3-.3m3.12 0c0-.16-.13-.3-.3-.3s-.3.13-.3.3.13.3.3.3.3-.13.3-.3m3.11 0c0-.16-.13-.3-.3-.3s-.3.13-.3.3.13.3.3.3.3-.13.3-.3m6.23 0c0-.16-.13-.3-.3-.3s-.3.13-.3.3.13.3.3.3.3-.13.3-.3m3.12 0c0-.16-.13-.3-.3-.3s-.3.13-.3.3.13.3.3.3.3-.13.3-.3m6.23 0c0-.16-.13-.3-.3-.3s-.3.13-.3.3.13.3.3.3.3-.13.3-.3m3.12 0c0-.16-.13-.3-.3-.3s-.3.13-.3.3.13.3.3.3.3-.13.3-.3m3.11 0c0-.16-.13-.3-.3-.3s-.3.13-.3.3.13.3.3.3.3-.13.3-.3m3.12 0c0-.16-.13-.3-.3-.3s-.3.13-.3.3.13.3.3.3.3-.13.3-.3m3.12 0c0-.16-.13-.3-.3-.3s-.3.13-.3.3.13.3.3.3.3-.13.3-.3m3.11 0c0-.16-.13-.3-.3-.3s-.3.13-.3.3.13.3.3.3.3-.13.3-.3m3.12 0c0-.16-.13-.3-.3-.3s-.3.13-.3.3.13.3.3.3.3-.13.3-.3m3.11 0c0-.16-.13-.3-.3-.3s-.3.13-.3.3.13.3.3.3.3-.13.3-.3m3.12 0c0-.16-.13-.3-.3-.3s-.3.13-.3.3.13.3.3.3.3-.13.3-.3m3.12 0c0-.16-.13-.3-.3-.3s-.3.13-.3.3.13.3.3.3.3-.13.3-.3m3.11 0c0-.16-.13-.3-.3-.3s-.3.13-.3.3.13.3.3.3.3-.13.3-.3m3.12 0c0-.16-.13-.3-.3-.3s-.3.13-.3.3.13.3.3.3.3-.13.3-.3m3.11 0c0-.16-.13-.3-.3-.3s-.3.13-.3.3.13.3.3.3.3-.13.3-.3m3.12 0c0-.16-.13-.3-.3-.3s-.3.13-.3.3.13.3.3.3.3-.13.3-.3m3.11 0a.29.29 0 1 0-.58 0 .29.29 0 0 0 .58 0m3.1 0c0-.15-.12-.28-.28-.28s-.28.12-.28.28.12.28.28.28.28-.12.28-.28m3.07 0c0-.12-.1-.23-.23-.23s-.23.1-.23.23.1.23.23.23.23-.1.23-.23m3.07 0c0-.1-.08-.19-.19-.19s-.19.08-.19.19.08.19.19.19.19-.08.19-.19m-90.37 3.11c0-.1-.08-.18-.18-.18s-.18.08-.18.18.08.18.18.18.18-.08.18-.18m3.19 0c0-.14-.11-.25-.25-.25s-.25.11-.25.25.11.25.25.25.25-.11.25-.25m3.31 0c0-.25-.2-.44-.44-.44s-.44.2-.44.44.2.44.44.44.44-.2.44-.44m3.31 0c0-.35-.28-.64-.64-.64s-.64.28-.64.64.28.64.64.64.64-.28.64-.64m3.18 0c0-.39-.31-.7-.7-.7s-.7.31-.7.7.31.7.7.7.7-.31.7-.7m3.12 0c0-.39-.32-.71-.71-.71s-.71.32-.71.71.32.71.71.71.71-.32.71-.71m9.35 0c0-.39-.32-.71-.71-.71s-.71.32-.71.71.32.71.71.71.71-.32.71-.71m3.12 0c0-.39-.32-.71-.71-.71s-.71.32-.71.71.32.71.71.71.71-.32.71-.71m3.11 0c0-.39-.32-.71-.71-.71s-.71.32-.71.71.32.71.71.71.71-.32.71-.71m3.12 0c0-.39-.32-.71-.71-.71s-.71.32-.71.71.32.71.71.71.71-.32.71-.71m6.23 0c0-.39-.32-.71-.71-.71s-.71.32-.71.71.32.71.71.71.71-.32.71-.71m3.12 0c0-.39-.32-.71-.71-.71s-.71.32-.71.71.32.71.71.71.71-.32.71-.71m3.11 0c0-.39-.32-.71-.71-.71s-.71.32-.71.71.32.71.71.71.71-.32.71-.71m3.12 0c0-.39-.32-.71-.71-.71s-.71.32-.71.71.32.71.71.71.71-.32.71-.71m3.12 0c0-.39-.32-.71-.71-.71s-.71.32-.71.71.32.71.71.71.71-.32.71-.71m3.11 0c0-.39-.32-.71-.71-.71s-.71.32-.71.71.32.71.71.71.71-.32.71-.71m6.23 0c0-.39-.32-.71-.71-.71s-.71.32-.71.71.32.71.71.71.71-.32.71-.71m6.24 0c0-.39-.32-.71-.71-.71s-.71.32-.71.71.32.71.71.71.71-.32.71-.71m3.11 0c0-.39-.32-.71-.71-.71s-.71.32-.71.71.32.71.71.71.71-.32.71-.71m3.12 0c0-.39-.32-.71-.71-.71s-.71.32-.71.71.32.71.71.71.71-.32.71-.71m3.11 0c0-.39-.32-.71-.71-.71s-.71.32-.71.71.32.71.71.71.71-.32.71-.71m3.11 0c0-.39-.31-.7-.7-.7s-.7.31-.7.7.31.7.7.7.7-.31.7-.7m3.04 0c0-.35-.28-.63-.63-.63s-.63.28-.63.63.28.63.63.63.63-.28.63-.63m2.9 0c0-.22-.18-.41-.41-.41s-.41.18-.41.41.18.41.41.41.41-.18.41-.41m2.95 0c0-.13-.11-.24-.24-.24s-.24.11-.24.24.11.24.24.24.24-.11.24-.24m3.05 0c0-.1-.08-.18-.18-.18s-.18.08-.18.18.08.18.18.18.18-.08.18-.18M56.7 47.03c0-.18-.15-.33-.33-.33s-.33.15-.33.33.15.33.33.33.33-.15.33-.33m3.47 0a.67.67 0 1 0-1.34 0 .67.67 0 0 0 1.34 0m3.5 0c0-.59-.48-1.06-1.06-1.06s-1.06.48-1.06 1.06.48 1.06 1.06 1.06 1.06-.48 1.06-1.06m3.24 0c0-.65-.53-1.18-1.18-1.18s-1.18.53-1.18 1.18.53 1.18 1.18 1.18 1.18-.53 1.18-1.18m6.24 0c0-.66-.53-1.19-1.19-1.19s-1.19.53-1.19 1.19.53 1.19 1.19 1.19 1.19-.53 1.19-1.19m6.23 0c0-.66-.53-1.19-1.19-1.19S77 46.37 77 47.03s.53 1.19 1.19 1.19 1.19-.53 1.19-1.19m3.11 0c0-.66-.53-1.19-1.19-1.19s-1.19.53-1.19 1.19.53 1.19 1.19 1.19 1.19-.53 1.19-1.19m3.12 0c0-.66-.53-1.19-1.19-1.19s-1.19.53-1.19 1.19.53 1.19 1.19 1.19 1.19-.53 1.19-1.19m3.12 0c0-.66-.53-1.19-1.19-1.19s-1.19.53-1.19 1.19.53 1.19 1.19 1.19 1.19-.53 1.19-1.19m3.11 0c0-.66-.53-1.19-1.19-1.19s-1.19.53-1.19 1.19.53 1.19 1.19 1.19 1.19-.53 1.19-1.19m3.12 0c0-.66-.53-1.19-1.19-1.19s-1.19.53-1.19 1.19.53 1.19 1.19 1.19 1.19-.53 1.19-1.19m3.11 0c0-.66-.53-1.19-1.19-1.19s-1.19.53-1.19 1.19.53 1.19 1.19 1.19 1.19-.53 1.19-1.19m3.12 0c0-.66-.53-1.19-1.19-1.19s-1.19.53-1.19 1.19.53 1.19 1.19 1.19 1.19-.53 1.19-1.19m3.12 0c0-.66-.53-1.19-1.19-1.19s-1.19.53-1.19 1.19.53 1.19 1.19 1.19 1.19-.53 1.19-1.19m3.11 0c0-.66-.53-1.19-1.19-1.19s-1.19.53-1.19 1.19.53 1.19 1.19 1.19 1.19-.53 1.19-1.19m3.12 0c0-.66-.53-1.19-1.19-1.19s-1.19.53-1.19 1.19.53 1.19 1.19 1.19 1.19-.53 1.19-1.19m3.11 0c0-.66-.53-1.19-1.19-1.19s-1.19.53-1.19 1.19.53 1.19 1.19 1.19 1.19-.53 1.19-1.19m9.35 0c0-.66-.53-1.19-1.19-1.19s-1.19.53-1.19 1.19.53 1.19 1.19 1.19 1.19-.53 1.19-1.19m6.23 0c0-.66-.53-1.19-1.19-1.19s-1.19.53-1.19 1.19.53 1.19 1.19 1.19 1.19-.53 1.19-1.19m3.12 0c0-.66-.53-1.19-1.19-1.19s-1.19.53-1.19 1.19.53 1.19 1.19 1.19 1.19-.53 1.19-1.19m6.07 0c0-.57-.46-1.03-1.03-1.03s-1.03.46-1.03 1.03.46 1.03 1.03 1.03 1.03-.46 1.03-1.03m2.72 0c0-.35-.28-.63-.63-.63s-.63.28-.63.63.28.63.63.63.63-.28.63-.63m2.79 0c0-.17-.14-.3-.3-.3s-.3.14-.3.3.14.3.3.3.3-.14.3-.3m-90.48 3.12c0-.1-.08-.19-.19-.19s-.19.08-.19.19.08.19.19.19.19-.08.19-.19m6.81 0a.77.77 0 1 0-1.54 0 .77.77 0 0 0 1.54 0m3.57 0c0-.67-.54-1.22-1.22-1.22s-1.22.54-1.22 1.22.54 1.22 1.22 1.22 1.22-.54 1.22-1.22m3.26 0c0-.75-.61-1.36-1.36-1.36s-1.36.61-1.36 1.36.61 1.36 1.36 1.36 1.36-.61 1.36-1.36m3.13 0c0-.76-.62-1.37-1.37-1.37s-1.37.62-1.37 1.37.62 1.37 1.37 1.37 1.37-.62 1.37-1.37m3.11 0c0-.76-.62-1.37-1.37-1.37s-1.37.62-1.37 1.37.62 1.37 1.37 1.37 1.37-.62 1.37-1.37m3.12 0c0-.76-.62-1.37-1.37-1.37s-1.37.62-1.37 1.37.62 1.37 1.37 1.37 1.37-.62 1.37-1.37m3.11 0c0-.76-.62-1.37-1.37-1.37s-1.37.62-1.37 1.37.62 1.37 1.37 1.37 1.37-.62 1.37-1.37m6.24 0c0-.76-.62-1.37-1.37-1.37s-1.37.62-1.37 1.37.62 1.37 1.37 1.37 1.37-.62 1.37-1.37m6.23 0c0-.76-.62-1.37-1.37-1.37s-1.37.62-1.37 1.37.62 1.37 1.37 1.37 1.37-.62 1.37-1.37m3.11 0c0-.76-.62-1.37-1.37-1.37s-1.37.62-1.37 1.37.62 1.37 1.37 1.37 1.37-.62 1.37-1.37m3.12 0c0-.76-.62-1.37-1.37-1.37s-1.37.62-1.37 1.37.62 1.37 1.37 1.37 1.37-.62 1.37-1.37m3.12 0c0-.76-.62-1.37-1.37-1.37s-1.37.62-1.37 1.37.62 1.37 1.37 1.37 1.37-.62 1.37-1.37m3.11 0c0-.76-.62-1.37-1.37-1.37s-1.37.62-1.37 1.37.62 1.37 1.37 1.37 1.37-.62 1.37-1.37m6.23 0c0-.76-.62-1.37-1.37-1.37s-1.37.62-1.37 1.37.62 1.37 1.37 1.37 1.37-.62 1.37-1.37m3.12 0c0-.76-.62-1.37-1.37-1.37s-1.37.62-1.37 1.37.62 1.37 1.37 1.37 1.37-.62 1.37-1.37m3.12 0c0-.76-.62-1.37-1.37-1.37s-1.37.62-1.37 1.37.62 1.37 1.37 1.37 1.37-.62 1.37-1.37m3.11 0c0-.76-.62-1.37-1.37-1.37s-1.37.62-1.37 1.37.62 1.37 1.37 1.37 1.37-.62 1.37-1.37m6.23 0c0-.76-.62-1.37-1.37-1.37s-1.37.62-1.37 1.37.62 1.37 1.37 1.37 1.37-.62 1.37-1.37m3.12 0c0-.76-.62-1.37-1.37-1.37s-1.37.62-1.37 1.37.62 1.37 1.37 1.37 1.37-.62 1.37-1.37m3.12 0c0-.76-.62-1.37-1.37-1.37s-1.37.62-1.37 1.37.62 1.37 1.37 1.37 1.37-.62 1.37-1.37m3.09 0c0-.75-.61-1.36-1.36-1.36s-1.36.61-1.36 1.36.61 1.36 1.36 1.36 1.36-.61 1.36-1.36m5.58 0c0-.39-.31-.7-.7-.7s-.7.31-.7.7.31.7.7.7.7-.31.7-.7m2.74 0c0-.18-.14-.32-.32-.32s-.32.14-.32.32.14.32.32.32.32-.14.32-.32m-90.5 3.11c0-.1-.08-.19-.19-.19s-.19.08-.19.19.08.19.19.19.19-.08.19-.19m3.29 0c0-.2-.16-.36-.36-.36s-.36.16-.36.36.16.36.36.36.36-.16.36-.36m3.53 0c0-.43-.35-.77-.77-.77s-.77.35-.77.77.35.77.77.77.77-.35.77-.77m3.57 0a1.23 1.23 0 1 0-2.46 0 1.23 1.23 0 1 0 2.46 0m3.26 0c0-.76-.62-1.37-1.37-1.37s-1.37.62-1.37 1.37.62 1.37 1.37 1.37 1.37-.62 1.37-1.37m3.13 0c0-.77-.62-1.39-1.39-1.39s-1.39.62-1.39 1.39.62 1.39 1.39 1.39 1.39-.62 1.39-1.39m6.23 0c0-.77-.62-1.39-1.39-1.39s-1.39.62-1.39 1.39.62 1.39 1.39 1.39 1.39-.62 1.39-1.39m6.23 0c0-.77-.62-1.39-1.39-1.39s-1.39.62-1.39 1.39.62 1.39 1.39 1.39 1.39-.62 1.39-1.39m3.12 0c0-.77-.62-1.39-1.39-1.39s-1.39.62-1.39 1.39.62 1.39 1.39 1.39 1.39-.62 1.39-1.39m3.12 0c0-.77-.62-1.39-1.39-1.39s-1.39.62-1.39 1.39.62 1.39 1.39 1.39 1.39-.62 1.39-1.39m3.11 0c0-.77-.62-1.39-1.39-1.39s-1.39.62-1.39 1.39.62 1.39 1.39 1.39 1.39-.62 1.39-1.39m3.12 0c0-.77-.62-1.39-1.39-1.39s-1.39.62-1.39 1.39.62 1.39 1.39 1.39 1.39-.62 1.39-1.39m3.11 0c0-.77-.62-1.39-1.39-1.39s-1.39.62-1.39 1.39.62 1.39 1.39 1.39 1.39-.62 1.39-1.39m3.12 0c0-.77-.62-1.39-1.39-1.39s-1.39.62-1.39 1.39.62 1.39 1.39 1.39 1.39-.62 1.39-1.39m3.12 0c0-.77-.62-1.39-1.39-1.39s-1.39.62-1.39 1.39.62 1.39 1.39 1.39 1.39-.62 1.39-1.39m3.11 0c0-.77-.62-1.39-1.39-1.39s-1.39.62-1.39 1.39.62 1.39 1.39 1.39 1.39-.62 1.39-1.39m6.23 0c0-.77-.62-1.39-1.39-1.39s-1.39.62-1.39 1.39.62 1.39 1.39 1.39 1.39-.62 1.39-1.39m3.12 0c0-.77-.62-1.39-1.39-1.39s-1.39.62-1.39 1.39.62 1.39 1.39 1.39 1.39-.62 1.39-1.39m3.12 0c0-.77-.62-1.39-1.39-1.39s-1.39.62-1.39 1.39.62 1.39 1.39 1.39 1.39-.62 1.39-1.39m3.11 0c0-.77-.62-1.39-1.39-1.39s-1.39.62-1.39 1.39.62 1.39 1.39 1.39 1.39-.62 1.39-1.39m3.12 0c0-.77-.62-1.39-1.39-1.39s-1.39.62-1.39 1.39.62 1.39 1.39 1.39 1.39-.62 1.39-1.39m3.11 0c0-.77-.62-1.39-1.39-1.39s-1.39.62-1.39 1.39.62 1.39 1.39 1.39 1.39-.62 1.39-1.39m3.12 0c0-.77-.62-1.39-1.39-1.39s-1.39.62-1.39 1.39.62 1.39 1.39 1.39 1.39-.62 1.39-1.39m3.1 0c0-.76-.62-1.37-1.37-1.37s-1.37.62-1.37 1.37.62 1.37 1.37 1.37 1.37-.62 1.37-1.37m2.93 0c0-.66-.53-1.19-1.19-1.19s-1.19.53-1.19 1.19.53 1.19 1.19 1.19 1.19-.53 1.19-1.19m2.64 0c0-.39-.32-.71-.71-.71s-.71.32-.71.71.32.71.71.71.71-.32.71-.71m2.73 0c0-.18-.14-.32-.32-.32s-.32.14-.32.32.14.32.32.32.32-.14.32-.32m2.97 0c0-.1-.08-.18-.18-.18s-.18.08-.18.18.08.18.18.18.18-.08.18-.18m-93.47 3.12c0-.1-.08-.19-.19-.19s-.19.08-.19.19.08.19.19.19.19-.08.19-.19m3.29 0c0-.2-.16-.36-.36-.36s-.36.16-.36.36.16.36.36.36.36-.16.36-.36m7.1 0a1.23 1.23 0 1 0-2.46 0 1.23 1.23 0 1 0 2.46 0m6.39 0c0-.77-.62-1.39-1.39-1.39s-1.39.62-1.39 1.39.62 1.39 1.39 1.39 1.39-.62 1.39-1.39m3.12 0c0-.77-.62-1.39-1.39-1.39s-1.39.62-1.39 1.39.62 1.39 1.39 1.39 1.39-.62 1.39-1.39m3.11 0c0-.77-.62-1.39-1.39-1.39s-1.39.62-1.39 1.39.62 1.39 1.39 1.39 1.39-.62 1.39-1.39m6.23 0c0-.77-.62-1.39-1.39-1.39s-1.39.62-1.39 1.39.62 1.39 1.39 1.39 1.39-.62 1.39-1.39m3.12 0c0-.77-.62-1.39-1.39-1.39s-1.39.62-1.39 1.39.62 1.39 1.39 1.39 1.39-.62 1.39-1.39m3.12 0c0-.77-.62-1.39-1.39-1.39s-1.39.62-1.39 1.39.62 1.39 1.39 1.39 1.39-.62 1.39-1.39m6.23 0c0-.77-.62-1.39-1.39-1.39s-1.39.62-1.39 1.39.62 1.39 1.39 1.39 1.39-.62 1.39-1.39m3.11 0c0-.77-.62-1.39-1.39-1.39s-1.39.62-1.39 1.39.62 1.39 1.39 1.39 1.39-.62 1.39-1.39m3.12 0c0-.77-.62-1.39-1.39-1.39s-1.39.62-1.39 1.39.62 1.39 1.39 1.39 1.39-.62 1.39-1.39m3.12 0c0-.77-.62-1.39-1.39-1.39s-1.39.62-1.39 1.39.62 1.39 1.39 1.39 1.39-.62 1.39-1.39m3.11 0c0-.77-.62-1.39-1.39-1.39s-1.39.62-1.39 1.39.62 1.39 1.39 1.39 1.39-.62 1.39-1.39m3.12 0c0-.77-.62-1.39-1.39-1.39s-1.39.62-1.39 1.39.62 1.39 1.39 1.39 1.39-.62 1.39-1.39m3.11 0c0-.77-.62-1.39-1.39-1.39s-1.39.62-1.39 1.39.62 1.39 1.39 1.39 1.39-.62 1.39-1.39m3.12 0c0-.77-.62-1.39-1.39-1.39s-1.39.62-1.39 1.39.62 1.39 1.39 1.39 1.39-.62 1.39-1.39m3.12 0c0-.77-.62-1.39-1.39-1.39s-1.39.62-1.39 1.39.62 1.39 1.39 1.39 1.39-.62 1.39-1.39m3.11 0c0-.77-.62-1.39-1.39-1.39s-1.39.62-1.39 1.39.62 1.39 1.39 1.39 1.39-.62 1.39-1.39m3.12 0c0-.77-.62-1.39-1.39-1.39s-1.39.62-1.39 1.39.62 1.39 1.39 1.39 1.39-.62 1.39-1.39m6.23 0c0-.77-.62-1.39-1.39-1.39s-1.39.62-1.39 1.39.62 1.39 1.39 1.39 1.39-.62 1.39-1.39m6.03 0c0-.66-.53-1.19-1.19-1.19s-1.19.53-1.19 1.19.53 1.19 1.19 1.19 1.19-.53 1.19-1.19m5.37 0c0-.18-.14-.32-.32-.32s-.32.14-.32.32.14.32.32.32.32-.14.32-.32m2.97 0c0-.1-.08-.18-.18-.18s-.18.08-.18.18.08.18.18.18.18-.08.18-.18m-90.19 3.11c0-.19-.16-.35-.35-.35s-.35.16-.35.35.16.35.35.35.35-.16.35-.35m3.52 0a.749.749 0 1 0-1.498-.002.749.749 0 0 0 1.498.002m6.82 0a1.34 1.34 0 1 0-2.68 0 1.34 1.34 0 0 0 2.68 0m6.24 0c0-.75-.6-1.35-1.35-1.35s-1.35.6-1.35 1.35.6 1.35 1.35 1.35 1.35-.6 1.35-1.35m3.11 0c0-.75-.6-1.35-1.35-1.35s-1.35.6-1.35 1.35.6 1.35 1.35 1.35 1.35-.6 1.35-1.35m3.12 0c0-.75-.6-1.35-1.35-1.35s-1.35.6-1.35 1.35.6 1.35 1.35 1.35 1.35-.6 1.35-1.35m3.12 0c0-.75-.6-1.35-1.35-1.35s-1.35.6-1.35 1.35.6 1.35 1.35 1.35 1.35-.6 1.35-1.35m6.24 0c0-.75-.61-1.36-1.36-1.36s-1.36.61-1.36 1.36.61 1.36 1.36 1.36 1.36-.61 1.36-1.36m3.13 0c0-.76-.62-1.37-1.37-1.37s-1.37.62-1.37 1.37.62 1.37 1.37 1.37 1.37-.62 1.37-1.37m3.12 0c0-.76-.62-1.38-1.38-1.38s-1.38.62-1.38 1.38.62 1.38 1.38 1.38 1.38-.62 1.38-1.38m3.12 0c0-.77-.62-1.39-1.39-1.39s-1.39.62-1.39 1.39.62 1.39 1.39 1.39 1.39-.62 1.39-1.39m6.24 0c0-.77-.62-1.39-1.39-1.39s-1.39.62-1.39 1.39.62 1.39 1.39 1.39 1.39-.62 1.39-1.39m3.11 0c0-.76-.62-1.38-1.38-1.38s-1.38.62-1.38 1.38.62 1.38 1.38 1.38 1.38-.62 1.38-1.38m3.1 0c0-.76-.62-1.37-1.37-1.37s-1.37.62-1.37 1.37.62 1.37 1.37 1.37 1.37-.62 1.37-1.37m3.11 0c0-.75-.61-1.36-1.36-1.36s-1.36.61-1.36 1.36.61 1.36 1.36 1.36 1.36-.61 1.36-1.36m6.22 0c0-.75-.6-1.35-1.35-1.35s-1.35.6-1.35 1.35.6 1.35 1.35 1.35 1.35-.6 1.35-1.35m3.11 0c0-.75-.6-1.35-1.35-1.35s-1.35.6-1.35 1.35.6 1.35 1.35 1.35 1.35-.6 1.35-1.35m3.12 0c0-.75-.6-1.35-1.35-1.35s-1.35.6-1.35 1.35.6 1.35 1.35 1.35 1.35-.6 1.35-1.35m3.12 0c0-.75-.6-1.35-1.35-1.35s-1.35.6-1.35 1.35.6 1.35 1.35 1.35 1.35-.6 1.35-1.35m3.11 0c0-.75-.6-1.35-1.35-1.35s-1.35.6-1.35 1.35.6 1.35 1.35 1.35 1.35-.6 1.35-1.35m3.1 0a1.34 1.34 0 1 0-2.68 0 1.34 1.34 0 0 0 2.68 0m2.94 0a1.16 1.16 0 1 0-2.322.002 1.16 1.16 0 0 0 2.322-.002m2.66 0c0-.39-.31-.7-.7-.7s-.7.31-.7.7.31.7.7.7.7-.31.7-.7m2.74 0c0-.18-.14-.32-.32-.32s-.32.14-.32.32.14.32.32.32.32-.14.32-.32m-90.5 3.12c0-.1-.08-.18-.18-.18s-.18.08-.18.18.08.18.18.18.18-.08.18-.18m3.24 0c0-.17-.14-.31-.31-.31s-.31.14-.31.31.14.31.31.31.31-.14.31-.31m3.43 0c0-.35-.28-.63-.63-.63s-.63.28-.63.63.28.63.63.63.63-.28.63-.63m6.69 0c0-.6-.48-1.08-1.08-1.08s-1.08.48-1.08 1.08.48 1.08 1.08 1.08 1.08-.48 1.08-1.08m3.12 0c0-.6-.49-1.09-1.09-1.09s-1.09.49-1.09 1.09.49 1.09 1.09 1.09 1.09-.49 1.09-1.09m3.12 0c0-.6-.49-1.09-1.09-1.09s-1.09.49-1.09 1.09.49 1.09 1.09 1.09 1.09-.49 1.09-1.09m6.23 0c0-.6-.49-1.09-1.09-1.09s-1.09.49-1.09 1.09.49 1.09 1.09 1.09 1.09-.49 1.09-1.09m3.11 0c0-.6-.49-1.09-1.09-1.09s-1.09.49-1.09 1.09.49 1.09 1.09 1.09 1.09-.49 1.09-1.09m3.13 0c0-.61-.49-1.1-1.1-1.1s-1.1.49-1.1 1.1.49 1.1 1.1 1.1 1.1-.49 1.1-1.1m3.17 0c0-.64-.52-1.15-1.15-1.15s-1.15.52-1.15 1.15.52 1.15 1.15 1.15 1.15-.52 1.15-1.15m3.25 0c0-.71-.58-1.29-1.29-1.29s-1.29.58-1.29 1.29.58 1.29 1.29 1.29 1.29-.58 1.29-1.29m6.33 0c0-.77-.62-1.39-1.39-1.39s-1.39.62-1.39 1.39.62 1.39 1.39 1.39 1.39-.62 1.39-1.39m3.12 0c0-.77-.62-1.39-1.39-1.39s-1.39.62-1.39 1.39S99.23 64 100 64s1.39-.62 1.39-1.39m3.12 0c0-.77-.62-1.39-1.39-1.39s-1.39.62-1.39 1.39.62 1.39 1.39 1.39 1.39-.62 1.39-1.39m3.08 0c0-.75-.61-1.36-1.36-1.36s-1.36.61-1.36 1.36.61 1.36 1.36 1.36 1.36-.61 1.36-1.36m3.03 0c0-.7-.57-1.27-1.27-1.27s-1.27.57-1.27 1.27.57 1.27 1.27 1.27 1.27-.57 1.27-1.27m2.99 0a1.15 1.15 0 1 0-2.3 0 1.15 1.15 0 0 0 2.3 0m3.07 0c0-.6-.49-1.09-1.09-1.09s-1.09.49-1.09 1.09.49 1.09 1.09 1.09 1.09-.49 1.09-1.09m3.11 0c0-.6-.49-1.09-1.09-1.09s-1.09.49-1.09 1.09.49 1.09 1.09 1.09 1.09-.49 1.09-1.09m6.23 0c0-.6-.49-1.09-1.09-1.09s-1.09.49-1.09 1.09.49 1.09 1.09 1.09 1.09-.49 1.09-1.09m3.11 0c0-.6-.49-1.09-1.09-1.09s-1.09.49-1.09 1.09.49 1.09 1.09 1.09 1.09-.49 1.09-1.09m9.2 0a.939.939 0 1 0-1.88 0 .939.939 0 1 0 1.88 0m2.75 0a.57.57 0 1 0-1.14 0 .57.57 0 0 0 1.14 0m2.83 0a.29.29 0 1 0-.58 0 .29.29 0 0 0 .58 0m3.01 0c0-.1-.08-.18-.18-.18s-.18.08-.18.18.08.18.18.18.18-.08.18-.18m-93.48 3.12c0-.1-.08-.18-.18-.18s-.18.08-.18.18.08.18.18.18.18-.08.18-.18m3.17 0c0-.13-.11-.24-.24-.24s-.24.11-.24.24.11.24.24.24.24-.11.24-.24m3.26 0a.37.37 0 1 0-.738-.002.37.37 0 0 0 .738.002m3.26 0c0-.29-.23-.52-.52-.52s-.52.23-.52.52.23.52.52.52.52-.23.52-.52m3.17 0c0-.31-.25-.57-.57-.57s-.57.25-.57.57.25.57.57.57.57-.25.57-.57m3.12 0a.57.57 0 1 0-1.14 0 .57.57 0 0 0 1.14 0m3.11 0a.57.57 0 1 0-1.14 0 .57.57 0 0 0 1.14 0m3.12 0a.57.57 0 1 0-1.14 0 .57.57 0 0 0 1.14 0m3.11 0a.57.57 0 1 0-1.14 0 .57.57 0 0 0 1.14 0m3.12 0a.57.57 0 1 0-1.14 0 .57.57 0 0 0 1.14 0m3.14 0c0-.33-.27-.6-.6-.6s-.6.27-.6.6.27.6.6.6.6-.27.6-.6m3.28 0a.76.76 0 1 0-1.52 0 .76.76 0 0 0 1.52 0m3.46 0c0-.61-.49-1.1-1.1-1.1s-1.1.49-1.1 1.1.49 1.1 1.1 1.1 1.1-.49 1.1-1.1m3.33 0c0-.73-.59-1.32-1.32-1.32s-1.32.59-1.32 1.32.59 1.32 1.32 1.32 1.32-.59 1.32-1.32m3.18 0c0-.76-.62-1.38-1.38-1.38s-1.38.62-1.38 1.38.62 1.38 1.38 1.38 1.38-.62 1.38-1.38m3.12 0c0-.77-.62-1.39-1.39-1.39s-1.39.62-1.39 1.39.62 1.39 1.39 1.39 1.39-.62 1.39-1.39m3.11 0c0-.76-.62-1.38-1.38-1.38s-1.38.62-1.38 1.38.62 1.38 1.38 1.38 1.38-.62 1.38-1.38m3.04 0c0-.72-.59-1.31-1.31-1.31s-1.31.59-1.31 1.31.59 1.31 1.31 1.31 1.31-.59 1.31-1.31m2.87 0c0-.59-.48-1.06-1.06-1.06s-1.06.48-1.06 1.06.48 1.06 1.06 1.06 1.06-.48 1.06-1.06m2.78 0c0-.4-.33-.73-.73-.73s-.73.33-.73.73.33.73.73.73.73-.33.73-.73m6.08 0a.57.57 0 1 0-1.14 0 .57.57 0 0 0 1.14 0m3.12 0a.57.57 0 1 0-1.14 0 .57.57 0 0 0 1.14 0m3.11 0a.57.57 0 1 0-1.14 0 .57.57 0 0 0 1.14 0m3.12 0a.57.57 0 1 0-1.14 0 .57.57 0 0 0 1.14 0m3.12 0a.57.57 0 1 0-1.14 0 .57.57 0 0 0 1.14 0m3.11 0c0-.31-.25-.57-.57-.57s-.57.25-.57.57.25.57.57.57.57-.25.57-.57m3.06 0c0-.28-.23-.51-.51-.51s-.51.23-.51.51.23.51.51.51.51-.23.51-.51m2.95 0c0-.19-.16-.35-.35-.35s-.35.16-.35.35.16.35.35.35.35-.16.35-.35m2.99 0c0-.12-.1-.23-.23-.23s-.23.1-.23.23.1.23.23.23.23-.1.23-.23m3.07 0c0-.1-.08-.18-.18-.18s-.18.08-.18.18.08.18.18.18.18-.08.18-.18m-90.36 3.11c0-.1-.08-.18-.18-.18s-.18.08-.18.18.08.18.18.18.18-.08.18-.18m3.14 0c0-.11-.09-.21-.21-.21s-.21.09-.21.21.09.21.21.21.21-.09.21-.21m6.26 0c0-.13-.11-.24-.24-.24s-.24.11-.24.24.11.24.24.24.24-.11.24-.24m3.12 0c0-.13-.11-.24-.24-.24s-.24.11-.24.24.11.24.24.24.24-.11.24-.24m6.23 0c0-.13-.11-.24-.24-.24s-.24.11-.24.24.11.24.24.24.24-.11.24-.24m3.12 0c0-.13-.11-.24-.24-.24s-.24.11-.24.24.11.24.24.24.24-.11.24-.24m3.12 0c0-.13-.11-.24-.24-.24s-.24.11-.24.24.11.24.24.24.24-.11.24-.24m3.14 0c0-.15-.12-.27-.27-.27s-.27.12-.27.27.12.27.27.27.27-.12.27-.27m3.35 0c0-.28-.22-.5-.5-.5s-.5.22-.5.5.22.5.5.5.5-.22.5-.5m3.6 0c0-.55-.44-.99-.99-.99s-.99.44-.99.99.44.99.99.99.99-.44.99-.99m3.43 0c0-.72-.58-1.3-1.3-1.3s-1.3.58-1.3 1.3.58 1.3 1.3 1.3 1.3-.58 1.3-1.3m3.2 0c0-.76-.62-1.38-1.38-1.38s-1.38.62-1.38 1.38.62 1.38 1.38 1.38 1.38-.62 1.38-1.38m3.12 0c0-.77-.62-1.39-1.39-1.39s-1.39.62-1.39 1.39.62 1.39 1.39 1.39 1.39-.62 1.39-1.39m3.11 0c0-.76-.62-1.38-1.38-1.38s-1.38.62-1.38 1.38.62 1.38 1.38 1.38 1.38-.62 1.38-1.38m5.79 0a.939.939 0 1 0-1.88 0 .939.939 0 1 0 1.88 0m2.64 0c0-.25-.21-.46-.46-.46s-.46.21-.46.46.21.46.46.46.46-.21.46-.46m2.91 0c0-.14-.12-.26-.26-.26s-.26.12-.26.26.12.26.26.26.26-.12.26-.26m3.1 0c0-.13-.11-.24-.24-.24s-.24.11-.24.24.11.24.24.24.24-.11.24-.24m3.11 0c0-.13-.11-.24-.24-.24s-.24.11-.24.24.11.24.24.24.24-.11.24-.24m3.12 0c0-.13-.11-.24-.24-.24s-.24.11-.24.24.11.24.24.24.24-.11.24-.24m3.11 0c0-.13-.11-.24-.24-.24s-.24.11-.24.24.11.24.24.24.24-.11.24-.24m6.23 0c0-.13-.11-.24-.24-.24s-.24.11-.24.24.11.24.24.24.24-.11.24-.24m3.11 0c0-.12-.1-.23-.23-.23s-.23.1-.23.23.1.23.23.23.23-.1.23-.23m6.19 0c0-.1-.08-.18-.18-.18s-.18.08-.18.18.08.18.18.18.18-.08.18-.18m-84.14 3.12c0-.1-.08-.17-.17-.17s-.17.08-.17.17.08.17.17.17.17-.08.17-.17m3.11 0c0-.1-.08-.17-.17-.17s-.17.08-.17.17.08.17.17.17.17-.08.17-.17m3.12 0c0-.1-.08-.17-.17-.17s-.17.08-.17.17.08.17.17.17.17-.08.17-.17m3.12 0c0-.1-.08-.17-.17-.17s-.17.08-.17.17.08.17.17.17.17-.08.17-.17m3.11 0c0-.1-.08-.17-.17-.17s-.17.08-.17.17.08.17.17.17.17-.08.17-.17m6.23 0c0-.1-.08-.17-.17-.17s-.17.08-.17.17.08.17.17.17.17-.08.17-.17m3.12 0c0-.1-.08-.17-.17-.17s-.17.08-.17.17.08.17.17.17.17-.08.17-.17m3.15 0c0-.11-.09-.21-.21-.21s-.21.09-.21.21.09.21.21.21.21-.09.21-.21m3.36 0c0-.25-.2-.45-.45-.45s-.45.2-.45.45.2.45.45.45.45-.2.45-.45m3.63 0a.96.96 0 1 0-1.92 0 .96.96 0 0 0 1.92 0m3.44 0c0-.71-.58-1.29-1.29-1.29s-1.29.58-1.29 1.29.58 1.29 1.29 1.29 1.29-.58 1.29-1.29m3.21 0c0-.76-.62-1.38-1.38-1.38s-1.38.62-1.38 1.38.62 1.38 1.38 1.38 1.38-.62 1.38-1.38m3.12 0c0-.77-.62-1.39-1.39-1.39s-1.39.62-1.39 1.39.62 1.39 1.39 1.39 1.39-.62 1.39-1.39m3.11 0c0-.76-.62-1.38-1.38-1.38s-1.38.62-1.38 1.38.62 1.38 1.38 1.38 1.38-.62 1.38-1.38m3 0c0-.7-.57-1.26-1.26-1.26s-1.26.57-1.26 1.26.57 1.26 1.26 1.26 1.26-.57 1.26-1.26m2.76 0c0-.5-.41-.91-.91-.91s-.91.41-.91.91.41.91.91.91.91-.41.91-.91m5.52 0c0-.11-.09-.2-.2-.2s-.2.09-.2.2.09.2.2.2.2-.09.2-.2m3.09 0c0-.1-.08-.17-.17-.17s-.17.08-.17.17.08.17.17.17.17-.08.17-.17m3.12 0c0-.1-.08-.17-.17-.17s-.17.08-.17.17.08.17.17.17.17-.08.17-.17m6.23 0c0-.1-.08-.17-.17-.17s-.17.08-.17.17.08.17.17.17.17-.08.17-.17m3.12 0c0-.1-.08-.17-.17-.17s-.17.08-.17.17.08.17.17.17.17-.08.17-.17m3.11 0c0-.1-.08-.17-.17-.17s-.17.08-.17.17.08.17.17.17.17-.08.17-.17m6.23 0c0-.1-.08-.17-.17-.17s-.17.08-.17.17.08.17.17.17.17-.08.17-.17m-56.05 3.11c0-.11-.09-.21-.21-.21s-.21.09-.21.21.09.21.21.21.21-.09.21-.21m3.36 0c0-.25-.2-.45-.45-.45s-.45.2-.45.45.2.45.45.45.45-.2.45-.45m3.63 0a.96.96 0 1 0-1.92 0 .96.96 0 0 0 1.92 0m3.44 0c0-.71-.58-1.29-1.29-1.29s-1.29.58-1.29 1.29.58 1.29 1.29 1.29 1.29-.58 1.29-1.29m3.21 0c0-.76-.62-1.38-1.38-1.38s-1.38.62-1.38 1.38.62 1.38 1.38 1.38 1.38-.62 1.38-1.38m3.12 0c0-.77-.62-1.39-1.39-1.39s-1.39.62-1.39 1.39.62 1.39 1.39 1.39 1.39-.62 1.39-1.39m3.11 0c0-.76-.62-1.38-1.38-1.38s-1.38.62-1.38 1.38.62 1.38 1.38 1.38 1.38-.62 1.38-1.38m3 0c0-.7-.57-1.26-1.26-1.26s-1.26.57-1.26 1.26.57 1.26 1.26 1.26 1.26-.57 1.26-1.26m8.28 0c0-.11-.09-.2-.2-.2s-.2.09-.2.2.09.2.2.2.2-.09.2-.2m-34.3 3.12c0-.1-.08-.17-.17-.17s-.17.08-.17.17.08.17.17.17.17-.08.17-.17m3.15 0c0-.11-.09-.21-.21-.21s-.21.09-.21.21.09.21.21.21.21-.09.21-.21m3.36 0c0-.25-.2-.45-.45-.45s-.45.2-.45.45.2.45.45.45.45-.2.45-.45m3.63 0a.96.96 0 1 0-1.92 0 .96.96 0 0 0 1.92 0m3.44 0c0-.71-.58-1.29-1.29-1.29s-1.29.58-1.29 1.29.58 1.29 1.29 1.29 1.29-.58 1.29-1.29m3.21 0c0-.76-.62-1.38-1.38-1.38s-1.38.62-1.38 1.38.62 1.38 1.38 1.38 1.38-.62 1.38-1.38m3.12 0c0-.77-.62-1.39-1.39-1.39s-1.39.62-1.39 1.39.62 1.39 1.39 1.39 1.39-.62 1.39-1.39m3.11 0c0-.76-.62-1.38-1.38-1.38s-1.38.62-1.38 1.38.62 1.38 1.38 1.38 1.38-.62 1.38-1.38m3 0c0-.7-.57-1.26-1.26-1.26s-1.26.57-1.26 1.26.57 1.26 1.26 1.26 1.26-.57 1.26-1.26m2.76 0c0-.5-.41-.91-.91-.91s-.91.41-.91.91.41.91.91.91.91-.41.91-.91m2.62 0c0-.23-.18-.41-.41-.41s-.41.18-.41.41.18.41.41.41.41-.18.41-.41m2.9 0c0-.11-.09-.2-.2-.2s-.2.09-.2.2.09.2.2.2.2-.09.2-.2m3.09 0c0-.1-.08-.17-.17-.17s-.17.08-.17.17.08.17.17.17.17-.08.17-.17m-37.39 3.12c0-.1-.08-.17-.17-.17s-.17.08-.17.17.08.17.17.17.17-.08.17-.17m3.15 0c0-.11-.09-.21-.21-.21s-.21.09-.21.21.09.21.21.21.21-.09.21-.21m3.36 0c0-.25-.2-.45-.45-.45s-.45.2-.45.45.2.45.45.45.45-.2.45-.45m3.63 0a.96.96 0 1 0-1.92 0 .96.96 0 0 0 1.92 0m3.44 0c0-.71-.58-1.29-1.29-1.29s-1.29.58-1.29 1.29.58 1.29 1.29 1.29 1.29-.58 1.29-1.29m6.33 0c0-.77-.62-1.39-1.39-1.39s-1.39.62-1.39 1.39.62 1.39 1.39 1.39 1.39-.62 1.39-1.39m3.11 0c0-.76-.62-1.38-1.38-1.38s-1.38.62-1.38 1.38.62 1.38 1.38 1.38 1.38-.62 1.38-1.38m3 0c0-.7-.57-1.26-1.26-1.26s-1.26.57-1.26 1.26.57 1.26 1.26 1.26 1.26-.57 1.26-1.26m2.76 0c0-.5-.41-.91-.91-.91s-.91.41-.91.91.41.91.91.91.91-.41.91-.91m2.62 0c0-.23-.18-.41-.41-.41s-.41.18-.41.41.18.41.41.41.41-.18.41-.41m2.9 0c0-.11-.09-.2-.2-.2s-.2.09-.2.2.09.2.2.2.2-.09.2-.2m3.09 0c0-.1-.08-.17-.17-.17s-.17.08-.17.17.08.17.17.17.17-.08.17-.17m-37.39 3.11c0-.1-.08-.17-.17-.17s-.17.08-.17.17.08.17.17.17.17-.08.17-.17m3.15 0c0-.11-.09-.21-.21-.21s-.21.09-.21.21.09.21.21.21.21-.09.21-.21m3.36 0c0-.25-.2-.45-.45-.45s-.45.2-.45.45.2.45.45.45.45-.2.45-.45m3.63 0a.96.96 0 1 0-1.92 0 .96.96 0 0 0 1.92 0m3.44 0c0-.71-.58-1.29-1.29-1.29s-1.29.58-1.29 1.29.58 1.29 1.29 1.29 1.29-.58 1.29-1.29m3.21 0c0-.76-.62-1.38-1.38-1.38s-1.38.62-1.38 1.38.62 1.38 1.38 1.38 1.38-.62 1.38-1.38m3.12 0c0-.77-.62-1.39-1.39-1.39s-1.39.62-1.39 1.39.62 1.39 1.39 1.39 1.39-.62 1.39-1.39m3.11 0c0-.76-.62-1.38-1.38-1.38s-1.38.62-1.38 1.38.62 1.38 1.38 1.38 1.38-.62 1.38-1.38m3 0c0-.7-.57-1.26-1.26-1.26s-1.26.57-1.26 1.26.57 1.26 1.26 1.26 1.26-.57 1.26-1.26m2.76 0c0-.5-.41-.91-.91-.91s-.91.41-.91.91.41.91.91.91.91-.41.91-.91m2.62 0c0-.23-.18-.41-.41-.41s-.41.18-.41.41.18.41.41.41.41-.18.41-.41m2.9 0c0-.11-.09-.2-.2-.2s-.2.09-.2.2.09.2.2.2.2-.09.2-.2m3.09 0c0-.1-.08-.17-.17-.17s-.17.08-.17.17.08.17.17.17.17-.08.17-.17m-37.39 3.12c0-.1-.08-.17-.17-.17s-.17.08-.17.17.08.17.17.17.17-.08.17-.17m3.15 0c0-.11-.09-.21-.21-.21s-.21.09-.21.21.09.21.21.21.21-.09.21-.21m3.36 0c0-.25-.2-.45-.45-.45s-.45.2-.45.45.2.45.45.45.45-.2.45-.45m3.63 0a.96.96 0 1 0-1.92 0 .96.96 0 0 0 1.92 0m3.44 0c0-.71-.58-1.29-1.29-1.29s-1.29.58-1.29 1.29.58 1.29 1.29 1.29 1.29-.58 1.29-1.29m3.21 0c0-.76-.62-1.38-1.38-1.38s-1.38.62-1.38 1.38.62 1.38 1.38 1.38 1.38-.62 1.38-1.38m3.12 0c0-.77-.62-1.39-1.39-1.39s-1.39.62-1.39 1.39.62 1.39 1.39 1.39 1.39-.62 1.39-1.39m3.11 0c0-.76-.62-1.38-1.38-1.38s-1.38.62-1.38 1.38.62 1.38 1.38 1.38 1.38-.62 1.38-1.38m3 0c0-.7-.57-1.26-1.26-1.26s-1.26.57-1.26 1.26.57 1.26 1.26 1.26 1.26-.57 1.26-1.26m2.76 0c0-.5-.41-.91-.91-.91s-.91.41-.91.91.41.91.91.91.91-.41.91-.91m2.62 0c0-.23-.18-.41-.41-.41s-.41.18-.41.41.18.41.41.41.41-.18.41-.41m5.99 0c0-.1-.08-.17-.17-.17s-.17.08-.17.17.08.17.17.17.17-.08.17-.17m-34.24 3.11c0-.11-.09-.21-.21-.21s-.21.09-.21.21.09.21.21.21.21-.09.21-.21m3.36 0c0-.25-.2-.45-.45-.45s-.45.2-.45.45.2.45.45.45.45-.2.45-.45m3.63 0a.96.96 0 1 0-1.92 0 .96.96 0 0 0 1.92 0m3.44 0c0-.71-.58-1.29-1.29-1.29s-1.29.58-1.29 1.29.58 1.29 1.29 1.29 1.29-.58 1.29-1.29m3.21 0c0-.76-.62-1.38-1.38-1.38s-1.38.62-1.38 1.38.62 1.38 1.38 1.38 1.38-.62 1.38-1.38m3.12 0c0-.77-.62-1.39-1.39-1.39s-1.39.62-1.39 1.39.62 1.39 1.39 1.39 1.39-.62 1.39-1.39m3.11 0c0-.76-.62-1.38-1.38-1.38s-1.38.62-1.38 1.38.62 1.38 1.38 1.38 1.38-.62 1.38-1.38m3 0c0-.7-.57-1.26-1.26-1.26s-1.26.57-1.26 1.26.57 1.26 1.26 1.26 1.26-.57 1.26-1.26m5.38 0c0-.23-.18-.41-.41-.41s-.41.18-.41.41.18.41.41.41.41-.18.41-.41m2.9 0c0-.11-.09-.2-.2-.2s-.2.09-.2.2.09.2.2.2.2-.09.2-.2m3.09 0c0-.1-.08-.17-.17-.17s-.17.08-.17.17.08.17.17.17.17-.08.17-.17m-34.24 3.12c0-.11-.09-.21-.21-.21s-.21.09-.21.21.09.21.21.21.21-.09.21-.21m3.36 0c0-.25-.2-.45-.45-.45s-.45.2-.45.45.2.45.45.45.45-.2.45-.45m7.07 0c0-.71-.58-1.29-1.29-1.29s-1.29.58-1.29 1.29.58 1.29 1.29 1.29 1.29-.58 1.29-1.29m3.21 0c0-.76-.62-1.38-1.38-1.38s-1.38.62-1.38 1.38.62 1.38 1.38 1.38 1.38-.62 1.38-1.38m3.12 0c0-.77-.62-1.39-1.39-1.39s-1.39.62-1.39 1.39.62 1.39 1.39 1.39 1.39-.62 1.39-1.39m6.11 0c0-.7-.57-1.26-1.26-1.26s-1.26.57-1.26 1.26.57 1.26 1.26 1.26 1.26-.57 1.26-1.26m2.76 0c0-.5-.41-.91-.91-.91s-.91.41-.91.91.41.91.91.91.91-.41.91-.91m2.62 0c0-.23-.18-.41-.41-.41s-.41.18-.41.41.18.41.41.41.41-.18.41-.41m2.9 0c0-.11-.09-.2-.2-.2s-.2.09-.2.2.09.2.2.2.2-.09.2-.2m3.09 0c0-.1-.08-.17-.17-.17s-.17.08-.17.17.08.17.17.17.17-.08.17-.17m-37.39 3.12c0-.1-.08-.17-.17-.17s-.17.08-.17.17.08.17.17.17.17-.08.17-.17m3.15 0c0-.11-.09-.21-.21-.21s-.21.09-.21.21.09.21.21.21.21-.09.21-.21m3.36 0c0-.25-.2-.45-.45-.45s-.45.2-.45.45.2.45.45.45.45-.2.45-.45m3.63 0a.96.96 0 1 0-1.92 0 .96.96 0 0 0 1.92 0m3.44 0c0-.71-.58-1.29-1.29-1.29s-1.29.58-1.29 1.29.58 1.29 1.29 1.29 1.29-.58 1.29-1.29m6.33 0c0-.77-.62-1.39-1.39-1.39s-1.39.62-1.39 1.39.62 1.39 1.39 1.39 1.39-.62 1.39-1.39m3.11 0c0-.76-.62-1.38-1.38-1.38s-1.38.62-1.38 1.38.62 1.38 1.38 1.38 1.38-.62 1.38-1.38m3 0c0-.7-.57-1.26-1.26-1.26s-1.26.57-1.26 1.26.57 1.26 1.26 1.26 1.26-.57 1.26-1.26m2.76 0c0-.5-.41-.91-.91-.91s-.91.41-.91.91.41.91.91.91.91-.41.91-.91m5.52 0c0-.11-.09-.2-.2-.2s-.2.09-.2.2.09.2.2.2.2-.09.2-.2M81.48 100c0-.1-.08-.17-.17-.17s-.17.08-.17.17.08.17.17.17.17-.08.17-.17m3.15 0c0-.11-.09-.21-.21-.21s-.21.09-.21.21.09.21.21.21.21-.09.21-.21m3.36 0c0-.25-.2-.45-.45-.45s-.45.2-.45.45.2.45.45.45.45-.2.45-.45m3.63 0a.96.96 0 1 0-1.92 0 .96.96 0 0 0 1.92 0m3.44 0c0-.71-.58-1.29-1.29-1.29s-1.29.58-1.29 1.29.58 1.29 1.29 1.29 1.29-.58 1.29-1.29m3.21 0c0-.76-.62-1.38-1.38-1.38s-1.38.62-1.38 1.38.62 1.38 1.38 1.38 1.38-.62 1.38-1.38m3.12 0c0-.77-.62-1.39-1.39-1.39s-1.39.62-1.39 1.39.62 1.39 1.39 1.39 1.39-.62 1.39-1.39m3.11 0c0-.76-.62-1.38-1.38-1.38s-1.38.62-1.38 1.38.62 1.38 1.38 1.38 1.38-.62 1.38-1.38m3 0c0-.7-.57-1.26-1.26-1.26s-1.26.57-1.26 1.26.57 1.26 1.26 1.26 1.26-.57 1.26-1.26m2.76 0c0-.5-.41-.91-.91-.91s-.91.41-.91.91.41.91.91.91.91-.41.91-.91m2.62 0c0-.23-.18-.41-.41-.41s-.41.18-.41.41.18.41.41.41.41-.18.41-.41m2.9 0c0-.11-.09-.2-.2-.2s-.2.09-.2.2.09.2.2.2.2-.09.2-.2m3.09 0c0-.1-.08-.17-.17-.17s-.17.08-.17.17.08.17.17.17.17-.08.17-.17m-34.24 3.12c0-.11-.09-.21-.21-.21s-.21.09-.21.21.09.21.21.21.21-.09.21-.21m3.36 0c0-.25-.2-.45-.45-.45s-.45.2-.45.45.2.45.45.45.45-.2.45-.45m7.07 0c0-.71-.58-1.29-1.29-1.29s-1.29.58-1.29 1.29.58 1.29 1.29 1.29 1.29-.58 1.29-1.29m3.21 0c0-.76-.62-1.38-1.38-1.38s-1.38.62-1.38 1.38.62 1.38 1.38 1.38 1.38-.62 1.38-1.38m3.12 0c0-.77-.62-1.39-1.39-1.39s-1.39.62-1.39 1.39.62 1.39 1.39 1.39 1.39-.62 1.39-1.39m3.11 0c0-.76-.62-1.38-1.38-1.38s-1.38.62-1.38 1.38.62 1.38 1.38 1.38 1.38-.62 1.38-1.38m3 0c0-.7-.57-1.26-1.26-1.26s-1.26.57-1.26 1.26.57 1.26 1.26 1.26 1.26-.57 1.26-1.26m2.76 0c0-.5-.41-.91-.91-.91s-.91.41-.91.91.41.91.91.91.91-.41.91-.91m2.62 0c0-.23-.18-.41-.41-.41s-.41.18-.41.41.18.41.41.41.41-.18.41-.41m2.9 0c0-.11-.09-.2-.2-.2s-.2.09-.2.2.09.2.2.2.2-.09.2-.2m3.09 0c0-.1-.08-.17-.17-.17s-.17.08-.17.17.08.17.17.17.17-.08.17-.17m-34.24 3.11c0-.11-.09-.21-.21-.21s-.21.09-.21.21.09.21.21.21.21-.09.21-.21m3.36 0c0-.25-.2-.45-.45-.45s-.45.2-.45.45.2.45.45.45.45-.2.45-.45m7.07 0c0-.71-.58-1.29-1.29-1.29s-1.29.58-1.29 1.29.58 1.29 1.29 1.29 1.29-.58 1.29-1.29m3.21 0c0-.76-.62-1.38-1.38-1.38s-1.38.62-1.38 1.38.62 1.38 1.38 1.38 1.38-.62 1.38-1.38m3.12 0c0-.77-.62-1.39-1.39-1.39s-1.39.62-1.39 1.39.62 1.39 1.39 1.39 1.39-.62 1.39-1.39m3.11 0c0-.76-.62-1.38-1.38-1.38s-1.38.62-1.38 1.38.62 1.38 1.38 1.38 1.38-.62 1.38-1.38m3 0c0-.7-.57-1.26-1.26-1.26s-1.26.57-1.26 1.26.57 1.26 1.26 1.26 1.26-.57 1.26-1.26m5.38 0c0-.23-.18-.41-.41-.41s-.41.18-.41.41.18.41.41.41.41-.18.41-.41m2.9 0c0-.11-.09-.2-.2-.2s-.2.09-.2.2.09.2.2.2.2-.09.2-.2m-34.3 3.12c0-.1-.08-.17-.17-.17s-.17.08-.17.17.08.17.17.17.17-.08.17-.17m6.51 0c0-.25-.2-.45-.45-.45s-.45.2-.45.45.2.45.45.45.45-.2.45-.45m3.63 0a.96.96 0 1 0-1.92 0 .96.96 0 0 0 1.92 0m3.44 0c0-.71-.58-1.29-1.29-1.29s-1.29.58-1.29 1.29.58 1.29 1.29 1.29 1.29-.58 1.29-1.29m3.21 0c0-.76-.62-1.38-1.38-1.38s-1.38.62-1.38 1.38.62 1.38 1.38 1.38 1.38-.62 1.38-1.38m3.12 0c0-.77-.62-1.39-1.39-1.39s-1.39.62-1.39 1.39.62 1.39 1.39 1.39 1.39-.62 1.39-1.39m3.11 0c0-.76-.62-1.38-1.38-1.38s-1.38.62-1.38 1.38.62 1.38 1.38 1.38 1.38-.62 1.38-1.38m3 0c0-.7-.57-1.26-1.26-1.26s-1.26.57-1.26 1.26.57 1.26 1.26 1.26 1.26-.57 1.26-1.26m2.76 0c0-.5-.41-.91-.91-.91s-.91.41-.91.91.41.91.91.91.91-.41.91-.91m2.62 0c0-.23-.18-.41-.41-.41s-.41.18-.41.41.18.41.41.41.41-.18.41-.41m2.9 0c0-.11-.09-.2-.2-.2s-.2.09-.2.2.09.2.2.2.2-.09.2-.2m-34.3 3.12c0-.1-.08-.17-.17-.17s-.17.08-.17.17.08.17.17.17.17-.08.17-.17m3.15 0c0-.11-.09-.21-.21-.21s-.21.09-.21.21.09.21.21.21.21-.09.21-.21m3.36 0c0-.25-.2-.45-.45-.45s-.45.2-.45.45.2.45.45.45.45-.2.45-.45m7.07 0c0-.71-.58-1.29-1.29-1.29s-1.29.58-1.29 1.29.58 1.29 1.29 1.29 1.29-.58 1.29-1.29m3.21 0c0-.76-.62-1.38-1.38-1.38s-1.38.62-1.38 1.38.62 1.38 1.38 1.38 1.38-.62 1.38-1.38m3.12 0c0-.77-.62-1.39-1.39-1.39s-1.39.62-1.39 1.39.62 1.39 1.39 1.39 1.39-.62 1.39-1.39m3.11 0c0-.76-.62-1.38-1.38-1.38s-1.38.62-1.38 1.38.62 1.38 1.38 1.38 1.38-.62 1.38-1.38m3 0c0-.7-.57-1.26-1.26-1.26s-1.26.57-1.26 1.26.57 1.26 1.26 1.26 1.26-.57 1.26-1.26m2.76 0c0-.5-.41-.91-.91-.91s-.91.41-.91.91.41.91.91.91.91-.41.91-.91m2.62 0c0-.23-.18-.41-.41-.41s-.41.18-.41.41.18.41.41.41.41-.18.41-.41m2.9 0c0-.11-.09-.2-.2-.2s-.2.09-.2.2.09.2.2.2.2-.09.2-.2m3.09 0c0-.1-.08-.17-.17-.17s-.17.08-.17.17.08.17.17.17.17-.08.17-.17m-37.39 3.11c0-.1-.08-.17-.17-.17s-.17.08-.17.17.08.17.17.17.17-.08.17-.17m3.15 0c0-.11-.09-.21-.21-.21s-.21.09-.21.21.09.21.21.21.21-.09.21-.21m3.36 0c0-.25-.2-.45-.45-.45s-.45.2-.45.45.2.45.45.45.45-.2.45-.45m3.63 0a.96.96 0 1 0-1.92 0 .96.96 0 0 0 1.92 0m3.44 0c0-.71-.58-1.29-1.29-1.29s-1.29.58-1.29 1.29.58 1.29 1.29 1.29 1.29-.58 1.29-1.29m3.21 0c0-.76-.62-1.38-1.38-1.38s-1.38.62-1.38 1.38.62 1.38 1.38 1.38 1.38-.62 1.38-1.38m3.12 0c0-.77-.62-1.39-1.39-1.39s-1.39.62-1.39 1.39.62 1.39 1.39 1.39 1.39-.62 1.39-1.39m3.11 0c0-.76-.62-1.38-1.38-1.38s-1.38.62-1.38 1.38.62 1.38 1.38 1.38 1.38-.62 1.38-1.38m3 0c0-.7-.57-1.26-1.26-1.26s-1.26.57-1.26 1.26.57 1.26 1.26 1.26 1.26-.57 1.26-1.26m5.38 0c0-.23-.18-.41-.41-.41s-.41.18-.41.41.18.41.41.41.41-.18.41-.41m5.99 0c0-.1-.08-.17-.17-.17s-.17.08-.17.17.08.17.17.17.17-.08.17-.17m-34.24 3.12c0-.11-.09-.21-.21-.21s-.21.09-.21.21.09.21.21.21.21-.09.21-.21m3.36 0c0-.25-.2-.45-.45-.45s-.45.2-.45.45.2.45.45.45.45-.2.45-.45m3.63 0a.96.96 0 1 0-1.92 0 .96.96 0 0 0 1.92 0m3.44 0c0-.71-.58-1.29-1.29-1.29s-1.29.58-1.29 1.29.58 1.29 1.29 1.29 1.29-.58 1.29-1.29m3.21 0c0-.76-.62-1.38-1.38-1.38s-1.38.62-1.38 1.38.62 1.38 1.38 1.38 1.38-.62 1.38-1.38m3.12 0c0-.77-.62-1.39-1.39-1.39s-1.39.62-1.39 1.39.62 1.39 1.39 1.39 1.39-.62 1.39-1.39m3.11 0c0-.76-.62-1.38-1.38-1.38s-1.38.62-1.38 1.38.62 1.38 1.38 1.38 1.38-.62 1.38-1.38m3 0c0-.7-.57-1.26-1.26-1.26s-1.26.57-1.26 1.26.57 1.26 1.26 1.26 1.26-.57 1.26-1.26m2.76 0c0-.5-.41-.91-.91-.91s-.91.41-.91.91.41.91.91.91.91-.41.91-.91m2.62 0c0-.23-.18-.41-.41-.41s-.41.18-.41.41.18.41.41.41.41-.18.41-.41m2.9 0c0-.11-.09-.2-.2-.2s-.2.09-.2.2.09.2.2.2.2-.09.2-.2m3.09 0c0-.1-.08-.17-.17-.17s-.17.08-.17.17.08.17.17.17.17-.08.17-.17m-37.39 3.11c0-.1-.08-.17-.17-.17s-.17.08-.17.17.08.17.17.17.17-.08.17-.17m3.15 0c0-.11-.09-.21-.21-.21s-.21.09-.21.21.09.21.21.21.21-.09.21-.21m6.99 0a.96.96 0 1 0-1.92 0 .96.96 0 0 0 1.92 0m3.44 0c0-.71-.58-1.29-1.29-1.29s-1.29.58-1.29 1.29.58 1.29 1.29 1.29 1.29-.58 1.29-1.29m3.21 0c0-.76-.62-1.38-1.38-1.38s-1.38.62-1.38 1.38.62 1.38 1.38 1.38 1.38-.62 1.38-1.38m3.12 0c0-.77-.62-1.39-1.39-1.39s-1.39.62-1.39 1.39.62 1.39 1.39 1.39 1.39-.62 1.39-1.39m6.11 0c0-.7-.57-1.26-1.26-1.26s-1.26.57-1.26 1.26.57 1.26 1.26 1.26 1.26-.57 1.26-1.26m2.76 0c0-.5-.41-.91-.91-.91s-.91.41-.91.91.41.91.91.91.91-.41.91-.91m5.52 0c0-.11-.09-.2-.2-.2s-.2.09-.2.2.09.2.2.2.2-.09.2-.2m3.09 0c0-.1-.08-.17-.17-.17s-.17.08-.17.17.08.17.17.17.17-.08.17-.17m-37.39 3.12c0-.1-.08-.17-.17-.17s-.17.08-.17.17.08.17.17.17.17-.08.17-.17m3.15 0c0-.11-.09-.21-.21-.21s-.21.09-.21.21.09.21.21.21.21-.09.21-.21m3.36 0c0-.25-.2-.45-.45-.45s-.45.2-.45.45.2.45.45.45.45-.2.45-.45m3.63 0a.96.96 0 1 0-1.92 0 .96.96 0 0 0 1.92 0m3.44 0c0-.71-.58-1.29-1.29-1.29s-1.29.58-1.29 1.29.58 1.29 1.29 1.29 1.29-.58 1.29-1.29m6.33 0c0-.77-.62-1.39-1.39-1.39s-1.39.62-1.39 1.39.62 1.39 1.39 1.39 1.39-.62 1.39-1.39m3.11 0c0-.76-.62-1.38-1.38-1.38s-1.38.62-1.38 1.38.62 1.38 1.38 1.38 1.38-.62 1.38-1.38m3 0c0-.7-.57-1.26-1.26-1.26s-1.26.57-1.26 1.26.57 1.26 1.26 1.26 1.26-.57 1.26-1.26m5.38 0c0-.23-.18-.41-.41-.41s-.41.18-.41.41.18.41.41.41.41-.18.41-.41m2.9 0c0-.11-.09-.2-.2-.2s-.2.09-.2.2.09.2.2.2.2-.09.2-.2m-56.11 3.12c0-.1-.08-.17-.17-.17s-.17.08-.17.17.08.17.17.17.17-.08.17-.17m3.12 0c0-.1-.08-.18-.18-.18s-.18.08-.18.18.08.18.18.18.18-.08.18-.18m9.35 0c0-.1-.08-.18-.18-.18s-.18.08-.18.18.08.18.18.18.18-.08.18-.18m3.11 0c0-.1-.08-.18-.18-.18s-.18.08-.18.18.08.18.18.18.18-.08.18-.18m6.23 0c0-.1-.08-.18-.18-.18s-.18.08-.18.18.08.18.18.18.18-.08.18-.18m3.15 0c0-.11-.09-.21-.21-.21s-.21.09-.21.21.09.21.21.21.21-.09.21-.21m3.36 0c0-.25-.2-.45-.45-.45s-.45.2-.45.45.2.45.45.45.45-.2.45-.45m3.63 0a.96.96 0 1 0-1.92 0 .96.96 0 0 0 1.92 0m3.44 0c0-.71-.58-1.29-1.29-1.29s-1.29.58-1.29 1.29.58 1.29 1.29 1.29 1.29-.58 1.29-1.29m3.21 0c0-.76-.62-1.38-1.38-1.38s-1.38.62-1.38 1.38.62 1.38 1.38 1.38 1.38-.62 1.38-1.38m3.12 0c0-.77-.62-1.39-1.39-1.39s-1.39.62-1.39 1.39.62 1.39 1.39 1.39 1.39-.62 1.39-1.39m3.11 0c0-.76-.62-1.38-1.38-1.38s-1.38.62-1.38 1.38.62 1.38 1.38 1.38 1.38-.62 1.38-1.38m3 0c0-.7-.57-1.26-1.26-1.26s-1.26.57-1.26 1.26.57 1.26 1.26 1.26 1.26-.57 1.26-1.26m2.76 0c0-.5-.41-.91-.91-.91s-.91.41-.91.91.41.91.91.91.91-.41.91-.91m2.62 0c0-.23-.18-.41-.41-.41s-.41.18-.41.41.18.41.41.41.41-.18.41-.41m2.9 0c0-.11-.09-.2-.2-.2s-.2.09-.2.2.09.2.2.2.2-.09.2-.2m3.1 0c0-.1-.08-.18-.18-.18s-.18.08-.18.18.08.18.18.18.18-.08.18-.18m3.11 0c0-.1-.08-.18-.18-.18s-.18.08-.18.18.08.18.18.18.18-.08.18-.18m3.12 0c0-.1-.08-.18-.18-.18s-.18.08-.18.18.08.18.18.18.18-.08.18-.18m3.11 0c0-.1-.08-.18-.18-.18s-.18.08-.18.18.08.18.18.18.18-.08.18-.18m3.12 0c0-.1-.08-.18-.18-.18s-.18.08-.18.18.08.18.18.18.18-.08.18-.18m6.23 0c0-.1-.08-.18-.18-.18s-.18.08-.18.18.08.18.18.18.18-.08.18-.18m3.11 0c0-.1-.08-.17-.17-.17s-.17.08-.17.17.08.17.17.17.17-.08.17-.17m-84.12 3.11c0-.1-.08-.18-.18-.18s-.18.08-.18.18.08.18.18.18.18-.08.18-.18m3.15 0c0-.12-.1-.22-.22-.22s-.22.1-.22.22.1.22.22.22.22-.1.22-.22m3.15 0c0-.14-.11-.24-.24-.24s-.24.11-.24.24.11.24.24.24.24-.11.24-.24m3.12 0c0-.14-.11-.25-.25-.25s-.25.11-.25.25.11.25.25.25.25-.11.25-.25m3.12 0c0-.14-.11-.25-.25-.25s-.25.11-.25.25.11.25.25.25.25-.11.25-.25m3.11 0c0-.14-.11-.25-.25-.25s-.25.11-.25.25.11.25.25.25.25-.11.25-.25m3.12 0c0-.14-.11-.25-.25-.25s-.25.11-.25.25.11.25.25.25.25-.11.25-.25m3.11 0c0-.14-.11-.25-.25-.25s-.25.11-.25.25.11.25.25.25.25-.11.25-.25m3.13 0c0-.14-.12-.26-.26-.26s-.26.12-.26.26.12.26.26.26.26-.12.26-.26m3.14 0a.29.29 0 1 0-.58 0 .29.29 0 0 0 .58 0m3.34 0c0-.29-.23-.52-.52-.52s-.52.23-.52.52.23.52.52.52.52-.23.52-.52m7.02 0c0-.72-.58-1.3-1.3-1.3s-1.3.58-1.3 1.3.58 1.3 1.3 1.3 1.3-.58 1.3-1.3m3.2 0c0-.76-.62-1.38-1.38-1.38s-1.38.62-1.38 1.38.62 1.38 1.38 1.38 1.38-.62 1.38-1.38m6.23 0c0-.76-.62-1.38-1.38-1.38s-1.38.62-1.38 1.38.62 1.38 1.38 1.38 1.38-.62 1.38-1.38m5.79 0a.939.939 0 1 0-1.88 0 .939.939 0 1 0 1.88 0m2.65 0c0-.26-.21-.48-.48-.48s-.48.21-.48.48.21.48.48.48.48-.21.48-.48m2.93 0c0-.16-.13-.28-.28-.28s-.28.13-.28.28.13.28.28.28.28-.13.28-.28m3.09 0c0-.14-.12-.26-.26-.26s-.26.12-.26.26.12.26.26.26.26-.12.26-.26m6.22 0c0-.14-.11-.25-.25-.25s-.25.11-.25.25.11.25.25.25.25-.11.25-.25m3.12 0c0-.14-.11-.25-.25-.25s-.25.11-.25.25.11.25.25.25.25-.11.25-.25m3.12 0c0-.14-.11-.25-.25-.25s-.25.11-.25.25.11.25.25.25.25-.11.25-.25m3.12 0c0-.14-.12-.26-.26-.26s-.26.12-.26.26.12.26.26.26.26-.12.26-.26m3.1 0c0-.14-.11-.24-.24-.24s-.24.11-.24.24.11.24.24.24.24-.11.24-.24m3.08 0c0-.12-.09-.21-.21-.21s-.21.09-.21.21.09.21.21.21.21-.09.21-.21m3.09 0c0-.1-.08-.18-.18-.18s-.18.08-.18.18.08.18.18.18.18-.08.18-.18m-90.37 3.12c0-.1-.08-.18-.18-.18s-.18.08-.18.18.08.18.18.18.18-.08.18-.18m3.18 0c0-.13-.11-.24-.24-.24s-.24.11-.24.24.11.24.24.24.24-.11.24-.24m3.27 0c0-.22-.18-.4-.4-.4s-.4.18-.4.4.18.4.4.4.4-.18.4-.4m3.28 0a.56.56 0 1 0-1.12 0 .56.56 0 1 0 1.12 0m6.3 0c0-.35-.28-.63-.63-.63s-.63.28-.63.63.28.63.63.63.63-.28.63-.63m3.11 0c0-.35-.28-.63-.63-.63s-.63.28-.63.63.28.63.63.63.63-.28.63-.63m3.12 0c0-.35-.28-.63-.63-.63s-.63.28-.63.63.28.63.63.63.63-.28.63-.63m3.12 0c0-.35-.28-.63-.63-.63s-.63.28-.63.63.28.63.63.63.63-.28.63-.63m6.25 0c0-.36-.29-.64-.64-.64s-.64.29-.64.64.29.64.64.64.64-.29.64-.64m3.27 0c0-.44-.36-.8-.8-.8s-.8.36-.8.8.36.8.8.8.8-.36.8-.8m3.44 0c0-.62-.5-1.12-1.12-1.12s-1.12.5-1.12 1.12.5 1.12 1.12 1.12 1.12-.5 1.12-1.12m3.32 0c0-.73-.59-1.33-1.33-1.33s-1.33.59-1.33 1.33.59 1.33 1.33 1.33 1.33-.59 1.33-1.33m3.17 0c0-.76-.62-1.38-1.38-1.38s-1.38.62-1.38 1.38.62 1.38 1.38 1.38 1.38-.62 1.38-1.38m3.12 0c0-.77-.62-1.39-1.39-1.39s-1.39.62-1.39 1.39.62 1.39 1.39 1.39 1.39-.62 1.39-1.39m3.11 0c0-.76-.62-1.38-1.38-1.38s-1.38.62-1.38 1.38.62 1.38 1.38 1.38 1.38-.62 1.38-1.38m3.04 0c0-.72-.59-1.31-1.31-1.31s-1.31.59-1.31 1.31.59 1.31 1.31 1.31 1.31-.59 1.31-1.31m2.89 0c0-.6-.49-1.08-1.08-1.08s-1.08.49-1.08 1.08.49 1.08 1.08 1.08 1.08-.49 1.08-1.08m2.81 0c0-.43-.35-.77-.77-.77s-.77.35-.77.77.35.77.77.77.77-.35.77-.77m2.98 0c0-.35-.29-.64-.64-.64s-.64.29-.64.64.29.64.64.64.64-.29.64-.64m3.1 0c0-.35-.28-.63-.63-.63s-.63.28-.63.63.28.63.63.63.63-.28.63-.63m3.12 0c0-.35-.28-.63-.63-.63s-.63.28-.63.63.28.63.63.63.63-.28.63-.63m6.23 0c0-.35-.28-.63-.63-.63s-.63.28-.63.63.28.63.63.63.63-.28.63-.63m6.23 0c0-.34-.28-.62-.62-.62s-.62.28-.62.62.28.62.62.62.62-.28.62-.62m3.04 0c0-.3-.25-.55-.55-.55s-.55.25-.55.55.25.55.55.55.55-.25.55-.55m2.95 0a.38.38 0 1 0-.76 0 .38.38 0 0 0 .76 0m2.96 0c0-.12-.1-.23-.23-.23s-.23.1-.23.23.1.23.23.23.23-.1.23-.23m3.07 0c0-.1-.08-.18-.18-.18s-.18.08-.18.18.08.18.18.18.18-.08.18-.18m-93.47 3.11c0-.1-.08-.18-.18-.18s-.18.08-.18.18.08.18.18.18.18-.08.18-.18m3.25 0c0-.18-.14-.32-.32-.32s-.32.14-.32.32.14.32.32.32.32-.14.32-.32m3.44 0c0-.36-.29-.64-.64-.64s-.64.29-.64.64.29.64.64.64.64-.29.64-.64m3.48 0c0-.56-.45-1.01-1.01-1.01s-1.01.45-1.01 1.01.45 1.01 1.01 1.01 1.01-.45 1.01-1.01m3.23 0c0-.62-.5-1.13-1.13-1.13s-1.13.5-1.13 1.13.5 1.13 1.13 1.13 1.13-.5 1.13-1.13m3.13 0a1.14 1.14 0 1 0-2.279-.001 1.14 1.14 0 0 0 2.279.001m3.11 0a1.14 1.14 0 1 0-2.279-.001 1.14 1.14 0 0 0 2.279.001m3.12 0a1.14 1.14 0 1 0-2.279-.001 1.14 1.14 0 0 0 2.279.001m3.12 0a1.14 1.14 0 1 0-2.279-.001 1.14 1.14 0 0 0 2.279.001m3.11 0a1.14 1.14 0 1 0-2.279-.001 1.14 1.14 0 0 0 2.279.001m3.12 0a1.14 1.14 0 1 0-2.279-.001 1.14 1.14 0 0 0 2.279.001m3.17 0c0-.66-.53-1.19-1.19-1.19s-1.19.53-1.19 1.19.53 1.19 1.19 1.19 1.19-.53 1.19-1.19m3.23 0c0-.72-.58-1.3-1.3-1.3s-1.3.58-1.3 1.3.58 1.3 1.3 1.3 1.3-.58 1.3-1.3m3.18 0c0-.76-.61-1.37-1.37-1.37s-1.37.61-1.37 1.37.61 1.37 1.37 1.37 1.37-.61 1.37-1.37m6.25 0c0-.77-.62-1.39-1.39-1.39s-1.39.62-1.39 1.39.62 1.39 1.39 1.39 1.39-.62 1.39-1.39m3.12 0c0-.77-.62-1.39-1.39-1.39s-1.39.62-1.39 1.39.62 1.39 1.39 1.39 1.39-.62 1.39-1.39m6.13 0c0-.71-.58-1.29-1.29-1.29s-1.29.58-1.29 1.29.58 1.29 1.29 1.29 1.29-.58 1.29-1.29m3.01 0c0-.65-.53-1.18-1.18-1.18s-1.18.53-1.18 1.18.53 1.18 1.18 1.18 1.18-.53 1.18-1.18m3.07 0a1.14 1.14 0 1 0-2.279-.001 1.14 1.14 0 0 0 2.279.001m3.11 0a1.14 1.14 0 1 0-2.279-.001 1.14 1.14 0 0 0 2.279.001m3.12 0a1.14 1.14 0 1 0-2.279-.001 1.14 1.14 0 0 0 2.279.001m3.12 0a1.14 1.14 0 1 0-2.279-.001 1.14 1.14 0 0 0 2.279.001m3.11 0a1.14 1.14 0 1 0-2.279-.001 1.14 1.14 0 0 0 2.279.001m3.12 0a1.14 1.14 0 1 0-2.279-.001 1.14 1.14 0 0 0 2.279.001m3.1 0c0-.62-.5-1.12-1.12-1.12s-1.12.5-1.12 1.12.5 1.12 1.12 1.12 1.12-.5 1.12-1.12m2.98 0c0-.54-.44-.98-.98-.98s-.98.44-.98.98.44.98.98.98.98-.44.98-.98m2.73 0c0-.33-.27-.6-.6-.6s-.6.27-.6.6.27.6.6.6.6-.27.6-.6m2.81 0c0-.16-.13-.3-.3-.3s-.3.13-.3.3.13.3.3.3.3-.13.3-.3m3 0c0-.1-.08-.18-.18-.18s-.18.08-.18.18.08.18.18.18.18-.08.18-.18m-83.1 3.12c0-.67-.54-1.21-1.21-1.21s-1.21.54-1.21 1.21.54 1.21 1.21 1.21 1.21-.54 1.21-1.21m3.26 0c0-.75-.6-1.35-1.35-1.35s-1.35.6-1.35 1.35.6 1.35 1.35 1.35 1.35-.6 1.35-1.35m6.24 0c0-.75-.61-1.36-1.36-1.36s-1.36.61-1.36 1.36.61 1.36 1.36 1.36 1.36-.61 1.36-1.36m3.11 0c0-.75-.61-1.36-1.36-1.36s-1.36.61-1.36 1.36.61 1.36 1.36 1.36 1.36-.61 1.36-1.36m6.24 0c0-.75-.61-1.36-1.36-1.36s-1.36.61-1.36 1.36.61 1.36 1.36 1.36 1.36-.61 1.36-1.36m3.11 0c0-.75-.61-1.36-1.36-1.36s-1.36.61-1.36 1.36.61 1.36 1.36 1.36 1.36-.61 1.36-1.36m3.13 0c0-.76-.61-1.37-1.37-1.37s-1.37.61-1.37 1.37.61 1.37 1.37 1.37 1.37-.61 1.37-1.37m3.12 0c0-.76-.62-1.38-1.38-1.38s-1.38.62-1.38 1.38.62 1.38 1.38 1.38 1.38-.62 1.38-1.38m3.13 0c0-.77-.62-1.39-1.39-1.39s-1.39.62-1.39 1.39.62 1.39 1.39 1.39 1.39-.62 1.39-1.39m3.11 0c0-.77-.62-1.39-1.39-1.39s-1.39.62-1.39 1.39.62 1.39 1.39 1.39 1.39-.62 1.39-1.39m3.12 0c0-.77-.62-1.39-1.39-1.39s-1.39.62-1.39 1.39.62 1.39 1.39 1.39 1.39-.62 1.39-1.39m3.12 0c0-.77-.62-1.39-1.39-1.39s-1.39.62-1.39 1.39.62 1.39 1.39 1.39 1.39-.62 1.39-1.39m3.11 0c0-.77-.62-1.39-1.39-1.39s-1.39.62-1.39 1.39.62 1.39 1.39 1.39 1.39-.62 1.39-1.39m3.11 0c0-.76-.62-1.38-1.38-1.38s-1.38.62-1.38 1.38.62 1.38 1.38 1.38 1.38-.62 1.38-1.38m3.1 0c0-.75-.61-1.36-1.36-1.36s-1.36.61-1.36 1.36.61 1.36 1.36 1.36 1.36-.61 1.36-1.36m3.11 0c0-.75-.61-1.36-1.36-1.36s-1.36.61-1.36 1.36.61 1.36 1.36 1.36 1.36-.61 1.36-1.36m3.12 0c0-.75-.61-1.36-1.36-1.36s-1.36.61-1.36 1.36.61 1.36 1.36 1.36 1.36-.61 1.36-1.36m3.11 0c0-.75-.61-1.36-1.36-1.36s-1.36.61-1.36 1.36.61 1.36 1.36 1.36 1.36-.61 1.36-1.36m3.12 0c0-.75-.61-1.36-1.36-1.36s-1.36.61-1.36 1.36.61 1.36 1.36 1.36 1.36-.61 1.36-1.36m6.23 0c0-.75-.61-1.36-1.36-1.36s-1.36.61-1.36 1.36.61 1.36 1.36 1.36 1.36-.61 1.36-1.36m3.1 0a1.35 1.35 0 1 0-2.701.001 1.35 1.35 0 0 0 2.701-.001m2.94 0c0-.65-.52-1.17-1.17-1.17s-1.17.52-1.17 1.17.52 1.17 1.17 1.17 1.17-.52 1.17-1.17m2.65 0c0-.39-.31-.7-.7-.7s-.7.31-.7.7.31.7.7.7.7-.31.7-.7m2.74 0c0-.18-.14-.32-.32-.32s-.32.14-.32.32.14.32.32.32.32-.14.32-.32m2.97 0c0-.1-.08-.18-.18-.18s-.18.08-.18.18.08.18.18.18.18-.08.18-.18m-93.47 3.12c0-.1-.08-.19-.19-.19s-.19.08-.19.19.08.19.19.19.19-.08.19-.19m3.29 0c0-.2-.16-.36-.36-.36s-.36.16-.36.36.16.36.36.36.36-.16.36-.36m7.1 0a1.23 1.23 0 1 0-2.46 0 1.23 1.23 0 1 0 2.46 0m6.39 0c0-.77-.62-1.39-1.39-1.39s-1.39.62-1.39 1.39.62 1.39 1.39 1.39 1.39-.62 1.39-1.39m3.12 0c0-.77-.62-1.39-1.39-1.39s-1.39.62-1.39 1.39.62 1.39 1.39 1.39 1.39-.62 1.39-1.39m3.11 0c0-.77-.62-1.39-1.39-1.39s-1.39.62-1.39 1.39.62 1.39 1.39 1.39 1.39-.62 1.39-1.39m3.12 0c0-.77-.62-1.39-1.39-1.39s-1.39.62-1.39 1.39.62 1.39 1.39 1.39 1.39-.62 1.39-1.39m3.11 0c0-.77-.62-1.39-1.39-1.39s-1.39.62-1.39 1.39.62 1.39 1.39 1.39 1.39-.62 1.39-1.39m3.12 0c0-.77-.62-1.39-1.39-1.39s-1.39.62-1.39 1.39.62 1.39 1.39 1.39 1.39-.62 1.39-1.39m3.12 0c0-.77-.62-1.39-1.39-1.39s-1.39.62-1.39 1.39.62 1.39 1.39 1.39 1.39-.62 1.39-1.39m3.11 0c0-.77-.62-1.39-1.39-1.39s-1.39.62-1.39 1.39.62 1.39 1.39 1.39 1.39-.62 1.39-1.39m3.12 0c0-.77-.62-1.39-1.39-1.39s-1.39.62-1.39 1.39.62 1.39 1.39 1.39 1.39-.62 1.39-1.39m3.11 0c0-.77-.62-1.39-1.39-1.39s-1.39.62-1.39 1.39.62 1.39 1.39 1.39 1.39-.62 1.39-1.39m3.12 0c0-.77-.62-1.39-1.39-1.39s-1.39.62-1.39 1.39.62 1.39 1.39 1.39 1.39-.62 1.39-1.39m3.12 0c0-.77-.62-1.39-1.39-1.39s-1.39.62-1.39 1.39.62 1.39 1.39 1.39 1.39-.62 1.39-1.39m3.11 0c0-.77-.62-1.39-1.39-1.39s-1.39.62-1.39 1.39.62 1.39 1.39 1.39 1.39-.62 1.39-1.39m3.12 0c0-.77-.62-1.39-1.39-1.39s-1.39.62-1.39 1.39.62 1.39 1.39 1.39 1.39-.62 1.39-1.39m3.11 0c0-.77-.62-1.39-1.39-1.39s-1.39.62-1.39 1.39.62 1.39 1.39 1.39 1.39-.62 1.39-1.39m3.12 0c0-.77-.62-1.39-1.39-1.39s-1.39.62-1.39 1.39.62 1.39 1.39 1.39 1.39-.62 1.39-1.39m6.23 0c0-.77-.62-1.39-1.39-1.39s-1.39.62-1.39 1.39.62 1.39 1.39 1.39 1.39-.62 1.39-1.39m3.12 0c0-.77-.62-1.39-1.39-1.39s-1.39.62-1.39 1.39.62 1.39 1.39 1.39 1.39-.62 1.39-1.39m3.11 0c0-.77-.62-1.39-1.39-1.39s-1.39.62-1.39 1.39.62 1.39 1.39 1.39 1.39-.62 1.39-1.39m3.12 0c0-.77-.62-1.39-1.39-1.39s-1.39.62-1.39 1.39.62 1.39 1.39 1.39 1.39-.62 1.39-1.39m3.1 0c0-.76-.61-1.37-1.37-1.37s-1.37.61-1.37 1.37.61 1.37 1.37 1.37 1.37-.61 1.37-1.37m2.93 0c0-.66-.53-1.19-1.19-1.19s-1.19.53-1.19 1.19.53 1.19 1.19 1.19 1.19-.53 1.19-1.19m2.64 0c0-.39-.32-.71-.71-.71s-.71.32-.71.71.32.71.71.71.71-.32.71-.71m2.73 0c0-.18-.14-.32-.32-.32s-.32.14-.32.32.14.32.32.32.32-.14.32-.32m2.97 0c0-.1-.08-.18-.18-.18s-.18.08-.18.18.08.18.18.18.18-.08.18-.18m-90.18 3.11c0-.2-.16-.36-.36-.36s-.36.16-.36.36.16.36.36.36.36-.16.36-.36m3.53 0c0-.43-.35-.77-.77-.77s-.77.35-.77.77.35.77.77.77.77-.35.77-.77m6.83 0c0-.76-.62-1.37-1.37-1.37s-1.37.62-1.37 1.37.62 1.37 1.37 1.37 1.37-.62 1.37-1.37m9.36 0c0-.77-.62-1.39-1.39-1.39s-1.39.62-1.39 1.39.62 1.39 1.39 1.39 1.39-.62 1.39-1.39m3.12 0c0-.77-.62-1.39-1.39-1.39s-1.39.62-1.39 1.39.62 1.39 1.39 1.39 1.39-.62 1.39-1.39m3.11 0c0-.77-.62-1.39-1.39-1.39s-1.39.62-1.39 1.39.62 1.39 1.39 1.39 1.39-.62 1.39-1.39m3.12 0c0-.77-.62-1.39-1.39-1.39s-1.39.62-1.39 1.39.62 1.39 1.39 1.39 1.39-.62 1.39-1.39m6.23 0c0-.77-.62-1.39-1.39-1.39s-1.39.62-1.39 1.39.62 1.39 1.39 1.39 1.39-.62 1.39-1.39m3.12 0c0-.77-.62-1.39-1.39-1.39s-1.39.62-1.39 1.39.62 1.39 1.39 1.39 1.39-.62 1.39-1.39m3.11 0c0-.77-.62-1.39-1.39-1.39s-1.39.62-1.39 1.39.62 1.39 1.39 1.39 1.39-.62 1.39-1.39m6.24 0c0-.77-.62-1.39-1.39-1.39s-1.39.62-1.39 1.39.62 1.39 1.39 1.39 1.39-.62 1.39-1.39m6.23 0c0-.77-.62-1.39-1.39-1.39s-1.39.62-1.39 1.39.62 1.39 1.39 1.39 1.39-.62 1.39-1.39m3.11 0c0-.77-.62-1.39-1.39-1.39s-1.39.62-1.39 1.39.62 1.39 1.39 1.39 1.39-.62 1.39-1.39m3.12 0c0-.77-.62-1.39-1.39-1.39s-1.39.62-1.39 1.39.62 1.39 1.39 1.39 1.39-.62 1.39-1.39m3.12 0c0-.77-.62-1.39-1.39-1.39s-1.39.62-1.39 1.39.62 1.39 1.39 1.39 1.39-.62 1.39-1.39m3.11 0c0-.77-.62-1.39-1.39-1.39s-1.39.62-1.39 1.39.62 1.39 1.39 1.39 1.39-.62 1.39-1.39m3.12 0c0-.77-.62-1.39-1.39-1.39s-1.39.62-1.39 1.39.62 1.39 1.39 1.39 1.39-.62 1.39-1.39m3.11 0c0-.77-.62-1.39-1.39-1.39s-1.39.62-1.39 1.39.62 1.39 1.39 1.39 1.39-.62 1.39-1.39m3.12 0c0-.77-.62-1.39-1.39-1.39s-1.39.62-1.39 1.39.62 1.39 1.39 1.39 1.39-.62 1.39-1.39m3.1 0c0-.76-.62-1.37-1.37-1.37s-1.37.62-1.37 1.37.62 1.37 1.37 1.37 1.37-.62 1.37-1.37m5.57 0c0-.39-.32-.71-.71-.71s-.71.32-.71.71.32.71.71.71.71-.32.71-.71m2.73 0c0-.18-.14-.32-.32-.32s-.32.14-.32.32.14.32.32.32.32-.14.32-.32m-90.5 3.12c0-.1-.08-.19-.19-.19s-.19.08-.19.19.08.19.19.19.19-.08.19-.19m3.28 0c0-.2-.16-.35-.35-.35s-.35.16-.35.35.16.35.35.35.35-.16.35-.35m3.52 0a.76.76 0 1 0-1.52 0 .76.76 0 0 0 1.52 0m3.57 0c0-.67-.54-1.21-1.21-1.21s-1.21.54-1.21 1.21.54 1.21 1.21 1.21 1.21-.54 1.21-1.21m3.26 0c0-.75-.61-1.36-1.36-1.36s-1.36.61-1.36 1.36.61 1.36 1.36 1.36 1.36-.61 1.36-1.36m6.24 0c0-.75-.61-1.36-1.36-1.36s-1.36.61-1.36 1.36.61 1.36 1.36 1.36 1.36-.61 1.36-1.36m3.12 0c0-.75-.61-1.36-1.36-1.36s-1.36.61-1.36 1.36.61 1.36 1.36 1.36 1.36-.61 1.36-1.36m6.23 0c0-.75-.61-1.36-1.36-1.36s-1.36.61-1.36 1.36.61 1.36 1.36 1.36 1.36-.61 1.36-1.36m3.12 0c0-.75-.61-1.36-1.36-1.36s-1.36.61-1.36 1.36.61 1.36 1.36 1.36 1.36-.61 1.36-1.36m3.11 0c0-.75-.61-1.36-1.36-1.36s-1.36.61-1.36 1.36.61 1.36 1.36 1.36 1.36-.61 1.36-1.36m3.12 0c0-.75-.61-1.36-1.36-1.36s-1.36.61-1.36 1.36.61 1.36 1.36 1.36 1.36-.61 1.36-1.36m9.35 0c0-.75-.61-1.36-1.36-1.36s-1.36.61-1.36 1.36.61 1.36 1.36 1.36 1.36-.61 1.36-1.36m3.11 0c0-.75-.61-1.36-1.36-1.36s-1.36.61-1.36 1.36.61 1.36 1.36 1.36 1.36-.61 1.36-1.36m3.12 0c0-.75-.61-1.36-1.36-1.36s-1.36.61-1.36 1.36.61 1.36 1.36 1.36 1.36-.61 1.36-1.36m3.11 0c0-.75-.61-1.36-1.36-1.36s-1.36.61-1.36 1.36.61 1.36 1.36 1.36 1.36-.61 1.36-1.36m6.24 0c0-.75-.61-1.36-1.36-1.36s-1.36.61-1.36 1.36.61 1.36 1.36 1.36 1.36-.61 1.36-1.36m3.11 0c0-.75-.61-1.36-1.36-1.36s-1.36.61-1.36 1.36.61 1.36 1.36 1.36 1.36-.61 1.36-1.36m6.23 0c0-.75-.61-1.36-1.36-1.36s-1.36.61-1.36 1.36.61 1.36 1.36 1.36 1.36-.61 1.36-1.36m3.12 0c0-.75-.61-1.36-1.36-1.36s-1.36.61-1.36 1.36.61 1.36 1.36 1.36 1.36-.61 1.36-1.36m3.12 0c0-.75-.61-1.36-1.36-1.36s-1.36.61-1.36 1.36.61 1.36 1.36 1.36 1.36-.61 1.36-1.36m3.1 0c0-.75-.6-1.35-1.35-1.35s-1.35.6-1.35 1.35.6 1.35 1.35 1.35 1.35-.6 1.35-1.35m2.94 0c0-.65-.53-1.17-1.17-1.17s-1.17.53-1.17 1.17.53 1.17 1.17 1.17 1.17-.53 1.17-1.17m2.64 0c0-.39-.31-.7-.7-.7s-.7.31-.7.7.31.7.7.7.7-.31.7-.7m2.74 0c0-.18-.14-.32-.32-.32s-.32.14-.32.32.14.32.32.32.32-.14.32-.32m2.97 0c0-.1-.08-.18-.18-.18s-.18.08-.18.18.08.18.18.18.18-.08.18-.18m-93.47 3.11c0-.1-.08-.18-.18-.18s-.18.08-.18.18.08.18.18.18.18-.08.18-.18m3.25 0c0-.18-.14-.32-.32-.32s-.32.14-.32.32.14.32.32.32.32-.14.32-.32m3.45 0c0-.36-.29-.65-.65-.65s-.65.29-.65.65.29.65.65.65.65-.29.65-.65m3.48 0c0-.56-.46-1.02-1.02-1.02s-1.02.46-1.02 1.02.46 1.02 1.02 1.02 1.02-.46 1.02-1.02m6.37 0c0-.64-.52-1.15-1.15-1.15s-1.15.52-1.15 1.15.52 1.15 1.15 1.15 1.15-.52 1.15-1.15m6.23 0c0-.64-.52-1.15-1.15-1.15s-1.15.52-1.15 1.15.52 1.15 1.15 1.15 1.15-.52 1.15-1.15m3.12 0c0-.64-.52-1.15-1.15-1.15s-1.15.52-1.15 1.15.52 1.15 1.15 1.15 1.15-.52 1.15-1.15m3.11 0c0-.64-.52-1.15-1.15-1.15s-1.15.52-1.15 1.15.52 1.15 1.15 1.15 1.15-.52 1.15-1.15m6.23 0c0-.64-.52-1.15-1.15-1.15s-1.15.52-1.15 1.15.52 1.15 1.15 1.15 1.15-.52 1.15-1.15m3.12 0c0-.64-.52-1.15-1.15-1.15s-1.15.52-1.15 1.15.52 1.15 1.15 1.15 1.15-.52 1.15-1.15m3.12 0c0-.64-.52-1.15-1.15-1.15s-1.15.52-1.15 1.15.52 1.15 1.15 1.15 1.15-.52 1.15-1.15m3.11 0c0-.64-.52-1.15-1.15-1.15s-1.15.52-1.15 1.15.52 1.15 1.15 1.15 1.15-.52 1.15-1.15m3.12 0c0-.64-.52-1.15-1.15-1.15s-1.15.52-1.15 1.15.52 1.15 1.15 1.15 1.15-.52 1.15-1.15m3.11 0c0-.64-.52-1.15-1.15-1.15s-1.15.52-1.15 1.15.52 1.15 1.15 1.15 1.15-.52 1.15-1.15m3.12 0c0-.64-.52-1.15-1.15-1.15s-1.15.52-1.15 1.15.52 1.15 1.15 1.15 1.15-.52 1.15-1.15m6.23 0c0-.64-.52-1.15-1.15-1.15s-1.15.52-1.15 1.15.52 1.15 1.15 1.15 1.15-.52 1.15-1.15m6.23 0c0-.64-.52-1.15-1.15-1.15s-1.15.52-1.15 1.15.52 1.15 1.15 1.15 1.15-.52 1.15-1.15m3.12 0c0-.64-.52-1.15-1.15-1.15s-1.15.52-1.15 1.15.52 1.15 1.15 1.15 1.15-.52 1.15-1.15m3.12 0c0-.64-.52-1.15-1.15-1.15s-1.15.52-1.15 1.15.52 1.15 1.15 1.15 1.15-.52 1.15-1.15m6.23 0c0-.64-.52-1.15-1.15-1.15s-1.15.52-1.15 1.15.52 1.15 1.15 1.15 1.15-.52 1.15-1.15m3.1 0a1.15 1.15 0 1 0-2.3 0 1.15 1.15 0 0 0 2.3 0m5.7 0c0-.34-.27-.61-.61-.61s-.61.27-.61.61.27.61.61.61.61-.27.61-.61m2.8 0c0-.16-.13-.3-.3-.3s-.3.13-.3.3.13.3.3.3.3-.13.3-.3m3 0c0-.1-.08-.18-.18-.18s-.18.08-.18.18.08.18.18.18.18-.08.18-.18m-93.48 3.12c0-.1-.08-.18-.18-.18s-.18.08-.18.18.08.18.18.18.18-.08.18-.18m3.18 0c0-.14-.11-.24-.24-.24s-.24.11-.24.24.11.24.24.24.24-.11.24-.24m3.28 0c0-.22-.18-.4-.4-.4s-.4.18-.4.4.18.4.4.4.4-.18.4-.4m3.3 0a.591.591 0 1 0-1.182.002.591.591 0 0 0 1.182-.002m3.18 0c0-.36-.29-.65-.65-.65s-.65.29-.65.65.29.65.65.65.65-.29.65-.65m3.12 0c0-.36-.29-.65-.65-.65s-.65.29-.65.65.29.65.65.65.65-.29.65-.65m3.11 0c0-.36-.29-.65-.65-.65s-.65.29-.65.65.29.65.65.65.65-.29.65-.65m3.12 0c0-.36-.29-.65-.65-.65s-.65.29-.65.65.29.65.65.65.65-.29.65-.65m6.23 0c0-.36-.29-.65-.65-.65s-.65.29-.65.65.29.65.65.65.65-.29.65-.65m3.12 0c0-.36-.29-.65-.65-.65s-.65.29-.65.65.29.65.65.65.65-.29.65-.65m3.11 0c0-.36-.29-.65-.65-.65s-.65.29-.65.65.29.65.65.65.65-.29.65-.65m3.12 0c0-.36-.29-.65-.65-.65s-.65.29-.65.65.29.65.65.65.65-.29.65-.65m3.11 0c0-.36-.29-.65-.65-.65s-.65.29-.65.65.29.65.65.65.65-.29.65-.65m3.12 0c0-.36-.29-.65-.65-.65s-.65.29-.65.65.29.65.65.65.65-.29.65-.65m9.35 0c0-.36-.29-.65-.65-.65s-.65.29-.65.65.29.65.65.65.65-.29.65-.65m3.11 0c0-.36-.29-.65-.65-.65s-.65.29-.65.65.29.65.65.65.65-.29.65-.65m3.12 0c0-.36-.29-.65-.65-.65s-.65.29-.65.65.29.65.65.65.65-.29.65-.65m3.12 0c0-.36-.29-.65-.65-.65s-.65.29-.65.65.29.65.65.65.65-.29.65-.65m3.11 0c0-.36-.29-.65-.65-.65s-.65.29-.65.65.29.65.65.65.65-.29.65-.65m3.12 0c0-.36-.29-.65-.65-.65s-.65.29-.65.65.29.65.65.65.65-.29.65-.65m3.11 0c0-.36-.29-.65-.65-.65s-.65.29-.65.65.29.65.65.65.65-.29.65-.65m6.24 0c0-.36-.29-.65-.65-.65s-.65.29-.65.65.29.65.65.65.65-.29.65-.65m3.11 0c0-.36-.29-.65-.65-.65s-.65.29-.65.65.29.65.65.65.65-.29.65-.65m3.04 0a.57.57 0 1 0-1.14 0 .57.57 0 0 0 1.14 0m2.93 0c0-.21-.17-.39-.39-.39s-.39.17-.39.39.17.39.39.39.39-.17.39-.39m2.96 0c0-.13-.11-.24-.24-.24s-.24.11-.24.24.11.24.24.24.24-.11.24-.24m3.06 0c0-.1-.08-.18-.18-.18s-.18.08-.18.18.08.18.18.18.18-.08.18-.18m-90.35 3.12c0-.1-.08-.19-.19-.19s-.19.08-.19.19.08.19.19.19.19-.08.19-.19m3.15 0c0-.12-.1-.22-.22-.22s-.22.1-.22.22.1.22.22.22.22-.1.22-.22m3.14 0c0-.14-.11-.25-.25-.25s-.25.11-.25.25.11.25.25.25.25-.11.25-.25m3.13 0c0-.15-.12-.27-.27-.27s-.27.12-.27.27.12.27.27.27.27-.12.27-.27m3.12 0c0-.15-.12-.27-.27-.27s-.27.12-.27.27.12.27.27.27.27-.12.27-.27m3.12 0c0-.15-.12-.27-.27-.27s-.27.12-.27.27.12.27.27.27.27-.12.27-.27m3.11 0c0-.15-.12-.27-.27-.27s-.27.12-.27.27.12.27.27.27.27-.12.27-.27m3.12 0c0-.15-.12-.27-.27-.27s-.27.12-.27.27.12.27.27.27.27-.12.27-.27m9.35 0c0-.15-.12-.27-.27-.27s-.27.12-.27.27.12.27.27.27.27-.12.27-.27m3.11 0c0-.15-.12-.27-.27-.27s-.27.12-.27.27.12.27.27.27.27-.12.27-.27m3.12 0c0-.15-.12-.27-.27-.27s-.27.12-.27.27.12.27.27.27.27-.12.27-.27m3.11 0c0-.15-.12-.27-.27-.27s-.27.12-.27.27.12.27.27.27.27-.12.27-.27m3.12 0c0-.15-.12-.27-.27-.27s-.27.12-.27.27.12.27.27.27.27-.12.27-.27m3.12 0c0-.15-.12-.27-.27-.27s-.27.12-.27.27.12.27.27.27.27-.12.27-.27m3.11 0c0-.15-.12-.27-.27-.27s-.27.12-.27.27.12.27.27.27.27-.12.27-.27m3.12 0c0-.15-.12-.27-.27-.27s-.27.12-.27.27.12.27.27.27.27-.12.27-.27m3.11 0c0-.15-.12-.27-.27-.27s-.27.12-.27.27.12.27.27.27.27-.12.27-.27m3.12 0c0-.15-.12-.27-.27-.27s-.27.12-.27.27.12.27.27.27.27-.12.27-.27m3.12 0c0-.15-.12-.27-.27-.27s-.27.12-.27.27.12.27.27.27.27-.12.27-.27m6.23 0c0-.15-.12-.27-.27-.27s-.27.12-.27.27.12.27.27.27.27-.12.27-.27m3.11 0c0-.15-.12-.27-.27-.27s-.27.12-.27.27.12.27.27.27.27-.12.27-.27m3.12 0c0-.15-.12-.27-.27-.27s-.27.12-.27.27.12.27.27.27.27-.12.27-.27m3.12 0c0-.15-.12-.27-.27-.27s-.27.12-.27.27.12.27.27.27.27-.12.27-.27m3.09 0c0-.14-.11-.24-.24-.24s-.24.11-.24.24.11.24.24.24.24-.11.24-.24m3.09 0c0-.12-.1-.22-.22-.22s-.22.1-.22.22.1.22.22.22.22-.1.22-.22m3.08 0c0-.1-.08-.19-.19-.19s-.19.08-.19.19.08.19.19.19.19-.08.19-.19m-84.14 3.11c0-.1-.08-.18-.18-.18s-.18.08-.18.18.08.18.18.18.18-.08.18-.18m6.23 0c0-.1-.08-.18-.18-.18s-.18.08-.18.18.08.18.18.18.18-.08.18-.18m3.12 0c0-.1-.08-.18-.18-.18s-.18.08-.18.18.08.18.18.18.18-.08.18-.18m6.23 0c0-.1-.08-.18-.18-.18s-.18.08-.18.18.08.18.18.18.18-.08.18-.18m9.35 0c0-.1-.08-.18-.18-.18s-.18.08-.18.18.08.18.18.18.18-.08.18-.18m3.12 0c0-.1-.08-.18-.18-.18s-.18.08-.18.18.08.18.18.18.18-.08.18-.18m3.11 0c0-.1-.08-.18-.18-.18s-.18.08-.18.18.08.18.18.18.18-.08.18-.18m3.12 0c0-.1-.08-.18-.18-.18s-.18.08-.18.18.08.18.18.18.18-.08.18-.18m3.11 0c0-.1-.08-.18-.18-.18s-.18.08-.18.18.08.18.18.18.18-.08.18-.18m12.47 0c0-.1-.08-.18-.18-.18s-.18.08-.18.18.08.18.18.18.18-.08.18-.18m3.11 0c0-.1-.08-.18-.18-.18s-.18.08-.18.18.08.18.18.18.18-.08.18-.18m6.24 0c0-.1-.08-.18-.18-.18s-.18.08-.18.18.08.18.18.18.18-.08.18-.18m3.11 0c0-.1-.08-.18-.18-.18s-.18.08-.18.18.08.18.18.18.18-.08.18-.18m6.23 0c0-.1-.08-.18-.18-.18s-.18.08-.18.18.08.18.18.18.18-.08.18-.18m6.24 0c0-.1-.08-.18-.18-.18s-.18.08-.18.18.08.18.18.18.18-.08.18-.18m3.11 0c0-.1-.08-.18-.18-.18s-.18.08-.18.18.08.18.18.18.18-.08.18-.18m3.12 0c0-.1-.08-.18-.18-.18s-.18.08-.18.18.08.18.18.18.18-.08.18-.18"/></svg>